/* XPM */
static char *result[] = {
/* columns rows colors chars-per-pixel */
"40 40 145 2 ",
"   c #030214",
".  c #02031B",
"X  c #0B0119",
"o  c #0B0A1D",
"O  c #12061C",
"+  c #160A1C",
"@  c #1B0D1D",
"#  c #11101C",
"$  c #1D121E",
"%  c #29131C",
"&  c #25141F",
"*  c #0C0E20",
"=  c #140E21",
"-  c #191326",
";  c #2D0F25",
":  c #3E092B",
">  c #201322",
",  c #2D2426",
"<  c #6E2116",
"1  c #712216",
"2  c #45112D",
"3  c #4B152D",
"4  c #541C2D",
"5  c #5C1B21",
"6  c #4B1931",
"7  c #7E153D",
"8  c #7D1938",
"9  c #76133A",
"0  c #7A213D",
"q  c #7D4D1D",
"w  c #584031",
"e  c #2D2F45",
"r  c #2F3043",
"t  c #323245",
"y  c #343548",
"u  c #663951",
"i  c #6D3A53",
"p  c #BE2C0A",
"a  c #BD3413",
"s  c #8D1637",
"d  c #811F37",
"f  c #84163C",
"g  c #821D3D",
"h  c #8B1E3E",
"j  c #901D36",
"k  c #822037",
"l  c #8F2837",
"z  c #81233F",
"x  c #89243B",
"c  c #93243D",
"v  c #912D38",
"b  c #8A343D",
"n  c #AC2C24",
"m  c #A52B24",
"M  c #B62F27",
"N  c #C41400",
"B  c #CD2500",
"V  c #CE2B05",
"C  c #CD2B08",
"Z  c #C52A0C",
"A  c #C3350E",
"S  c #CE390F",
"D  c #CB300C",
"F  c #D63303",
"G  c #D83507",
"H  c #D2340B",
"J  c #D43D0D",
"K  c #C23610",
"L  c #C43B11",
"P  c #CA3C12",
"I  c #D03F10",
"U  c #DD3C11",
"Y  c #E53E0C",
"T  c #824E1D",
"R  c #81501C",
"E  c #9B5326",
"W  c #8E473C",
"Q  c #8F493F",
"!  c #924A3E",
"~  c #B6562D",
"^  c #B9582E",
"/  c #D3400F",
"(  c #C5421E",
")  c #D44112",
"_  c #D1461E",
"`  c #E4440F",
"'  c #DA6123",
"]  c #871B41",
"[  c #881E45",
"{  c #872441",
"}  c #972243",
"|  c #964F43",
" . c #DD831E",
".. c #DF891F",
"X. c #F0870E",
"o. c #F28B0F",
"O. c #F4900F",
"+. c #E8861D",
"@. c #E08A1F",
"#. c #EB8C1E",
"$. c #F6961B",
"%. c #F69C1D",
"&. c #FA9D1D",
"*. c #FA951E",
"=. c #F9A01C",
"-. c #DA8137",
";. c #E58520",
":. c #E68B21",
">. c #E78D3B",
",. c #EB8B32",
"<. c #EE933B",
"1. c #FFA120",
"2. c #FFA920",
"3. c #E6925F",
"4. c #E5947D",
"5. c #F2D55D",
"6. c #FFE857",
"7. c #F0CF65",
"8. c #FFDF61",
"9. c #FFF769",
"0. c #FFED73",
"q. c #7F8391",
"w. c #A4A6B0",
"e. c #ADAFB8",
"r. c #AFB1BA",
"t. c #B2B4BD",
"y. c #E49681",
"u. c #E69B86",
"i. c #E69C8C",
"p. c #F3BE86",
"a. c #F6C58B",
"s. c #F7CA92",
"d. c #FFECB3",
"f. c #FFF7B8",
"g. c #F3CCC1",
"h. c #EAE9EB",
"j. c #F1E6E5",
"k. c #FCF0EE",
"l. c #FEF8E9",
"z. c #F5F3F4",
"x. c #F8F7F7",
"c. c #FFFCF7",
"v. c #FEFEFE",
"b. c #F5F8FA",
"n. c None",
/* pixels */
"n.n.n.n.n.n.n.n.n.n.n.n.n.n.n.n.n.n.n.n.n.n.n.n.n.n.n.n.n.n.n.n.n.n.n.n.n.n.n.n.",
"n.n.n.n.n.n.n.n.n.n.n.n.n.n.n.n.n.n.n.n.n.n.n.n.n.n.n.n.n.n.n.n.n.n.n.n.n.n.n.n.",
"n.n.n.n.n.n.n.n.n.n.n.n.n.n.n.n.n.n.n.n.n.n.n.n.n.n.n.n.n.n.n.n.n.n.n.n.n.n.n.n.",
"n.n.n.n.n.n.n.n.n.n.n.n.n.n.n.n.n.n.n.n.n.n.n.n.n.n.n.n.n.n.n.n.n.n.n.n.n.n.n.n.",
"n.n.n.n.n.n.n.n.n.n.n.n.n.n.n.n.n.n.n.n.n.n.n.n.n.n.n.n.n.n.n.n.n.n.n.n.n.n.n.n.",
"n.n.n.n.n.n.n.n.n.n.n.n.n.n.n.n.n.n.n.n.n.n.n.n.n.n.n.n.n.n.n.n.n.n.n.n.n.n.n.n.",
"n.n.n.n.n.n.n.n.n.n.n.n.n.n.n.n.n.n.n.n.n.n.n.n.n.n.n.n.n.n.n.n.n.n.n.n.n.n.n.n.",
"n.n.n.n.n.n.n.n.n.n.n.n.n.n.n.n.n.n.n.n.n.n.n.n.n.n.n.n.n.n.n.n.n.n.n.n.n.n.n.n.",
"n.n.n.n.n.n.n.n.n.n.n.n.n.n.n.n.n.n.n.n.n.n.n.n.n.n.n.n.n.n.n.n.n.n.n.n.n.n.n.n.",
"n.n.n.n.n.n.n.n.n.n.n.n.n.n.n.n.n.n.n.n.n.n.n.n.n.n.n.n.n.n.n.n.n.n.n.n.n.n.n.n.",
"n.n.n.n.n.n.n.n.n.n.n.n.n.n.n.n.n.y o - 0 { z z z { g n.n.n.n.n.n.n.n.n.n.n.n.n.",
"n.n.n.n.n.n.n.n.n.n.n.n.n.n.n.n.n.e   . 9 f 7 7 7 g f n.n.n.n.n.n.n.n.n.n.n.n.n.",
"n.n.n.n.n.n.n.n.n.n.w.t.w.n.n.y e w R T ~ ^ ~ ^ ^ n n b n.n.n.n.n.n.n.n.n.n.n.n.",
"n.n.n.n.n.n.n.n.n.n.v.v.e.n.n.o   q 2.1.%.=.=.=.$.J G n f g n.n.n.n.n.n.n.n.n.n.",
"n.n.n.n.n.n.n.n.n.n.z.v.e.n.n.> X T *.:.:.:.:.:.+.) J n g z n.n.n.n.n.n.n.n.n.n.",
"n.n.n.n.n.n.n.w.v.z.v.v.x.b.j.( Z S ) P l x x x v ;.$.~ 7 z n.n.n.n.n.n.n.n.n.n.",
"n.n.n.n.n.n.n.t.v.v.v.v.v.v.v.I B V C Z h g h ] x :.=.^ 7 z n.n.n.n.n.n.n.n.n.n.",
"n.n.n.n.n.n.n.q.e.r.x.v.g.4.u.u.i.3.,.-.4 2 3 2 4 :.&.^ 7 z n.n.n.n.n.n.n.n.n.n.",
"n.n.n.n.n.n.n.n.n.n.x.v.y.N H v.v.f.6.5.+   . . # ..&.^ 7 z n.n.n.n.n.n.n.n.n.n.",
"n.n.n.n.n.n.n.n.n.n.h.v.y.B _ k.v.d.6.7., - $ O % :.&.^ 7 z n.n.n.n.n.n.n.n.n.n.",
"n.n.n.n.n.n.n.n.n.n.n.n.| V _ k.v.c.c.l.7.5.-.p L #.&.^ 7 { n.n.n.n.n.n.n.n.n.n.",
"n.n.n.n.n.n.n.n.n.n.n.n.W F _ c.v.v.v.v.0.9.<.V ) :.%.^ f { n.n.n.n.n.n.n.n.n.n.",
"n.n.n.n.n.n.n.n.n.n.n.n.| F ) p.s.s.s.a.>.>.' D I #.&.E : 6 n.n.n.n.n.n.n.n.n.n.",
"n.n.n.n.n.n.n.n.n.n.n.n.! G I X.O.O.o.X.H C H J ) #.=.q . * n.n.n.n.n.n.n.n.n.n.",
"n.n.n.n.n.n.n.n.n.n.n.n.Q H P @.@.@... .L A K a P +.*.T   = n.n.n.n.n.n.n.n.n.n.",
"n.n.n.n.n.n.n.n.n.n.n.n.n.j k > $ $ $ $ @ @ @ + % L ` 1 . = n.n.n.n.n.n.n.n.n.n.",
"n.n.n.n.n.n.n.n.n.n.n.n.i s 8 O . . . . . * . . o D Y 1 . = n.n.n.n.n.n.n.n.n.n.",
"n.n.n.n.n.n.n.n.n.n.n.n.n.n.u = o ; 3 2 < < < < 1 m M 5 . = n.n.n.n.n.n.n.n.n.n.",
"n.n.n.n.n.n.n.n.n.n.n.n.n.n.n.=   3 c c U ` Y Y U h { 2   = n.n.n.n.n.n.n.n.n.n.",
"n.n.n.n.n.n.n.n.n.n.n.n.n.n.n.- o 6 h d a A A A a d g 3 * - n.n.n.n.n.n.n.n.n.n.",
"n.n.n.n.n.n.n.n.n.n.n.n.n.n.n.n.n.t O @ & @ @ @ @ @ O t n.n.n.n.n.n.n.n.n.n.n.n.",
"n.n.n.n.n.n.n.n.n.n.n.n.n.n.n.n.n.t       . X   .     r n.n.n.n.n.n.n.n.n.n.n.n.",
"n.n.n.n.n.n.n.n.n.n.n.n.n.n.n.n.n.n.e t t t t t t t r n.n.n.n.n.n.n.n.n.n.n.n.n.",
"n.n.n.n.n.n.n.n.n.n.n.n.n.n.n.n.n.n.n.n.n.n.n.n.n.n.n.n.n.n.n.n.n.n.n.n.n.n.n.n.",
"n.n.n.n.n.n.n.n.n.n.n.n.n.n.n.n.n.n.n.n.n.n.n.n.n.n.n.n.n.n.n.n.n.n.n.n.n.n.n.n.",
"n.n.n.n.n.n.n.n.n.n.n.n.n.n.n.n.n.n.n.n.n.n.n.n.n.n.n.n.n.n.n.n.n.n.n.n.n.n.n.n.",
"n.n.n.n.n.n.n.n.n.n.n.n.n.n.n.n.n.n.n.n.n.n.n.n.n.n.n.n.n.n.n.n.n.n.n.n.n.n.n.n.",
"n.n.n.n.n.n.n.n.n.n.n.n.n.n.n.n.n.n.n.n.n.n.n.n.n.n.n.n.n.n.n.n.n.n.n.n.n.n.n.n.",
"n.n.n.n.n.n.n.n.n.n.n.n.n.n.n.n.n.n.n.n.n.n.n.n.n.n.n.n.n.n.n.n.n.n.n.n.n.n.n.n.",
"n.n.n.n.n.n.n.n.n.n.n.n.n.n.n.n.n.n.n.n.n.n.n.n.n.n.n.n.n.n.n.n.n.n.n.n.n.n.n.n."
};
