/* XPM */
static char *result[] = {
/* columns rows colors chars-per-pixel */
"40 40 176 2 ",
"   c #00000C",
".  c #030015",
"X  c #040219",
"o  c #0C0519",
"O  c #180816",
"+  c #1C0D1C",
"@  c #110A1D",
"#  c #1D121D",
"$  c #230F1E",
"%  c #25141F",
"&  c #060A21",
"*  c #120E21",
"=  c #0F1321",
"-  c #191326",
";  c #261823",
":  c #600C03",
">  c #6B1D13",
",  c #701E14",
"<  c #6B2319",
"1  c #78331B",
"2  c #400E2D",
"3  c #48162E",
"4  c #6D0829",
"5  c #760A2C",
"6  c #77062A",
"7  c #72073C",
"8  c #6C103A",
"9  c #7D153C",
"0  c #731F38",
"q  c #781439",
"w  c #7B213C",
"e  c #7E501E",
"r  c #2F2F42",
"t  c #302F42",
"y  c #2E3043",
"u  c #323245",
"i  c #7B1A41",
"p  c #771A43",
"a  c #7C2846",
"s  c #7B2143",
"d  c #673A57",
"f  c #6C3A54",
"g  c #B63311",
"h  c #810F39",
"j  c #83133A",
"k  c #831D3C",
"l  c #891736",
"z  c #943D22",
"x  c #83243C",
"c  c #89253A",
"v  c #8E2C3F",
"b  c #8B2739",
"n  c #922338",
"m  c #A32D2B",
"M  c #A72A25",
"N  c #AC3025",
"B  c #D82A00",
"V  c #D72200",
"C  c #C4340F",
"Z  c #CD340D",
"A  c #CE380E",
"S  c #DB3504",
"D  c #D2340B",
"F  c #D33B0D",
"G  c #DA340A",
"H  c #C62E11",
"J  c #C23610",
"K  c #C53B13",
"L  c #C93C15",
"P  c #D13A12",
"I  c #E0350D",
"U  c #824E1F",
"Y  c #BB561E",
"T  c #8E463D",
"R  c #92493D",
"E  c #B64F29",
"W  c #B5542C",
"Q  c #BB592E",
"!  c #BB582A",
"~  c #B95B33",
"^  c #B45630",
"/  c #AC532B",
"(  c #BB683A",
")  c #DD410C",
"_  c #CC4117",
"`  c #C7431F",
"'  c #D34313",
"]  c #D54C14",
"[  c #D05F17",
"{  c #DD6517",
"}  c #DF6A1D",
"|  c #DA6118",
" . c #E46915",
".. c #EC6913",
"X. c #D74E25",
"o. c #DA512C",
"O. c #D95839",
"+. c #D46720",
"@. c #861543",
"#. c #842340",
"$. c #93384A",
"%. c #8D4B41",
"&. c #924A41",
"*. c #AE514F",
"=. c #BD7A51",
"-. c #D56442",
";. c #C1794B",
":. c #DF881F",
">. c #DB831B",
",. c #F18A0F",
"<. c #F4900F",
"1. c #E08B1F",
"2. c #EC8D1C",
"3. c #E48919",
"4. c #EE931E",
"5. c #F49616",
"6. c #F69916",
"7. c #FA9B14",
"8. c #F2941D",
"9. c #F99B1A",
"0. c #DA8A32",
"q. c #E48B21",
"w. c #E38925",
"e. c #EE9523",
"r. c #EE982D",
"t. c #E89529",
"y. c #F39B20",
"u. c #F29E2D",
"i. c #EF9B30",
"p. c #F3A122",
"a. c #F2AF3E",
"s. c #F5B53F",
"d. c #FABA3F",
"f. c #DB9847",
"g. c #E28340",
"h. c #EC9142",
"j. c #E79555",
"k. c #F7B840",
"l. c #EAA25C",
"z. c #C38061",
"x. c #EBC95D",
"c. c #F5CD5D",
"v. c #FBCD5A",
"b. c #F9C857",
"n. c #FCD25D",
"m. c #E9CB4A",
"M. c #FFDF62",
"N. c #F4D762",
"B. c #FFE465",
"V. c #FFE669",
"C. c #FFEC67",
"Z. c #FFF268",
"A. c #FDE47F",
"S. c #7F818D",
"D. c #8B848E",
"F. c #B78F89",
"G. c #BF8C9A",
"H. c #BF8A95",
"J. c #B68BA0",
"K. c #C28E9D",
"L. c #ED9A84",
"P. c #E8A089",
"I. c #C595A3",
"U. c #F5C389",
"Y. c #F7CA92",
"T. c #FFEA85",
"R. c #FFF887",
"E. c #F6EDB0",
"W. c #FBE4AB",
"Q. c #F3EADD",
"!. c #F9EAE2",
"~. c #FEF6EF",
"^. c #FCF6F4",
"/. c #FFFFFF",
"(. c #FAF3FA",
"). c None",
/* pixels */
").).).).).).).).).).).).).).).).).).).).).).).).).).).).).).).).).).).).).).).).",
").).).).).).).).).).).).).).).).).).).).).).).).).).).).).).).).).).).).).).).).",
").).).).).).).).).).).).).).).).).).).).).).).).).).).).).).).).).).).).).).).).",
").).).).).).).).).).).).).).).).).).).).).).).).).).).).).).).).).).).).).).).).",
").).).).).).).).).).).).).).).).).).).).).).).).).).).).).).).).).).).).).).).).",
").).).).).).).).).).).).).).).).).).).).).).).).).).).).).).).).).).).).).).).).",
").).).).).).).).).).).).).).).).).).).).).).).).).).).).).).).).).).).).).).).).",
").).).).).).).).).).).).).).).).).).).).).).).).).).).).).).).).).).).).).).).).",
").).).).).).).).).).).).).).).).).).).).).).).).).).).).).).).).).).).).).).).).",
").).).).).).).).).).).).).).).).).).).).).).).).).).).).).).).).).).).).).).).).",
").).).).).).).).).).).).).).).).).).).).).).).).k w 0 a *.-.` K A %.).).).).).).",
").).).).).).).).).).).).).).).).).).).).).).).d j 9 5 4 M X.O.P B T ).).).).).).",
").).).).).).).).).).).%.R R R T ).f ).).).).d &.! ~ H.G.=.0.l.j.h.( v T ).).).).",
").).).).).).).).).).).P S S S D l l ).).).k h ! 7.u././.E.x.N.T.R.h.B _ ).).).).",
").).).).).).).).).).).K Z L ' _ b l ).).).x 9 Q 9.r.Q./.W.x.x.x.T.j.P L ).).).).",
").).).).).).).).).).).x j ;.M.b._ D m s x c q =.B.v.X.Z P./.!.0.t.g.O.` ).).).).",
").).).).).).).).).).).p 7 =.Z.n.' S M 9 k 9 7 =.C.n.G V L./.^.w.>.{ o.-.).).).).",
").).).).).).).).).f ).^ E f.C.v.' F M s x W W f.C.c.1 : F./.~.r.>.Y z *.).).).).",
").).).).).).).).).l n 2.6.k.V.v.' D M i b 4.7.d.B.c.=   S./.~.r.5./ 8 a ).).).).",
").).).).).).).).).9 c q.8.s.M.v.] F N k b 2.2.s.B.x.;   D./.~.r.5.^ q w ).).).).",
").).).).).).).).u o % 1.y.e.e.e.2.e.[ H P 2.2.s.V.v.c 4 G./.~.r.5.Q 9 w ).).).).",
").).).).).).).).u . # q.y.e.8.e.y.y. .Z P 2.2.s.B.N.#.5 K./.~.r.5.W 9 w ).).).).",
").).).).).).).).u . + [  .{ {  .| } ] Z L 2.2.s.V.c.b 5 K./.~.r.5.Q 9 x ).).).).",
").).).).).).).).u . + C G D D D Z D F F ) 4.4.s.V.c.c 6 G./.~.r.5.Q @.#.).).).).",
").).).).).).).).u . + g A C C g J J J J J w.3.a.M.c.$.9 I./.~.r.5.Q q s ).).).).",
").).).).).).).).u o @ + + + + # + + + + $ c k ~ 9.i.!.(.^./.~.r.9.U X - ).).).).",
").).).).).).).).t . o X X X X X X X X . o k @.O.5.i./././././.r.9.e X * ).).).).",
").).).).).).).).).t u u u u u u u u u u t 3 ; z  . .U.Y.U.Y.U.} ..1 X * ).).).).",
").).).).).).).).).).).).).).).).).).).).).@ . > I F ,.<.5.<.,.F I , X @ ).).).).",
").).).).).).).).).).).).).).).).).).).).).- & < Z K >.1.:.:.:.J Z < & - ).).).).",
").).).).).).).).).).).).).).).).).).).).).).).u O + # # # $ # + O u ).).).).).).",
").).).).).).).).).).).).).).).).).).).).).).).y . X X . X . . . . y ).).).).).).",
").).).).).).).).).).).).).).).).).).).).).).).).r u u u u u u u r ).).).).).).).",
").).).).).).).).).).).).).).).).).).).).).).).).).).).).).).).).).).).).).).).).",
").).).).).).).).).).).).).).).).).).).).).).).).).).).).).).).).).).).).).).).).",
").).).).).).).).).).).).).).).).).).).).).).).).).).).).).).).).).).).).).).).).",
").).).).).).).).).).).).).).).).).).).).).).).).).).).).).).).).).).).).).).).).",
").).).).).).).).).).).).).).).).).).).).).).).).).).).).).).).).).).).).).).).).",
").).).).).).).).).).).).).).).).).).).).).).).).).).).).).).).).).).).).).).).).",
").).).).).).).).).).).).).).).).).).).).).).).).).).).).).).).).).).).).).).).)."
};
