/* XPM */
static char *result[] = {
/* columns rows colors chars-per-pixel */
"40 40 187 2 ",
"   c #030215",
".  c #030319",
"X  c #0B0B1E",
"o  c #1B0D1C",
"O  c #14091A",
"+  c #130E21",
"@  c #0E1220",
"#  c #181427",
"$  c #2F0E24",
"%  c #5B0D0D",
"&  c #75001C",
"*  c #6B2718",
"=  c #460E2B",
"-  c #49152D",
";  c #44142C",
":  c #53192B",
">  c #7C0F36",
",  c #770938",
"<  c #7E153B",
"1  c #781135",
"2  c #770A30",
"3  c #7F243E",
"4  c #643125",
"5  c #7F5020",
"6  c #7F443C",
"7  c #7E703F",
"8  c #2F2F42",
"9  c #302F42",
"0  c #2F3043",
"q  c #323245",
"w  c #751142",
"e  c #4F374D",
"r  c #7C2343",
"t  c #663956",
"y  c #65324B",
"u  c #75495F",
"i  c #405E75",
"p  c #49536C",
"a  c #5A6B7B",
"s  c #626072",
"d  c #BE320F",
"f  c #B82D10",
"g  c #BD3413",
"h  c #AB241B",
"j  c #800C2B",
"k  c #811F37",
"l  c #831539",
"z  c #841D3C",
"x  c #8C1C3D",
"c  c #851836",
"v  c #82233E",
"b  c #8A253B",
"n  c #8E2A3C",
"m  c #852A3C",
"M  c #8F2E3D",
"N  c #A72B27",
"B  c #AE3933",
"V  c #CD2B03",
"C  c #CB2A0A",
"Z  c #C72706",
"A  c #D12C01",
"S  c #D02F08",
"D  c #C4370F",
"F  c #CE3108",
"G  c #D33303",
"H  c #D43409",
"J  c #C23610",
"K  c #CB3310",
"L  c #CC3C12",
"P  c #D03E11",
"I  c #82501C",
"U  c #89453E",
"Y  c #924B3E",
"T  c #BB5A2C",
"R  c #B7562A",
"E  c #B1562E",
"W  c #866F3C",
"Q  c #87723F",
"!  c #B67D3B",
"~  c #C8451B",
"^  c #D2461D",
"/  c #D94918",
"(  c #CA5D16",
")  c #E05E0B",
"_  c #DA6219",
"`  c #DB6617",
"'  c #E26614",
"]  c #C84625",
"[  c #C35C2E",
"{  c #D2572A",
"}  c #E27727",
"|  c #871A42",
" . c #8B2441",
".. c #872947",
"X. c #933745",
"o. c #8E2F51",
"O. c #8D3754",
"+. c #943B58",
"@. c #89354E",
"#. c #924A41",
"$. c #935046",
"%. c #BE6C44",
"&. c #B8774B",
"*. c #A47746",
"=. c #994C69",
"-. c #A15769",
";. c #BD7365",
":. c #C17B4E",
">. c #DB8619",
",. c #EF8D0E",
"<. c #F4950C",
"1. c #EC921F",
"2. c #F2951B",
"3. c #FB9E19",
"4. c #E08616",
"5. c #D68334",
"6. c #E68A21",
"7. c #E88E23",
"8. c #E5842F",
"9. c #EA9222",
"0. c #EF9927",
"q. c #F39C22",
"w. c #FE9E22",
"e. c #E58634",
"r. c #E78C3B",
"t. c #E9A33B",
"y. c #C4804D",
"u. c #C7835F",
"i. c #E6925F",
"p. c #D7B852",
"a. c #F2B140",
"s. c #E1BD55",
"d. c #C68C65",
"f. c #C38564",
"g. c #CB936E",
"h. c #EEA863",
"j. c #FAC043",
"k. c #F6CC5D",
"l. c #FBCF5B",
"z. c #F8C853",
"x. c #FCD35C",
"c. c #FCD957",
"v. c #F5D052",
"b. c #FFE458",
"n. c #F6CF60",
"m. c #FDDA60",
"M. c #F6D26D",
"N. c #FBD767",
"B. c #F9D47C",
"V. c #FFE662",
"C. c #FFEB64",
"Z. c #FFEB68",
"A. c #FFF26C",
"S. c #FFE972",
"D. c #8B7485",
"F. c #7F8391",
"G. c #BC8998",
"H. c #A4A6B0",
"J. c #A7A9B3",
"K. c #AAACB5",
"L. c #AAAFB9",
"P. c #AEB1BA",
"I. c #B1B3BC",
"U. c #A8A5AD",
"Y. c #C88E9D",
"T. c #E69B85",
"R. c #E69C8A",
"E. c #C595A5",
"W. c #F6C78E",
"Q. c #FED394",
"!. c #F7CB94",
"~. c #FFF789",
"^. c #F9DFA6",
"/. c #FEEBAC",
"(. c #FFF0AC",
"). c #FFFABD",
"_. c #D4D4D9",
"`. c #FFF4D6",
"'. c #EAE9EB",
"]. c #F5EBE9",
"[. c #FBF0EE",
"{. c #F7EFF3",
"}. c #F4F3F4",
"|. c #F8F3F4",
" X c #FFFEFE",
".X c #F8F5FA",
"XX c None",
/* pixels */
"XXXXXXXXXXXXXXXXXXXXXXXXXXXXXXXXXXXXXXXXXXXXXXXXXXXXXXXXXXXXXXXXXXXXXXXXXXXXXXXX",
"XXXXXXXXXXXXXXXXXXXXXXXXXXXXXXXXXXXXXXXXXXXXXXXXXXXXXXXXXXXXXXXXXXXXXXXXXXXXXXXX",
"XXXXXXXXXXXXXXXXXXXXXXXXXXXXXXXXXXXXXXXXXXXXXXXXXXXXXXXXXXXXXXXXXXXXXXXXXXXXXXXX",
"XXXXXXXXXXXXXXXXXXXXXXXXXXXXXXXXXXXXXXXXXXXXXXXXXXXXXXXXXXXXXXXXXXXXXXXXXXXXXXXX",
"XXXXXXXXXXXXXXXXXXXXXXXXXXXXXXXXXXXXXXXXXXXXXXXXXXXXXXXXXXXXXXXXXXXXXXXXXXXXXXXX",
"XXXXXXXXXXXXXXXXXXXXXXXXXXXXXXXXXXXXXXXXXXXXXXXXXXXXXXH. X'.XXXXXXXXXXXXXXXXXXXX",
"XXXXXXXXXXXXXXXXXXXXXXXXXXXXXXXXXXXXXXXXXXXXXXXXXXXXXXL. X.XXXXXXXXXXXXXXXXXXXXX",
"XXXXXXXXXXXXXXXXXXXXXXXXXXXXXXXXXXXXXXXXXXXXXXXXXXXXXXK. X}.XXXXXXXXXXXXXXXXXXXX",
"XXXXXXXXXXXXXXXXXXXXXXXXXXXXXXXXXXXXXXXXXXXXXXXXXXXXXXJ. X}.XXXXXXXXXXXXXXXXXXXX",
"XXXXXXXXXXXXXXXXXXXXXXXXXXXXXXXXXXXXXXXXXXXXXXXXXXXXXXI. X}.XXXXXXXXXXXXXXXXXXXX",
"XXXXXXXXXXXXXXXXz v v v v O.-.R g U XXXXXXXXXXXXXX'..X.X X X}. XH.XXXXXXXXXXXXXX",
"XXXXXXXXXXXXXXt l < > < o.=...f V U XXXXXXXXXXXXXX.X X X X X X XJ.XXXXXXXXXXXXXX",
"XXXXXXXXXXXXt #.T T :.f.f.:.E ( ` R U $.U.K.K.J.P.|. X X X X X X_.H.K.K.H.H.XXXX",
"XXXXXXXXXXz l T 3.q.S.~.z.' >.1.2.' A /  X X X X X X X X X X X X X X X X}.I.XXXX",
"XXXXXXXXXX..< T q.t.B.M.t.>.9.1.q.` C ~ ]..X}.[.[. X X X X X X X.X}.}.}..XH.XXXX",
"XXXXXXXXXXv > &.S.B.{ J 5.c.k.0.2.T l m s a u b O.{. X X.X X X XP.XXXXXXXXXXXXXX",
"XXXXXXXXXX..< f.~.n.~ Z e.Z.m.0.3.E w r p i t 2  ..X X X X X X XP.XXXXXXXXXXXXXX",
"XXXXXXXXXXr o.g.S.s.* % &.Z.x.' ' ] N N Y #.M c m /.(.`. X[.E.Y.D.XXXXXXXXXXXXXX",
"XXXXXXXXXXO.+.d.c.p.@   7 A.k.L Z F G G G G h , b z.c./. X[.c & y XXXXXXXXXXXXXX",
"XXXXXXXXXX-...&.n.k.$   Q C.x./ ^ ^ ^ ] ^ ^ B ..X.k.c./. X|.O.b XXXXXXXXXXXXXXXX",
"XXXXXXXXXX@.1 &.b.n.3 2 &.C.c.x.z.Q..X[.[.[.[.}.].m.v./. X X}. XG.1 m XXXXXXXXXX",
"XXXXXXXXXX3 > &.C.n...1 :.V.m.Z.b.). X X X X X X XS.b.). X X X XY.2 v XXXXXXXXXX",
"XXXXXXXXXX; $ *.Z.k.n 1 :.C.x.r.e.i.R.T.T.T.T.R.T.r.8.h.!.W.W.Q.;.> ..XXXXXXXXXX",
"XXXXXXXXXXX   Q A.n.v , &.A.x.H F V G V A A A V A S C ) <.,.,.<.R < 3 XXXXXXXXXX",
"XXXXXXXXXX+ . W C.k.X.z :.V.z.^ K D g J J D J D D D d _ 7.6.6.1.R < 3 XXXXXXXXXX",
"XXXXXXXXXX+ . 5 w.0.z.n.a.9.7.b x : O o o o o o o o O : n b b b b z v XXXXXXXXXX",
"XXXXXXXXXX+ . 5 3.q.V.A.j.2.7.b | ; . X .   . . . .   = x l c c l x z XXXXXXXXXX",
"XXXXXXXXXX+ . 4 [ T e.r.} ' _ b b - X O q q q q q q 8 e XXXXXXXXXXXXXXXXXXXXXXXX",
"XXXXXXXXXX+   = | l C H H K K b  .- . + XXXXXXXXXXXXXXXXXXXXXXXXXXXXXXXXXXXXXXXX",
"XXXXXXXXXX# X - z k g D D K J k z - X # XXXXXXXXXXXXXXXXXXXXXXXXXXXXXXXXXXXXXXXX",
"XXXXXXXXXXXXXXq O O o o o o o o O 9 XXXXXXXXXXXXXXXXXXXXXXXXXXXXXXXXXXXXXXXXXXXX",
"XXXXXXXXXXXXXX0   O   .   .       q XXXXXXXXXXXXXXXXXXXXXXXXXXXXXXXXXXXXXXXXXXXX",
"XXXXXXXXXXXXXXXXq q q q q q q q 0 XXXXXXXXXXXXXXXXXXXXXXXXXXXXXXXXXXXXXXXXXXXXXX",
"XXXXXXXXXXXXXXXXXXXXXXXXXXXXXXXXXXXXXXXXXXXXXXXXXXXXXXXXXXXXXXXXXXXXXXXXXXXXXXXX",
"XXXXXXXXXXXXXXXXXXXXXXXXXXXXXXXXXXXXXXXXXXXXXXXXXXXXXXXXXXXXXXXXXXXXXXXXXXXXXXXX",
"XXXXXXXXXXXXXXXXXXXXXXXXXXXXXXXXXXXXXXXXXXXXXXXXXXXXXXXXXXXXXXXXXXXXXXXXXXXXXXXX",
"XXXXXXXXXXXXXXXXXXXXXXXXXXXXXXXXXXXXXXXXXXXXXXXXXXXXXXXXXXXXXXXXXXXXXXXXXXXXXXXX",
"XXXXXXXXXXXXXXXXXXXXXXXXXXXXXXXXXXXXXXXXXXXXXXXXXXXXXXXXXXXXXXXXXXXXXXXXXXXXXXXX",
"XXXXXXXXXXXXXXXXXXXXXXXXXXXXXXXXXXXXXXXXXXXXXXXXXXXXXXXXXXXXXXXXXXXXXXXXXXXXXXXX",
"XXXXXXXXXXXXXXXXXXXXXXXXXXXXXXXXXXXXXXXXXXXXXXXXXXXXXXXXXXXXXXXXXXXXXXXXXXXXXXXX"
};
