/* XPM */
static char *result[] = {
/* columns rows colors chars-per-pixel */
"40 40 132 2 ",
"   c #1D1D1D",
".  c #261A0C",
"X  c #2A1D0E",
"o  c #2E2214",
"O  c #21201F",
"+  c #2F261A",
"@  c #322313",
"#  c #382717",
"$  c #382817",
"%  c #342619",
"&  c #372B1D",
"*  c #3B2B1B",
"=  c #252424",
"-  c #292625",
";  c #2F2B27",
":  c #2C2C2C",
">  c #312E2E",
",  c #3F3021",
"<  c #36322E",
"1  c #3E362D",
"2  c #333232",
"3  c #393632",
"4  c #3E3934",
"5  c #3D3B38",
"6  c #40321F",
"7  c #433323",
"8  c #483523",
"9  c #473825",
"0  c #493A26",
"q  c #473728",
"w  c #44392C",
"e  c #4C3C29",
"r  c #523F2C",
"t  c #423B36",
"y  c #4B3E34",
"u  c #423E3B",
"i  c #54412E",
"p  c #58432F",
"a  c #454037",
"s  c #4D4133",
"d  c #474039",
"f  c #4C443C",
"g  c #574230",
"h  c #5A4531",
"j  c #574937",
"k  c #5C4934",
"l  c #504238",
"z  c #594B3C",
"x  c #614C36",
"c  c #634E39",
"v  c #66503A",
"b  c #69533C",
"n  c #454343",
"m  c #4C4642",
"M  c #4E4940",
"N  c #4D4C4C",
"B  c #554D42",
"V  c #504E4B",
"C  c #5B5043",
"Z  c #58534E",
"A  c #545454",
"S  c #5B5753",
"D  c #595858",
"F  c #665642",
"G  c #6C5741",
"H  c #6D5945",
"J  c #66594B",
"K  c #6A5D4C",
"L  c #735C45",
"P  c #735E48",
"I  c #685F58",
"U  c #76614B",
"Y  c #7B634B",
"T  c #6C645F",
"R  c #7C6750",
"E  c #7E6A56",
"W  c #756659",
"Q  c #656464",
"!  c #696868",
"~  c #75706D",
"^  c #757474",
"/  c #787676",
"(  c #7B7979",
")  c #81674F",
"_  c #836C54",
"`  c #886E56",
"'  c #8B7454",
"]  c #85705B",
"[  c #8D755C",
"{  c #927A57",
"}  c #937A5E",
"|  c #807163",
" . c #917760",
".. c #937A62",
"X. c #9C835C",
"o. c #9B8362",
"O. c #998A7C",
"+. c #A58B67",
"@. c #A0866E",
"#. c #B1956C",
"$. c #B7986F",
"%. c #A58B72",
"&. c #AB927A",
"*. c #B1977E",
"=. c #828181",
"-. c #898787",
";. c #8C8A8A",
":. c #928983",
">. c #918E8E",
",. c #988F88",
"<. c #989595",
"1. c #9F9B9B",
"2. c #A2968C",
"3. c #A09996",
"4. c #A69F9C",
"5. c #ADA195",
"6. c #A7A3A3",
"7. c #AAA6A6",
"8. c #ADA9A9",
"9. c #C4A991",
"0. c #C9AE96",
"q. c #CDB39B",
"w. c #C3C2C2",
"e. c #C9C6C6",
"r. c #D7D2CD",
"t. c #D7D6D6",
"y. c #E1DCD8",
"u. c gray92",
"i. c #F3F1EF",
"p. c #F4F3F3",
"a. c #F9F8F7",
"s. c #FEFEFE",
/* pixels */
"..} s l l l l l y l l l l l s l l s l l y l l l l l l l l l l l y y l y y l y l ",
"5 5 @ @ * $ @ 9 7 q r 5 r 0 0 r r 0 7 7 9 P 0 9 0 0 9 9 0 8 7 w e 8 r e # # 8 @ ",
"5 5 @ @ L b @ h c ` ..6 ..[ [ ....P Y k g 7 ..) Y ) ) } Y g g k  .) ) ) r @ [ 7 ",
"5 z @ @ c 7 @ k h r x 6 .._ b G L b L b c 9 *.Y b b v b b c x c } b v b 8 @ [ 7 ",
"5 B @ # U 7 @ e r r r 7 8.:.P Y Y v v h h e *.Y Y Y G P 4.s.p.2...b ) P 8 @  .7 ",
"5 B @ # U 7 @ e e r h 7 6.:.Y ] P v b h h 0 *.Y Y Y L R 3.i.u.2. .H P L 8 o  .7 ",
"5 B @ @ R b @ D D J W A ^ -.w.w.| O.] h p 6 ..G Y Y t.>.u N N n A ;.G b 7 @ ` h ",
"t B @ @ L c % 5 5 >.8.A 8.w.=.A 8.s.5.h h 9 ..L R Y 1.A 5 5 4 n A A ) P 7 @ P 7 ",
"5 B @ $ E F % - - n D A u u N A D D =.F p 9 ..L i.p.V 6 6 6 7 6 6 A a.r.8 @ b 7 ",
"5 u @ $ P 7 @ = = > 5 A A A A A 5 5 y x b e *.Y 7.8.Z v v v x r v A 8.,.8 @ P 7 ",
"a 5 @ @ Y 7 @ : - 3 t N N V A V t 5 g v b 9 &.U 7.8.S b v x x r P A <.:.8 @ P 7 ",
"f 5 @ @ Y 6 @ y y r g 1 5 t y r b x x v v 6 %.L ( ( S P b h r c @.A n m 8 @ ) h ",
"5 5 @ @ U 6 @ g r r g 6 5 t r h Y v v v v 9 *.Y A A S Y v p r c ..A 5 u 8 @ L b ",
"5 5 @ $ v 7 @ 0 e h c 6 .._ L P v v v p p e *.Y 6 6 ! 8.8.8.8.-.A A 6 q 8 @ L 7 ",
"#.#.@ $ v 7 @ e e g b 6 .._ L ) v v v v c 0 *.Y Y Y u A A A A N 5 3 v b 8 @ b 7 ",
"+.+.@ @ b i o e e g x 6 ..` P ) v v v v b 6 *.U Y Y t m m f m y w w G b 6 @ b 7 ",
"} } @ @ k q @ e e r h 6 } ` b b v v v p k 9 0.) G G x x G x p 0 x p ) Y 6 @ ` x ",
"} ..@ @ k 7 @ e e r p 6 } ) v v v v v x g r q._ v c v b P v x r v v Y L 8 @ [ b ",
"E E @ @ P v # h k h v 6 *...v v ) v v p r r q._ b b b Y b x x x } b b x 8 @ P 7 ",
"E E @ # _ b @ j k r h 6 *.@.) ) } v L v b 9 q.) P ) b Y b b x G *.x ) ) 6 @ b 8 ",
"E K @ @ _ b @ i r r p 6 2...b b ..v L x x 7 q.) b L b G b h h P 9.v ) L 8 @ G 7 ",
"a 5 @ % _ b @ k p r p 6 0.&.b b ) v b x r e q._ Y P b Y b p i Y q.b v v 8 @ L v ",
"5 5 @ $ ) v # h p r p 6 q.&.v v L v L x r r q.` ) P b Y b g i R q.b v v 6 @ L b ",
"5 B @ % _ v # r r r p 6 q.&.L P b v v r h 0 *.P e r v k c h g U 0.v v v 8 @ P b ",
"5 C @ o _ b @ k k r r 7 8.,.v v ) v v h p 6 *.x k k G ..b x r G *.e c b 7 @ [ b ",
"5 E @ $ _ b o T I r k V Q / t.y.P v v h p 8 *.) k k b v v r r H *.e k x 7 @ Y b ",
"C ] @ @ H b $ 4 n ;.8.A 7.e.;.A 8.s.5.h p e *.) } } b P b h h c ..b b b 8 @ L v ",
"C [ @ $ H b % 2 u ;.7.A 6.e.-.A 6.s.5.h p 0 2.P [ } b ) b h r c  .b c c 8 @ P b ",
"5 o.@ @ H k @ O - u N A n n N A N N ~ c h % ..L b F b G g h r r H v c x * @ [ b ",
"5 ' @ o x s . - - ; t A A A A A 5 5 y c c o ..H k k b Y b h h r H v j g * + [ b ",
"5 a @ $ U 0 X - - 7 y 5 5 5 t t c e c r e , ..) k k c h r h p r H e e h 6 . [ v ",
"5 B @ + i i . & ; 7 q o 5 y L P e e h r e % H c k h e e x r r e H e e 0 # . U v ",
"M K o @ s q X & & , 0 o u l L L i 9 i e e @ H z k j e e k i r e H e e e % . b k ",
"$.$.@ @ 7 % . q q 7 7 o H c e e k 9 i 9 q & H v b v h e i 7 , 7 H e g g @ . i , ",
"} } @ @ 9 @ . s s 7 7 o H c e q k i i 9 7 7 H k H H h e j 6 , w H i q e # . h e ",
"} } @ @ o + @ @ o X @ ; @ @ X . @ @ X o @ c o @ @ @ @ @ @ @ @ o @ . @ o @ + e o ",
"E E @ o . . + F H ' X.: 3 d z z z z C z z F F F F F H ; ; z z z j z z z 1 @ @ + ",
"E E + + + * 7 F F ' { : z j z z z z C z B c F F F F R ; : z z z z z z z q , , , ",
"[ [ = O - a a 5 4 5 5 : a 5 3 3 5 2 3 3 4 3 3 3 5 4 a : > < < > 2 3 3 3 4 4 5 : ",
"..}     - 2 2 > : : > : 2 > > > : > > > : : : : : : : : : : : - : - : > : > 2 O "
};
