/* XPM */
static char *result[] = {
/* columns rows colors chars-per-pixel */
"40 40 98 2 ",
"   c #32163E",
".  c #7C1004",
"X  c #6C2D31",
"o  c #381D44",
"O  c #3F264B",
"+  c #42294E",
"@  c #4C3D4C",
"#  c #442C51",
"$  c #473154",
"%  c #483356",
"&  c #4B3759",
"*  c #4D3B5C",
"=  c #513D5E",
"-  c #733F46",
";  c #513F60",
":  c #3D4D67",
">  c #51405F",
",  c #4A4362",
"<  c #534363",
"1  c #5B4C6B",
"2  c #43546D",
"3  c #5E5260",
"4  c #5E526E",
"5  c #4D5D74",
"6  c #5F5370",
"7  c #61516E",
"8  c #625571",
"9  c #645A75",
"0  c #675D78",
"q  c #536277",
"w  c #6A637C",
"e  c #70647F",
"r  c #8B0500",
"t  c #5C6C80",
"y  c #6E6781",
"u  c #6D6C84",
"i  c #667186",
"p  c #667288",
"a  c #77758B",
"s  c #7E778D",
"d  c #7A788D",
"f  c #697F96",
"g  c #847D93",
"h  c #758092",
"j  c #7A8194",
"k  c #7C8799",
"l  c #7E8B9B",
"z  c #808396",
"x  c #8B859A",
"c  c #858D9E",
"v  c #8B899C",
"b  c #918C9F",
"n  c #8692A2",
"m  c #8D95A5",
"M  c #9495A6",
"N  c #9098A7",
"B  c #9797A8",
"V  c #949CAB",
"C  c #9D9CAC",
"Z  c #97A1AE",
"A  c #9DA6B2",
"S  c #9FA9B6",
"D  c #A0A7B4",
"F  c #A5AAB7",
"G  c #A5ABB8",
"H  c #AAAEBB",
"J  c #A4B4BE",
"K  c #ABB3BE",
"L  c #AEB5C1",
"P  c #B2B7C2",
"I  c #B3BBC5",
"U  c #B5BEC8",
"Y  c #B9BEC8",
"T  c #B4C0CB",
"R  c #BDC3CC",
"E  c #C0C5CE",
"W  c #C1C6D0",
"Q  c #C5CAD3",
"!  c #C9CDD5",
"~  c #CAD0D7",
"^  c #C5D0D8",
"/  c #CDD2D9",
"(  c #D1D5DC",
")  c #D4D9DE",
"_  c #D8DBDF",
"`  c #D4DCE1",
"'  c #DADEE2",
"]  c #DEE2E5",
"[  c #E0E4E6",
"{  c #E3E6E8",
"}  c #E5E8EB",
"|  c #EBECEE",
" . c #EDEFF0",
".. c #EFF0F2",
"X. c #F1F2F3",
"o. c #F7F8F8",
"O. c #FAFBFA",
"+. c None",
/* pixels */
"+.+.+.+.+.+.+.+.+.+.+.+.+.+.+.+.+.+.+.+.+.+.+.+.+.+.+.+.+.+.+.+.+.+.+.+.+.+.+.+.",
"+.+.+.+.+.+.+.+.+.+.+.+.+.+.+.+.+.+.+.+.+.+.+.+.+.+.+.+.+.+.+.+.+.+.+.+.+.+.+.+.",
"+.+.+.+.+.+.+.+.+.+.+.+.+.+.K P ( ' ' ' ( P K +.+.+.+.+.+.+.+.+.+.+.+.+.+.+.+.+.",
"+.+.+.+.+.+.+.+.+.+.+.+.+.K ) { ..X.......{ ) K +.+.+.+.+.+.+.+.+.+.+.+.+.+.+.+.",
"+.+.+.+.+.+.+.+.+.+.+.+.L '  .X..............._ L +.+.+.+.+.+.+.+.+.+.+.+.+.+.+.",
"+.+.+.+.+.+.+.+.+.+.+.+.L  .................X.| L +.+.+.+.+.+.+.+.+.+.+.+.+.+.+.",
"+.+.+.+.+.+.+.+.+.+.+.L '  .....................] K +.+.+.+.+.+.+.+.+.+.+.+.+.+.",
"+.+.+.+.+.+.+.+.+.+.+.L  . ...............X.X...| K +.+.+.+.+.+.+.+.+.+.+.+.+.+.",
"+.+.+.+.+.+.+.+.+.+.+.R  . .` ' X.X...X...' `  .| R +.+.+.+.+.+.+.+.+.+.+.+.+.+.",
"+.+.+.+.+.+.+.+.+.+.+.E  .U @ 3 / X...X./ 3 @ U  .E +.+.+.+.+.+.+.+.+.+.+.+.+.+.",
"+.+.+.+.+.+.+.+.+.+.p ! o.2 r . f O. .O.f . r 2 o.! p +.+.+.+.+.+.+.+.+.+.+.+.+.",
"+.+.+.+.+.+.+.+.+.+.j ( X.A X - U O.o.O.U - X A X.) j +.+.+.+.+.+.+.+.+.+.+.+.+.",
"+.+.+.+.+.+.+.+.+.+.c ]  .X.U ^ O.Q A W o.^ U X...] c +.+.+.+.+.+.+.+.+.+.+.+.+.",
"+.+.+.+.+.+.+.+.+.+.A }  .X.! c t 5 : 5 t c ! X...' D +.+.+.+.+.+.+.+.+.+.+.+.+.",
"+.+.+.+.+.+.+.+.+.+.G ]  ...} ' ( ( ) ( ( ' } X.[ } G +.+.+.+.+.+.+.+.+.+.+.+.+.",
"+.+.+.+.+.+.+.+.+.+.P | {  .....X.X.X.X.X... . . .] P +.+.+.+.+.+.+.+.+.+.+.+.+.",
"+.+.+.+.+.+.+.+.+.+.K ] ..[ .... ............. .] ] P +.+.+.+.+.+.+.+.+.+.+.+.+.",
"+.+.+.+.+.+.+.+.+.+.I [ [ .......... .X.......[ | ] I +.+.+.+.+.+.+.+.+.+.+.+.+.",
"+.+.+.+.+.+.+.+.+.j / [ | [ .... . ... ... .]  .] ] / h +.+.+.+.+.+.+.+.+.+.+.+.",
"+.+.+.+.+.+.+.+.+.N _ [ [ | _ | {  . .} | { | ] ] ] ] m +.+.+.+.+.+.+.+.+.+.+.+.",
"+.+.+.+.+.+.+.+.p N ] [ ' [ [ ] | } } | ] | ] [ ] ( ] m +.+.+.+.+.+.+.+.+.+.+.+.",
"+.+.+.+.+.+.+.8 l D { ' Q [ [ [ [ { { { ] ] [ ] ] ( ' V q +.+.+.+.+.+.+.+.+.+.+.",
"+.+.+.+.+.+.+.= u T ' ! Q [ [ [ ] ] ] ] ] ] [ ] ] ) ( K p +.+.+.+.+.+.+.+.+.+.+.",
"+.+.+.+.+.$ + < V / ! R _ [ ' _ [ ] ] [ ] ] ) [ ] ] ! R k +.+.+.+.+.+.+.+.+.+.+.",
"+.+.+.+.+.= c v H / Q R ' [ [ / [ [ [ ] ] [ ( [ ] ( ~ Q c 5 * +.+.+.+.+.+.+.+.+.",
"+.+.+.+.+.; A c A / R ! ] [ / ] ] ] ] ] ] ] ( ] ] / / W C t * +.+.+.+.+.+.+.+.+.",
"+.+.+.+.+.% < l H Q E ! [ ( ( [ [ ] _ _ [ [ ) ] ] ! I Q n * & +.+.+.+.+.+.+.+.+.",
"+.+.+.+.& A ! R E R ! ] ] ( ( [ ] [ / ( [ [ W / ' ! I L Z 6 +.+.+.+.+.+.+.+.+.+.",
"+.+.+.+.& M I R E R ! ] / / ] ] [ _ Q ( ] [ R R ( ! I H n 6 +.+.+.+.+.+.+.+.+.+.",
"+.+.+.+.+.+ < L Q V B Q E T [ ] ] ' ~ Q _ } N W ( ! U M # +.+.+.+.+.+.+.+.+.+.+.",
"+.+.+.+.+.+.4 ) Q e   B Q a ] _ Y ) K I ' ' V P ( I F M d +.+.+.+.+.+.+.+.+.+.+.",
"+.+.+.+.+.+.1 x s w 9 c I + ] ) D H , j ! Q V m ) P v 1 J 8 +.+.+.+.+.+.+.+.+.+.",
"+.+.+.+.+.+.+.+.o g I I y % g g G P w k I ! n Z I R G w 0 1 +.+.+.+.+.+.+.+.+.+.",
"+.+.+.+.+.+.+.+.+.v ` ` * +.# * A / L A R H 1 6 9 ` G < +.+.+.+.+.+.+.+.+.+.+.+.",
"+.+.+.+.+.+.+.+.+.1 7 7 +.+.+.; ! C < < C I * +.+.7 1 +.+.+.+.+.+.+.+.+.+.+.+.+.",
"+.+.+.+.+.+.+.+.+.+.+.+.+.+.= K ! b +.+.B Q * +.+.+.+.+.+.+.+.+.+.+.+.+.+.+.+.+.",
"+.+.+.+.+.+.+.+.+.+.+.+.+.+.= R ! b +.+.& & +.+.+.+.+.+.+.+.+.+.+.+.+.+.+.+.+.+.",
"+.+.+.+.+.+.+.+.+.+.+.+.+.+.+.% % +.+.+.+.+.+.+.+.+.+.+.+.+.+.+.+.+.+.+.+.+.+.+.",
"+.+.+.+.+.+.+.+.+.+.+.+.+.+.+.+.+.+.+.+.+.+.+.+.+.+.+.+.+.+.+.+.+.+.+.+.+.+.+.+.",
"+.+.+.+.+.+.+.+.+.+.+.+.+.+.+.+.+.+.+.+.+.+.+.+.+.+.+.+.+.+.+.+.+.+.+.+.+.+.+.+."
};
