/* XPM */
static char *result[] = {
/* columns rows colors chars-per-pixel */
"40 40 125 2 ",
"   c #101010",
".  c gray7",
"X  c #161616",
"o  c gray9",
"O  c #181818",
"+  c #191919",
"@  c gray10",
"#  c #1B1B1B",
"$  c gray11",
"%  c #1D1D1D",
"&  c #1E1E1E",
"*  c gray12",
"=  c #202020",
"-  c gray13",
";  c #222222",
":  c #232323",
">  c gray14",
",  c #252525",
"<  c gray15",
"1  c #272727",
"2  c #282828",
"3  c gray16",
"4  c #2A2A2A",
"5  c gray17",
"6  c #2C2C2C",
"7  c #2D2D2D",
"8  c gray18",
"9  c #2F2F2F",
"0  c #302F2C",
"q  c #31302D",
"w  c gray19",
"e  c #313131",
"r  c #323232",
"t  c gray20",
"y  c #343434",
"u  c #353535",
"i  c gray21",
"p  c #373737",
"a  c gray22",
"s  c #393939",
"d  c #3A3A3A",
"f  c gray23",
"g  c #3E3C38",
"h  c #3C3C3C",
"j  c gray24",
"k  c #3E3E3E",
"l  c #3F3F3F",
"z  c gray25",
"x  c #414141",
"c  c gray26",
"v  c #424343",
"b  c #434343",
"n  c #444444",
"m  c gray27",
"M  c #464646",
"N  c gray28",
"B  c #474847",
"V  c #484848",
"C  c #494949",
"Z  c #494A4A",
"A  c gray29",
"S  c #4A4B4A",
"D  c #4B4B4B",
"F  c #4B4C4C",
"G  c #4C4C4C",
"H  c #4C4D4D",
"J  c gray30",
"K  c #4C4E4D",
"L  c #4D4E4E",
"P  c #4D4F4E",
"I  c #4E4E4E",
"U  c #4E4F4E",
"Y  c gray31",
"T  c #4F504F",
"R  c #4F5050",
"E  c #4F5150",
"W  c #505050",
"Q  c #505150",
"!  c #505151",
"~  c #515151",
"^  c gray32",
"/  c #535353",
"(  c gray33",
")  c #545554",
"_  c #555555",
"`  c #565656",
"'  c gray34",
"]  c #585858",
"[  c gray35",
"{  c #5A5A5A",
"}  c #5A5B5A",
"|  c #5B5B5B",
" . c gray36",
".. c #5D5D5D",
"X. c gray37",
"o. c #5F5F5F",
"O. c #606060",
"+. c gray38",
"@. c #626262",
"#. c gray39",
"$. c #646464",
"%. c #656565",
"&. c gray40",
"*. c #676767",
"=. c #686868",
"-. c #6A6A6A",
";. c gray42",
":. c #6C6C6C",
">. c #6D6D6D",
",. c gray43",
"<. c #6F6F6F",
"1. c gray44",
"2. c #717171",
"3. c #727272",
"4. c gray45",
"5. c #747474",
"6. c #767676",
"7. c gray48",
"8. c gray49",
"9. c #7E7E7E",
"0. c gray50",
"q. c #808080",
"w. c #818181",
"e. c #848484",
"r. c gray57",
/* pixels */
"$ % 9 y r 8 8 8 8 8 w w 8 8 8 8 w 8 7 6 6 4 6 6 6 6 4 4 4 4 4 8 8 8 w r = * # $ ",
"* f 9.7.' $.*.$.$.,.<.;.:.2.2.:.:.2.2.:.:.1.2.:.:.1.2.:.>.3.5.4.4.7.e.e.[ D $ * ",
"a | 5. .C ^ Y A A A A A A A C V C A C A A C A C A A C C A A A A A C A ~ I x 8 a ",
"a ' <.[ D ^ Y J D G G D G A A A A A A A A A A A D A A A D D D J D A A ( W n 9 a ",
"y b ) S _ _ D V V W Y I I I ( _ _ W R J J I I Y Y Y ^ ^ ~ ^ ^ ^ ~ Y G _ +.` 9 y ",
"w l ) K ] ` D z z ~ W I I Y ( `  .( / I W I I I W ~ ^ ( ^ ^ ^ ^ ^ ~ I A =.[ 8 w ",
"w x ] ^ ] ` ~ l k m ( ^ I Y ~ W ( ( ~ W W Y Y I W ~ ~ W ( V G ^ ^ Y I C 9.:.y w ",
"r m X.` { ( J B B h h ~ ^ / ^ ^ ^ ^ ~ W W I W G I I P K ` V G ( ( I I A :.X.e y ",
"r c .._ { ( Y V V v f N ~ ^ ^ ^ ~ ~ ~ ~ ~ I Y J J J L L [ B I ^ ^ Y W A ;.O.e r ",
"9 c ..( ' ` / J J C Y s c N / ^ I K W W W Y Y W I L W ~ / B ^ W W W W A :.X.w 9 ",
"8 n X.` ` ' / I I C W s z M / ( I G W W ^ I I W I L Q ( ^ B ^ ~ W W W A :. .9 8 ",
"6 z O.] { ` ( ~ ~ G M L ' ' ^ W ( G ~ ~ ~ I Y I I J / ` T D ` Y I ^ W A -...8 6 ",
"4 j +.{ ] _ ' ( ( I B K =.#.W W ^ G Y ( ( I I W G G / ( K ^ _ W W / ~ A ;.O.7 4 ",
", l <.&.` ( ` ' ' Y K S { ' ^ ^ ( W Y ( ( I I W A D _ ' C ] _ W W ( ^ G :...4 , ",
"> c 2.=.^ _ [ ^ ^ ( ( G I W / ( ^ ` ~ W W I I I A G ` { A { ( W W W W G -. .5 > ",
"> l 1.=.~ ( ] ^ / _ _ Y Y Y / ( ^ ` ~ W ^ I Y I A D ' { G { / W ~ ~ ~ G -.X.4 > ",
"- s 2.;.~ ] [ I I ^ ` X._ ( ^ / ^ ` ' ( ( I W J F H ( _ ' ` W J J ^ W G ;.+.1 - ",
"& f 4.:.( ] [ I W ~ ' @.` ( Y W ( ( | ` ` Y W I K U ^ ^  .( T G G ^ W G :.X., & ",
"& k 4.:.( ] [ Y I ~ ^ ^ W W ~ ^ ^ _ / ^ ^ J A A W W W W ^ I D ~ ^ ^ ~ A :.{ ; & ",
"& d 3.:.^ ] [ I W W W W W W ~ ^ ^ ( ( ^ ^ S c ..I I W W ( A A ` ` ^ W ] X.Y # & ",
"% i 2.:.^ ] ] Y Y W W ~ W ~ ~ ^ ^ / / ~ ~ L ~ X.J I ~ W ^ F I ( ( ~ W { C z $ % ",
"@ p 2.:.( ` ' W W W ~ W ^ ~ / ^ ^ ^ ^ W W W / I ~ ~ W W I _ ] ~ W W ^ V M m 2 @ ",
"@ s 3.:.( ` ' W W W W W W ~ / ^ ^ ^ ^ W W ~ ^ G ^ ~ ~ W I ` [ ~ ^ ~ ^ m V M 3 @ ",
"% a 2.:.( ` ' W W ~ / ^ ^ W ~ ^ ^ ^ ~ I I Y I K ^ ^ ~ W ^ ^ ~ ^ ^ Y V ( 3.%., & ",
"= a 2.:.` ` ' W W W ^ ^ ^ ^ / ^ ^ ^ I I I ( K K W ^ ~ W ^ ^ ^ ^ ^ E  .O.O.' < ; ",
"= f 2.,.` ` ` W W ~ ^ ^ ^ / / ^ ^ W ^ o.o.W A I ^ ~ ~ ^ ^ ^ ~ ( ( } { ^ %.{ 1 = ",
"@ a 2.,.( ` ` W W ^ ^ ^ W W ~ ^ ^ ( _ I I W @.~ W W ~ ^ W ^ ' O.O.W C I &.[ > @ ",
"@ t 2.1.( ` ` W W ^ ^ ^ W W ~ ^ ^ ( ` I I ~ @.W ^ W ^ / ~ / ] ....W A G %.| : @ ",
"+ r 3.<.^ { _ W W ~ ^ ^ W ~ ^ ^ ^ ^ ' W W ' ` Y W ~ W W _ ' ` ~ ~ ^ ~ Z X.' > + ",
"@ a 5.,.^ { ( W ^ ~ ^ ^ W ~ ^ ^ ^ W ] ^ ( ~ I W W W W W ( ( / W W ^ ^ K { ^ , @ ",
"O p 3.,.^ { _ W W J A ^ W ~ ^ ^ W ] ( I I W W W ^ W W W ^ ^ ^ ^ ^ ~ W I $.[ > O ",
"  1 ,.1.^ { ( W W ~ I I ( / ^ ^ ( K Y W W ^ / ^ ^ ^ ( ( ^ ^ ^ ^ ^ ^ ^ I &.X.&   ",
"  , <.2.^ [ / ~ W ~ W W ( ( ( / ( ! ~ ^ / ^ ^ ^ ^ ^ / / ^ ^ ^ ^ ^ ^ ~ I #.| %   ",
"  2 >.3.^ ] ~ W W W ~ ^ ( / ^ ^ ^ / / ^ ^ ^ ^ ^ ^ ^ ^ ( ( ( _ ' ' ' ] ^ ;.@.;   ",
"  4 ,.3.^ ] ~ W W W W ^ ( / / ^ ( ^ ^ ^ ^ ^ ^ ^ ^ ^ ^ ^ ( ( _ ] ] ' ] ^ :.+.:   ",
"  : 5.q._  .[ _ _ ` ' ` ] ] [ [ [ [ [ { { [ [ { | { [ | | | | | | { ` ^ 0.1.&   ",
". % 8.r.>.X.$.$.$.#.+.O.@.@.+.+.O.@.#.$.%.$.&.@.#.@.@.#.O.+.O.@.@.@.O.6.w.<.X . ",
"# @ 8 f N k I ] ] / / _ ` _ ' [ [ _ ( ^ / L D W ~ Y W ^ ( _ _ Y I c m >.x t o # ",
"$ % 8 y r 8 8 8 8 9 w w 8 8 8 8 w 8 7 6 6 5 6 6 6 5 4 4 4 4 4 8 8 9 w r = & 0 g ",
"% & a b d u u s s i p h f i i f j i u s d t y s d y r a s t r h j a s b 6 < q g "
};
