/* XPM */
static char *result[] = {
/* columns rows colors chars-per-pixel */
"40 40 87 1 ",
"  c #010101",
". c #080501",
"X c #060807",
"o c #0A0906",
"O c #060709",
"+ c #070909",
"@ c #0B0B0C",
"# c #110E05",
"$ c #110F0E",
"% c #11100E",
"& c #0E0E10",
"* c #100F13",
"= c #0F1011",
"- c #141414",
"; c #181515",
": c #171816",
"> c #191916",
", c #161618",
"< c #181718",
"1 c #161A1D",
"2 c #1A1A1C",
"3 c #221F1C",
"4 c #21211F",
"5 c #1C1E20",
"6 c #211F21",
"7 c #252424",
"8 c #282625",
"9 c #2C2A25",
"0 c #242629",
"q c #292728",
"w c #262A2E",
"e c #2A2B2D",
"r c #312C2B",
"t c #35322D",
"y c #2A2E32",
"u c #312F35",
"i c #2C3033",
"p c #343434",
"a c #3A3633",
"s c #3B3935",
"d c #323539",
"f c #3A3739",
"g c #37383A",
"h c #3B3B3A",
"j c #433E3C",
"k c #45423E",
"l c #49433D",
"z c #3D3E41",
"x c #3E4346",
"c c #3E4648",
"v c #404244",
"b c #494543",
"n c #4E4A44",
"m c #414549",
"M c #494A4C",
"N c #504A44",
"B c #544F4A",
"V c #56514C",
"C c #59544E",
"Z c #4C4D51",
"A c #4F5154",
"S c #505154",
"D c #5B5651",
"F c #5D5953",
"G c #56575A",
"H c #57585B",
"J c #59595B",
"K c #615B55",
"L c #6A6256",
"P c #6D655C",
"I c #70645D",
"U c #6D6560",
"Y c #716760",
"T c #756B61",
"R c #7A6E65",
"E c #7C7167",
"W c #7E746A",
"Q c #7E7A70",
"! c #81766C",
"~ c #83796E",
"^ c #807770",
"/ c #857C74",
"( c #887E76",
") c #8A8077",
"_ c #8D837A",
"` c #928A7E",
"' c #958C84",
/* pixels */
"7 @22222>::-;&o;;%:%;;;;;;%.;>-;,--;$-@o",
"G,bPPPIIPPYPUNsIPPPIPPPIPPP>PPPPPPPKIKIV",
"G,BY`((!~~~~!Kl~)'')////W!/9_~!!WW^^('LF",
"H,B^8o-;477q87-24478qq78q77@req7e082$r!K",
"G:N!7@                              .rEK",
"G;V!r-                              @sTK",
"H:V!e-                              %j!F",
"G,CEr-                              %jIF",
"G,DEp-                              -jRF",
"H,FRt:                              :jIF",
"H,FRa>                              :jIK",
"G,KRs2                              -bTF",
"G:V/D-X                             .o#o",
"G,392X                              -k!K",
"G:DYa-                              -hTK",
"H&DRs:         . X. O X.  .         -a!C",
"J*DRa:        ....OO.O.OX .O        ,l/K",
"H;DWa:                              -s!D",
"H:DRa,   . O@@@%&---,,-*-&@@OOO..   -hEF",
"G:DWa,  O X.O@$*&&-&****&&&@@+OO    ,p!D",
"G,DWa,     OOOoOO@O@OoOOoOoO.O.O    -aWD",
"G,DEa2 O O OOO@OOO@@@@@@@O@O@++ . X -a!F",
"H:C~n- O@*12222222552522522,215,-@+ -aEC",
"H>CWj; O*,12,1,:222,2222<2211,,,:@@ :tEF",
"H,KTs, @:122:1221125211562122525,-@X&tED",
"J,JRk:.---%--%%--------,-*-,-*-*--@.ogPb",
"G2o..O                        O     @jLj",
"H,FQV,@0xMMAZAAASAAAAAGSSSSSZZZZxg7@-sRK",
"G,DYn2-8yeywywyiyyyyyyyiiyyyyyywwy0=-a!K",
"G-DTl>-wyyyyiiyiyyiidyyyiiyiyyyyyyw--t!C",
"H,DRk:2yeyiiiiiiiiiiyyiyyiiyyyyyyye1-aEF",
"G,DRl-,5221221222222155255225225222:-sWD",
"J:DTj-@&@&@&@&&&@=&=&@@&&&&&@&&@&&@+-t!C",
"H:DRj$,wydzzzzzzzzxhzxzzzvvzxhzzdi0,;t!B",
"G:FRa*uxzzxxxxxxxxccxxxxxxxxvxxxczzd;r~B",
"G:FRa-yxzxxxcxcccxccccccccccxmxcmczi;r!V",
"G:CTj@uxcvmcxxcmmmcmmmmmxmmccvmxmmzz*qRC",
"G:VIs$dmmmmcccmmccmmmmmmmmmmmmmmmmcd*3YN",
"2.8r# O@+++++o++XXXooo+++o+o@@++& O  -D6",
"gpdphdffpagsshgghhhhhhhhghghggghzzzgfhhh"
};
