/* XPM */
static char *result[] = {
/* columns rows colors chars-per-pixel */
"40 40 50 1 ",
"  c #020202",
". c #060609",
"X c #08070A",
"o c #0B0B0C",
"O c #0E100F",
"+ c #0E0E11",
"@ c #100E12",
"# c #0F1110",
"$ c #141415",
"% c #171812",
"& c #1A1B15",
"* c #161619",
"= c #18171B",
"- c #1A1A1B",
"; c #1E201F",
": c #1D1D21",
"> c #201F23",
", c #221F28",
"< c #1E2021",
"1 c #222225",
"2 c #252429",
"3 c #272829",
"4 c #2A2B2D",
"5 c #2E2E31",
"6 c #312F33",
"7 c #333236",
"8 c #363439",
"9 c #39363D",
"0 c #3C3B3E",
"q c #403E3F",
"w c #3D3C41",
"e c #413E45",
"r c #3F4344",
"t c #424144",
"y c #46444A",
"u c #48474D",
"i c #4A494E",
"p c #4A4750",
"a c #4D4C51",
"s c #504F53",
"d c #4F5054",
"f c #525255",
"g c #565857",
"h c #555559",
"j c #57585A",
"k c #595A5D",
"l c #5E5E61",
"z c #626265",
"x c #656569",
"c c #69696C",
/* pixels */
".o=:::,:-1>2:1>1;1-12,:22:<2<<2<<2<,,<<X",
"%8eeweeeyyuiiiiiippsasffafhdahffdffflhh4",
"%9eeeeyyuuupiiaipasassffffaalfffffffhff4",
"&9eeyyupiiapaassffsfsfjhkahhhahhfflhdhh4",
"-weee2:::::::>==-:-:::-1f2:2w::<222rhhh5",
"-weyy==::*+@o=>>:::+*$-1,::<.+$:<<2:hhh4",
"&9eyu@@$$X8y*@-%**$*yy#-*=**+yl+*-=*hhh4",
"%weti     6e*      $uu     .+yl.   okhh4",
"%weet     5y=      *yi      +ix    Xkgh4",
"-weei     7y$      $yp      opx    ojhh4",
"-weeiX777=6y=37q804*ua-00005$ic-t0qOjgh4",
">wyyuOeep:6p$9syppw$yf,hfhftopx4kkkojff4",
"-ttyiX11,o6p*>4>32>%yf+33341opx$347Xjhg3",
">0yyi .   6y* . .  $uf .... oiz . .Xjjd4",
"-qyyi     7u$      *yi      oiz    ogjj3",
"10yyi     7u=      *ii      oix     jjf1",
";qyyp     7p$      $ua      oix    .kgj-",
";qyyp     8y$      *ia      oiz     kff3",
":0yya     7p$      $ia      oax   . kgh4",
"<qyiio776*7p*488895$pa-00ww7oaz;rttXjjf3",
";tyiaoteu:8y-0iiiae-ia1kfhjtoaz4kkkXkfh3",
"-tyya -::o7p$-1112-*iao2323:#ax#234.ghh4",
";qiia     7y$.     $if     .#az     jgh4",
";qyia     7p-      -ii      #pz    .jhh4",
"<tyid     7y$      *ii      oix     kgh4",
";qiia     7y$      *ii      Oaz    .gjj4",
"-tiif     8y$      $ia      #ax    .kjh4",
"<tiis. .  7y$      &ii .    odc .   lgh5",
";qiisoqte,6y:7ipip9:ii3pssfr$az4hghojgd5",
"-tiisOiia,6p-whsfjt=ai4llzzy$az5zycoggg4",
">tiif -%-o6u-*---:**iio:->--oazo;-1 gkf5",
"-qiif.    5y-      =ip      $al     jgf5",
"&tiis.    5y-      *uu      #pz    .jgf4",
"*taif     6y-      *yi      #az     jfh4",
"&qiih..   7i*      *fu      #dz   Xoggg4",
"#tiis:$*o.$+$++$$#$$+*$+#$o$##$=*&;4kdg4",
"*riiihpasfahsfafdddfhfsfffffhhkdfdfhdkg4",
"$riiiiaaaafdssfadddfffdffffdfhdhfhhhkfg3",
"+0iififfffdfffffffffffhffhhfhhhhkhjhjjl3",
" -&$&-%%*%*&&===*&-*-**%*=$==&****$&*$$="
};
