/* XPM */
static char *result[] = {
/* columns rows colors chars-per-pixel */
"40 40 187 2 ",
"   c #030114",
".  c #040319",
"X  c #0B0A1D",
"o  c #0D071B",
"O  c #120519",
"+  c #130A1C",
"@  c #1C0D1C",
"#  c #0C0E20",
"$  c #150E22",
"%  c #0F162C",
"&  c #131022",
"*  c #1B1225",
"=  c #3C0322",
"-  c #261A29",
";  c #2C2B3C",
":  c #3E2339",
">  c #641411",
",  c #6A1B0F",
"<  c #6F2116",
"1  c #430E2B",
"2  c #49142D",
"3  c #47102B",
"4  c #521A2C",
"5  c #4B1931",
"6  c #7C0D2D",
"7  c #730034",
"8  c #7D0F38",
"9  c #7B0D34",
"0  c #7C133B",
"q  c #79193A",
"w  c #783025",
"e  c #2F2F41",
"r  c #2F3245",
"t  c #323245",
"y  c #363749",
"u  c #7C1C41",
"i  c #7A1543",
"p  c #463A46",
"a  c #7D2442",
"s  c #782E48",
"d  c #6B3953",
"f  c #653753",
"g  c #6C4058",
"h  c #4D576A",
"j  c #51687A",
"k  c #A51B13",
"l  c #BF300F",
"z  c #A8221E",
"x  c #BD3413",
"c  c #820832",
"v  c #841437",
"b  c #83163A",
"n  c #831C3C",
"m  c #871836",
"M  c #800928",
"N  c #9F2A25",
"B  c #81362D",
"V  c #82233E",
"C  c #8B243B",
"Z  c #8C2B3E",
"A  c #8A273A",
"S  c #90293C",
"D  c #983637",
"F  c #8A343D",
"G  c #A62825",
"H  c #AE3729",
"J  c #B2342F",
"K  c #CE2A02",
"L  c #CB2D0C",
"P  c #D42E02",
"I  c #D92E04",
"U  c #D02F09",
"Y  c #CE320C",
"T  c #CF390F",
"R  c #C6380E",
"E  c #D53206",
"W  c #DB3505",
"Q  c #D2340D",
"!  c #D6390C",
"~  c #C23610",
"^  c #C63B15",
"/  c #CB3C12",
"(  c #C23A18",
")  c #D03F12",
"_  c #E33500",
"`  c #8D473F",
"'  c #8F493F",
"]  c #92493D",
"[  c #B9572C",
"{  c #B65733",
"}  c #836F38",
"|  c #85713E",
" . c #B67D3B",
".. c #D5400F",
"X. c #D24314",
"o. c #D1441D",
"O. c #D94818",
"+. c #CA4119",
"@. c #E05F11",
"#. c #DD6416",
"$. c #DE6719",
"%. c #DE681E",
"&. c #D46018",
"*. c #E36511",
"=. c #C05C2D",
"-. c #D4512C",
";. c #CF7032",
":. c #E27727",
">. c #901B43",
",. c #861844",
"<. c #882843",
"1. c #933640",
"2. c #963F5D",
"3. c #8E4B41",
"4. c #965C51",
"5. c #B34F48",
"6. c #BC784E",
"7. c #BD7A51",
"8. c #914661",
"9. c #C17B4D",
"0. c #C87B57",
"q. c #F69102",
"w. c #EC8E1B",
"e. c #EA8817",
"r. c #EE931E",
"t. c #F29513",
"y. c #F5991C",
"u. c #E78C23",
"i. c #EE9422",
"p. c #EF9927",
"a. c #E8912E",
"s. c #F29C23",
"d. c #F09C29",
"f. c #F09729",
"g. c #E58736",
"h. c #E68937",
"j. c #E68B3A",
"k. c #EB8B37",
"l. c #EF9F3B",
"z. c #ED9137",
"x. c #EEAB3F",
"c. c #F5B43E",
"v. c #FCBC3F",
"b. c #A4806D",
"n. c #C7824D",
"m. c #C58350",
"M. c #DB9847",
"N. c #F4B544",
"B. c #E6987F",
"V. c #FBC043",
"C. c #F6CA5B",
"Z. c #FBCF5B",
"A. c #F4C459",
"S. c #FDD558",
"D. c #FFE55D",
"F. c #FFEB5E",
"G. c #F6CF62",
"H. c #FFDB61",
"J. c #F9D464",
"K. c #FFE563",
"L. c #FFEB65",
"P. c #FFE568",
"I. c #FFEC69",
"U. c #FFF56E",
"Y. c #FFFC6B",
"T. c #FFED73",
"R. c #BF8EA1",
"E. c #C18D97",
"W. c #CD9397",
"Q. c #E69A83",
"!. c #E79D89",
"~. c #E99E88",
"^. c #EAA08F",
"/. c #C48EA4",
"(. c #F3C38F",
"). c #FDD495",
"_. c #FFFCBC",
"`. c #FEE7A7",
"'. c #F4ECE6",
"]. c #FCEDE2",
"[. c #F6EFEE",
"{. c #FCF0EE",
"}. c #EFEEF3",
"|. c #FCF2F3",
" X c #FFFFFF",
".X c #F8F6FF",
"XX c None",
/* pixels */
"XXXXXXXXXXXXXXXXXXXXXXXXXXXXXXXXXXXXXXXXXXXXXXXXXXXXXXXXXXXXXXXXXXXXXXXXXXXXXXXX",
"XXXXXXXXXXXXXXXXXXXXXXXXXXXXXXXXXXXXXXXXXXXXXXXXXXXXXXXXXXXXXXXXXXXXXXXXXXXXXXXX",
"XXXXXXXXXXXXXXXXXXXXXXXXXXXXXXXXXXXXXXXXXXXXXXXXXXXXXXXXXXXXXXXXXXXXXXXXXXXXXXXX",
"XXXXXXXXXXXXXXXXXXXXXXXXXXXXXXXXXXXXXXXXXXXXXXXXXXXXXXXXXXXXXXXXXXXXXXXXXXXXXXXX",
"XXXXXXXXXXXXXXXXXXXXXXXXXXXXXXXXXXXXXXXXXXXXXXXXXXXXXXXXXXXXXXXXXXXXXXXXXXXXXXXX",
"XXXXXXXXXXXXXXXXXXXXXXXXXXXXXXXXXXXXXXXXXXXXXXXXXXXXXXXXXXXXXXXXXXXXXXXXXXXXXXXX",
"XXXXXXXXXXXXXXXXXXXXXXXXXXXXXXXXXXXXXXXXXXXXXXXXXXXXXXXXXXXXXXXXXXXXXXXXXXXXXXXX",
"XXXXXXXXXXXXXXXXXXXXXXXXXXXXXXXXXXXXXXXXXXXXXXXXXXXXXXXXXXXXXXXXXXXXXXXXXXXXXXXX",
"XXXXXXXXXXXXXXXXXXXXXXXXXXXXXXXXXXXXXXXXXXXXXXXXXXXXXXXXXXXXXXXXXXXXXXXXXXXXXXXX",
"XXXXXXXXXXXXXXXXXXXXXXXXXXXXXXXXXXXXXXXXXXXXXXXXXXXXXXXXXXXXXXXXXXXXXXXXXXXXXXXX",
"XXXXXXXXXXXXXXXXXXXXXXXXXXXXXXXXXXXXXXXXXXXXXXXX<.u G ^ ^ ^ ^ ^ ^ ^ ^ T 3.XXXXXX",
"XXXXXXXXXXXXXXXXXXXXXXXXXXXXXXXXXXXXXXXXXXXXXXXXi 0 G P K K K K K K Q E ` XXXXXX",
"XXXXXXXXXXXXXXXXXX3.] ] ] ' ] ] XXXXXXXXXXXXd XX[ [ ;.k.j.Q.!.!.!.B.%.*.[ ` 3.XX",
"XXXXXXXXXXXXXXXXXX! _ E E E W _ ] XXXXXXXXd m C r.t.V.I.T. X X X X Xf.t.*.I / XX",
"XXXXXXXXXXXXXXXXXX( T / X.X.R Q ] XXXXXXXXXXb A u.i.N.Z.J.].|.{.|.].l.d.%.Q ^ XX",
"XXXXXXXXa n XXXXXXV v 9.D.A.S m XXXXXXXXXXXXv Z C.K.k./ X.o.o.o.) -.]. XB.K ^ XX",
"XXXXXXXXq c f XXXXi 7 9.Y.J.<.v XXXXXXXXXXXX0 Z G.I.k.I ! ! W W P O.|. X~.P ^ XX",
"XXXXd XX6.n.4.f XX7.9.M.V.x.Z 0 F ] 3.] ] D G H Z.I. .> , < < < , w [. XW.k H XX",
"XXd c C H.Y.m.7 C H.Y.N.e.e.n 0 z W W W E E U X.Z.I.} . # . . #   % }. XE.6 a XX",
"XXXXC 1.C.D.9.n 1.C.S.c.w.u.F <.H X.X.X.X.X.) O.Z.I.|   # $ $ $ o - '. XE.c q XX",
"0 6.H.C.p.r.c.J.C.i.i.i.r.i.C.Z.Z.Z.Z.Z.Z.Z.Z.Z.S.P.|   # h h f 0 A J.U.m.0 <.XX",
"9 m.Y.K.s.e.N.Y.K.s.r.i.r.s.P.I.P.I.P.I.I.P.P.P.S.D.}   # h j d m <.C.F.6.b q XX",
"<.{ z.h.$.#.:.j.h.$.#.#.#.$.h.h.h.h.h.h.h.l.c.N.`._.b.= 5 f d s b Z Z.L.9.8 q XX",
"2.J P U Q Q Q K Q Q Q Q Q Q U U U U Q U K @.t.p. X X/.M m v v ,.q A G.L.9.8 <.XX",
"8.5.X.~ ~ ~ ~ ~ R ~ ~ R ~ ~ R ~ ~ ~ ~ ~ l &.w.a.]. XW.Z 1.<.Z Z V 1.C.K.9.8 V XX",
"* y p - @ @ @ @ @ @ @ @ @ @ @ @ @ @ @ @ + 4 S S a.r.^..X}.G.C.Z.Z.C.d.y.[ 0 V XX",
"  * ; y $ . . . . . . . . . . . . .   .   3 >.C r.q.). X XT.L.I.U.D.y.y.=.,.<.XX",
"e ; y XXXXXXt t t t t t t t t t t t t t t : 3 4 [ [ 0.~.Q.j.h.h.k.h.=.[ B 1 5 XX",
"XXXXXXXXXXXXXXXXXXXXXXXXXXXXXXXXXXXXXXXXXXt   o q u z E K U U U P L n ,.1   X XX",
"XXXXXXXXXXXXXXXXXXXXXXXXXXXXXXXXXXXXXXXXXXy X * q q N T x R x R R x n n 2 # * XX",
"XXXXXXXXXXXXXXXXXXXXXXXXXXXXXXXXXXXXXXXXXXXXXXXX* + @ @ @ @ @ @ @ @ @ O t XXXXXX",
"XXXXXXXXXXXXXXXXXXXXXXXXXXXXXXXXXXXXXXXXXXXXXXXXo     . . . . . . . .   r XXXXXX",
"XXXXXXXXXXXXXXXXXXXXXXXXXXXXXXXXXXXXXXXXXXXXXXXXy t t t t t t t t t t e XXXXXXXX",
"XXXXXXXXXXXXXXXXXXXXXXXXXXXXXXXXXXXXXXXXXXXXXXXXXXXXXXXXXXXXXXXXXXXXXXXXXXXXXXXX",
"XXXXXXXXXXXXXXXXXXXXXXXXXXXXXXXXXXXXXXXXXXXXXXXXXXXXXXXXXXXXXXXXXXXXXXXXXXXXXXXX",
"XXXXXXXXXXXXXXXXXXXXXXXXXXXXXXXXXXXXXXXXXXXXXXXXXXXXXXXXXXXXXXXXXXXXXXXXXXXXXXXX",
"XXXXXXXXXXXXXXXXXXXXXXXXXXXXXXXXXXXXXXXXXXXXXXXXXXXXXXXXXXXXXXXXXXXXXXXXXXXXXXXX",
"XXXXXXXXXXXXXXXXXXXXXXXXXXXXXXXXXXXXXXXXXXXXXXXXXXXXXXXXXXXXXXXXXXXXXXXXXXXXXXXX",
"XXXXXXXXXXXXXXXXXXXXXXXXXXXXXXXXXXXXXXXXXXXXXXXXXXXXXXXXXXXXXXXXXXXXXXXXXXXXXXXX",
"XXXXXXXXXXXXXXXXXXXXXXXXXXXXXXXXXXXXXXXXXXXXXXXXXXXXXXXXXXXXXXXXXXXXXXXXXXXXXXXX"
};
