/* XPM */
static char *result[] = {
/* columns rows colors chars-per-pixel */
"40 40 193 2 ",
"   c #030215",
".  c #040319",
"X  c #0A071A",
"o  c #0C091C",
"O  c #120519",
"+  c #140A1C",
"@  c #1C0D1C",
"#  c #1F111F",
"$  c #0D0E20",
"%  c #150F22",
"&  c #191023",
"*  c #0F162C",
"=  c #3C0322",
"-  c #261B2D",
";  c #2D212F",
":  c #641411",
">  c #6A1B0F",
",  c #6F2116",
"<  c #430F2C",
"1  c #45102C",
"2  c #4A142D",
"3  c #521A2C",
"4  c #7B0F2F",
"5  c #730035",
"6  c #7A0D34",
"7  c #7C133B",
"8  c #7C1C3D",
"9  c #781739",
"0  c #783025",
"q  c #2F3043",
"w  c #343043",
"e  c #7C1C41",
"r  c #7A1543",
"t  c #7C2944",
"y  c #683853",
"u  c #6B3C4E",
"i  c #534550",
"p  c #6C4058",
"a  c #4D576A",
"s  c #7B536A",
"d  c #51687A",
"f  c #A31D16",
"g  c #AF2F0D",
"h  c #BF2D0A",
"j  c #BE330F",
"k  c #A8221E",
"l  c #B83412",
"z  c #810732",
"x  c #841437",
"c  c #831639",
"v  c #841E3C",
"b  c #871836",
"n  c #800928",
"m  c #9F2A25",
"M  c #81362D",
"N  c #8A243C",
"B  c #8C2B3E",
"V  c #88243A",
"C  c #90293C",
"Z  c #983637",
"A  c #8A343D",
"S  c #AB2522",
"D  c #A62925",
"F  c #AE3729",
"G  c #CE2A02",
"H  c #CC2E0B",
"J  c #D32D02",
"K  c #D02F09",
"L  c #D92D05",
"P  c #C3350F",
"I  c #CD330D",
"U  c #C7380D",
"Y  c #CE390F",
"T  c #D53206",
"R  c #DB3505",
"E  c #D3350C",
"W  c #D5390C",
"Q  c #C23610",
"!  c #C63B15",
"~  c #CB3B12",
"^  c #C23A18",
"/  c #D13B12",
"(  c #E33500",
")  c #8E483F",
"_  c #92493D",
"`  c #B9572C",
"'  c #B65633",
"]  c #836F38",
"[  c #85713E",
"{  c #B67D3B",
"}  c #D5400F",
"|  c #D24314",
" . c #D1441D",
".. c #D94818",
"X. c #E05F11",
"o. c #CD6119",
"O. c #DD6416",
"+. c #DE6719",
"@. c #DE681E",
"#. c #D46018",
"$. c #E36511",
"%. c #C64927",
"&. c #D34726",
"*. c #C05C2D",
"=. c #D75432",
"-. c #D96E2F",
";. c #CF7032",
":. c #D2792E",
">. c #861843",
",. c #901B43",
"<. c #882A43",
"1. c #933640",
"2. c #973A4E",
"3. c #9B3759",
"4. c #8E4B41",
"5. c #8B4741",
"6. c #965C51",
"7. c #BD7A4E",
"8. c #BD7A51",
"9. c #AA6B46",
"0. c #AE676D",
"q. c #C27B4D",
"w. c #C87B57",
"e. c #CE6447",
"r. c #F69102",
"t. c #EC8E1B",
"y. c #E98618",
"u. c #EF941E",
"i. c #F29513",
"p. c #F5991C",
"a. c #E78C23",
"s. c #EE9422",
"d. c #EF9927",
"f. c #E8912E",
"g. c #F29C23",
"h. c #F09A29",
"j. c #E48636",
"k. c #E68936",
"l. c #E68A3A",
"z. c #EB8B37",
"x. c #EF9F3B",
"c. c #EE9B35",
"v. c #EDA63C",
"b. c #F5B43E",
"n. c #FCBC3F",
"m. c #A4806D",
"M. c #C7814D",
"N. c #DB9847",
"B. c #E69150",
"V. c #EFA143",
"C. c #F4B545",
"Z. c #F1B15A",
"A. c #ECA258",
"S. c #E6987F",
"D. c #FCC042",
"F. c #F6CA5B",
"G. c #FBCE5B",
"H. c #F4C459",
"J. c #ECD15C",
"K. c #FDD558",
"L. c #E9C95B",
"P. c #FFE45C",
"I. c #FFEB5E",
"U. c #F5CF63",
"Y. c #FFDC62",
"T. c #F9D366",
"R. c #FFE563",
"E. c #FFEB65",
"W. c #FFE568",
"Q. c #FFEC69",
"!. c #FFF36D",
"~. c #FFFC6B",
"^. c #FFED73",
"/. c #BF8EA1",
"(. c #C99197",
"). c #E69A83",
"_. c #E79D89",
"`. c #E99E88",
"'. c #EAA08F",
"]. c #C48EA4",
"[. c #F3C38F",
"{. c #FDD495",
"}. c #FFFCBC",
"|. c #FEE7A7",
" X c #F4ECE6",
".X c #FCEDE2",
"XX c #F6EFEE",
"oX c #FCF0EE",
"OX c #EFEEF3",
"+X c #FCF2F3",
"@X c #FFFFFF",
"#X c #F8F6FF",
"$X c None",
/* pixels */
"$X$X$X$X$X$X$X$X$X$X$X$X$X$X$X$X$X$X$X$X$X$X$X$X$X$X$X$X$X$X$X$X$X$X$X$X$X$X$X$X",
"$X$X$X$X$X$X$X$X$X$X$X$X$X$X$X$X$X$X$X$X$X$X$X$X$X$X$X$X$X$X$X$X$X$X$X$X$X$X$X$X",
"$X$X$X$X$X$X$X$X$X$X$X$X$X$X$X$X$X$X$X$X$X$X$X$X$X$X$X$X$X$X$X$X$X$X$X$X$X$X$X$X",
"$X$X$X$X$X$X$X$X$X$X$X$X$X$X$X$X$X$X$X$X$X$X$X$X$X$X$X$X$X$X$X$X$X$X$X$X$X$X$X$X",
"$X$X$X$X$X$X$X$X$X$X$X$X$X$X$X$X$X$X$X$X$X$X$X$X$X$X$X$X$X$X$X$X$X$X$X$X$X$X$X$X",
"$X$X$X$X$X$X$X$X$X$X$X$X$X$X$X$X$X$X$X$X$X$X$X$X$X$X$X$X$X$X$X$X$X$X$X$X$X$X$X$X",
"$X$X$X$X$X$X$X$X$X$X$X$X$X$X$X$X$X$X$X$X$X$X$X$X$X$X$X$X$X$X$X$X$X$X$X$X$X$X$X$X",
"$X$X$X$X$X$X$X$X$X$X$X$X$X$X$X$X$X$X$X$X$X$X$X$X$X$X$X$X$X$X$X$X$X$X$X$X$X$X$X$X",
"$X$X4.Y ! ! ! ! ! ! ! ~ D e t $X$X$X$X$X$X$X$X$X$X$X$X$X$X$X$X$X$X$X$X$X$X$X$X$X",
"$X$X) L I G G J G G G J k r r $X$X$X$X$X$X$X$X$X$X$X$X$X$X$X$X$X$X$X$X$X$X$X$X$X",
") 5.` $.@.S._._._.).l.z.;.` ` $X$X$X$X$X$X$X$X_ 4._ _ _ _ 4.$X$X$X$X$X$X$X$X$X$X",
"R T $.i.h.@X@X@X@X@X^.Q.D.i.t.N b u $X$X$X$X_ ( W R L T ( Y $X$X$X$X$X$X$X$X$X$X",
"Y I +.g.x..X+XoX+X.XT.G.b.u.a.V b $X$X$X$X$X) E ! | | ~ Y l $X$X$X$X$X$X$X$X$X$X",
"U G S.@X.X=.|  .&. .| Y z.R.F.B x $X$X$X$X$X$Xb C H.P.q.x V $X$X$Xv <.$X$X$X$X$X",
"W G '.@XoX} R R R R W L z.Q.U.<.r $X$X$X$X$X$Xx B T.~.8.5 r $X$Xy z 7 $X$X$X$X$X",
"D k (.@XXX0 > , , , , : { E.G.F S F 4.4._ _ A 8 N b.C.N.8.8.$Xy 6.M.7.$Xs $X$X$X",
"8 6 /.@XOX*   . . . . . ] !.G.} T E T T T R k 7 v y.y.n.!.Y.N 5 q.~.R.2.3.s $X$X",
"8 4 (.@X X- X % % % $ . [ E.G...~ | | | | | F <.C a.t.b.P.H.Z c q.R.T.0.2.y $X$X",
"V 7 q.^.U.V 9 y a a %   [ E.Y.G.G.G.G.G.G.G.G.U.F.s.u.s.u.d.F.T.C.c.Z.U.L.9.9 $X",
"v 6 q.I.G.<.c p d a o   ] P.K.W.W.W.Q.Q.Q.Q.Q.Q.R.g.u.u.u.d.R.^.F.V.x.J.E.7.6 $X",
"v 6 8.E.F.B c t y y 2 = m.}.|.C.b.x.j.j.j.z.j.j.j.@.O.O.O.O.k.A.B.-.o.:.l.' c $X",
"V 7 7.!.U.<.7 c c c v n ].@X@Xd.i.X.G K K K K J K E I T E ~ &.=.&.P j I T S >.$X",
"V 7 q.P.F.Z N B <.<.<.<.(.@X.Xf.y.#.P P Q Q Q ! Q Q ! P ! %.e.%.g g j Q U m 8 $X",
"v 8 ' p.h.H.U.G.F.T..X#X[.u.f.C B 3 + @ & @ @ @ @ @ @ # $Xi ; @ @ @ @ @ @ @ + $X",
"N >.` p.g.R.Q.Q.R.^.@X@X{.r.t.B ,.1 . . . . . . . . X $X$X$XX   . . . . . O   $X",
"2 < M ` *.z.l.k.k.k.).'.w.` ` 3 2 $X$X$X$X$X$X$X$X$X$X$X$X$X$X$X$X$X$X$X$X$X$X$X",
".   1 >.v H T I I K J L k r 7 o   $X$X$X$X$X$X$X$X$X$X$X$X$X$X$X$X$X$X$X$X$X$X$X",
"% $ 2 V v j P P P P P U D 8 9 & o $X$X$X$X$X$X$X$X$X$X$X$X$X$X$X$X$X$X$X$X$X$X$X",
"$X$Xw O + @ @ @ @ @ @ @ @ @ & $X$X$X$X$X$X$X$X$X$X$X$X$X$X$X$X$X$X$X$X$X$X$X$X$X",
"$X$Xw   . . . . . . . . .   o $X$X$X$X$X$X$X$X$X$X$X$X$X$X$X$X$X$X$X$X$X$X$X$X$X",
"$X$X$X$X$X$X$X$X$X$X$X$X$X$X$X$X$X$X$X$X$X$X$X$X$X$X$X$X$X$X$X$X$X$X$X$X$X$X$X$X",
"$X$X$X$X$X$X$X$X$X$X$X$X$X$X$X$X$X$X$X$X$X$X$X$X$X$X$X$X$X$X$X$X$X$X$X$X$X$X$X$X",
"$X$X$X$X$X$X$X$X$X$X$X$X$X$X$X$X$X$X$X$X$X$X$X$X$X$X$X$X$X$X$X$X$X$X$X$X$X$X$X$X",
"$X$X$X$X$X$X$X$X$X$X$X$X$X$X$X$X$X$X$X$X$X$X$X$X$X$X$X$X$X$X$X$X$X$X$X$X$X$X$X$X",
"$X$X$X$X$X$X$X$X$X$X$X$X$X$X$X$X$X$X$X$X$X$X$X$X$X$X$X$X$X$X$X$X$X$X$X$X$X$X$X$X",
"$X$X$X$X$X$X$X$X$X$X$X$X$X$X$X$X$X$X$X$X$X$X$X$X$X$X$X$X$X$X$X$X$X$X$X$X$X$X$X$X",
"$X$X$X$X$X$X$X$X$X$X$X$X$X$X$X$X$X$X$X$X$X$X$X$X$X$X$X$X$X$X$X$X$X$X$X$X$X$X$X$X",
"$X$X$X$X$X$X$X$X$X$X$X$X$X$X$X$X$X$X$X$X$X$X$X$X$X$X$X$X$X$X$X$X$X$X$X$X$X$X$X$X",
"$X$X$X$X$X$X$X$X$X$X$X$X$X$X$X$X$X$X$X$X$X$X$X$X$X$X$X$X$X$X$X$X$X$X$X$X$X$X$X$X",
"$X$X$X$X$X$X$X$X$X$X$X$X$X$X$X$X$X$X$X$X$X$X$X$X$X$X$X$X$X$X$X$X$X$X$X$X$X$X$X$X"
};
