/* XPM */
static char *result[] = {
/* columns rows colors chars-per-pixel */
"40 40 163 2 ",
"   c #00000C",
".  c #030214",
"X  c #0B0417",
"o  c #050318",
"O  c #0D031A",
"+  c #0B0C1E",
"@  c #13061A",
"#  c #1B0D1C",
"$  c #110A1D",
"%  c #1C111D",
"&  c #230F1E",
"*  c #25141F",
"=  c #0F1321",
"-  c #181427",
";  c #261823",
":  c #600C03",
">  c #782D1B",
",  c #430F2C",
"<  c #44122C",
"1  c #48162E",
"2  c #4B1931",
"3  c #6F0A35",
"4  c #7D0E3B",
"5  c #730738",
"6  c #7E153D",
"7  c #7D1A3A",
"8  c #792029",
"9  c #2F2F42",
"0  c #2F3043",
"q  c #323245",
"w  c #7B1A41",
"e  c #771A43",
"r  c #7B2143",
"t  c #62384E",
"y  c #663A56",
"u  c #6C3A54",
"i  c #BD3413",
"p  c #B63311",
"a  c #810F39",
"s  c #811D37",
"d  c #8A1C37",
"f  c #83163A",
"g  c #831D3C",
"h  c #871336",
"j  c #81362D",
"k  c #8F2837",
"l  c #82233E",
"z  c #8B283B",
"x  c #922338",
"c  c #8A343D",
"v  c #AC2C24",
"b  c #A62C27",
"n  c #AC3126",
"m  c #CC2A00",
"M  c #CA2C0B",
"N  c #D72200",
"B  c #D22D04",
"V  c #C4350F",
"C  c #CC330D",
"Z  c #D73506",
"A  c #DB3504",
"S  c #D2340B",
"D  c #D33C0C",
"F  c #D8350D",
"G  c #C62E11",
"H  c #C23610",
"J  c #C53B13",
"K  c #CA3D14",
"L  c #C23A18",
"P  c #CD3311",
"I  c #D03F10",
"U  c #8F493F",
"Y  c #92493D",
"T  c #B64F29",
"R  c #B6542C",
"E  c #BA592C",
"W  c #BB5C32",
"Q  c #B45630",
"!  c #DD410C",
"~  c #CC4117",
"^  c #D34312",
"/  c #D44B15",
"(  c #D05F17",
")  c #DD6516",
"_  c #DA6118",
"`  c #DF6818",
"'  c #E26917",
"]  c #D44F22",
"[  c #E27727",
"{  c #891E43",
"}  c #861744",
"|  c #882848",
" . c #8B2842",
".. c #93384A",
"X. c #8D4B41",
"o. c #924A41",
"O. c #BF7A4E",
"+. c #BD7A51",
"@. c #C27B4C",
"#. c #DF881F",
"$. c #F08F0D",
"%. c #EC8D1D",
"&. c #EA8914",
"*. c #EE931E",
"=. c #F49516",
"-. c #F69917",
";. c #FA9B13",
":. c #F4951B",
">. c #F59B1B",
",. c #E48B21",
"<. c #E48420",
"1. c #ED9423",
"2. c #EE992E",
"3. c #EE9528",
"4. c #F39B20",
"5. c #F59F2B",
"6. c #E38537",
"7. c #E88C36",
"8. c #EF9B30",
"9. c #F3A122",
"0. c #F5B43D",
"q. c #FABA3F",
"w. c #C4804D",
"e. c #DB9847",
"r. c #E6925F",
"t. c #F2B140",
"y. c #F6BE67",
"u. c #FAC043",
"i. c #EFCC5C",
"p. c #F6CC5C",
"a. c #FBCD5A",
"s. c #F8C955",
"d. c #FCD35C",
"f. c #FED659",
"g. c #FFE85F",
"h. c #FFE458",
"j. c #FCD465",
"k. c #FFDF63",
"l. c #F7D363",
"z. c #FFE464",
"x. c #FFEA66",
"c. c #FFEF68",
"v. c #FFE56A",
"b. c #FFF36C",
"n. c #FFEC70",
"m. c #7F828F",
"M. c #8B8389",
"N. c #B78F89",
"B. c #E89A86",
"V. c #E8A089",
"C. c #F2C088",
"Z. c #F8CC97",
"A. c #F7DEA7",
"S. c #FDE6AC",
"D. c #FFFABC",
"F. c #F9EAE2",
"G. c #FEF4E5",
"H. c #FEF6EF",
"J. c #FEF7F3",
"K. c #F7F4FF",
"L. c white",
"P. c #FCF5FE",
"I. c None",
/* pixels */
"I.I.I.I.I.I.I.I.I.I.I.I.I.I.I.I.I.I.I.I.I.I.I.I.I.I.I.I.I.I.I.I.I.I.I.I.I.I.I.I.",
"I.I.I.I.I.I.I.I.I.I.I.I.I.I.I.I.I.I.I.I.I.I.I.I.I.I.I.I.I.I.I.I.I.I.I.I.I.I.I.I.",
"I.I.I.I.I.I.I.I.I.I.I.I.I.I.I.I.I.I.I.I.I.I.I.I.I.I.I.I.I.I.I.I.I.I.I.I.I.I.I.I.",
"I.I.I.I.I.I.I.I.I.I.I.I.I.I.I.I.I.I.I.I.I.I.I.I.I.I.I.I.I.I.I.I.I.I.I.I.I.I.I.I.",
"I.I.I.I.I.I.I.I.I.I.I.I.I.I.I.I.I.I.I.I.I.I.I.I.I.I.I.I.I.I.I.I.I.I.I.I.I.I.I.I.",
"I.I.I.I.I.I.I.I.I.I.I.I.I.I.I.I.I.I.I.I.I.I.I.I.I.I.I.I.I.I.I.I.I.I.I.I.I.I.I.I.",
"I.I.I.I.I.I.I.I.I.I.I.I.I.I.I.I.I.I.I.I.I.I.I.I.I.I.I.I.I.I.I.I.I.I.I.I.I.I.I.I.",
"I.I.I.I.I.I.I.I.I.I.I.I.I.I.I.I.I.I.I.I.I.I.I.I.I.I.I.I.I.I.I.I.I.I.I.I.I.I.I.I.",
"I.I.I.I.I.I.I.I.I.I.I.I.I.I.I.I.I.I.I.I.I.I.I.I.I.I.I.I.I.I.I.I.I.I.I.I.I.I.I.I.",
"I.I.I.I.I.I.I.I.I.I.I.I.I.I.I.I.I.I.I.I.I.I.I.I.I.I.I.I.I.I.I.I.I.I.I.I.I.I.I.I.",
"I.I.I.I.I.t g l L K J K L l l I.I.I.I.I.I.I.I.I.I.I.I.I.I.I.I.I.I.I.I.I.I.I.I.I.",
"I.I.I.I.I.y f g M B m B m f 4 u I.I.I.I.I.I.I.I.I.I.I.I.I.I.I.I.I.I.I.I.I.I.I.I.",
"I.I.I.t y c v n 6.7.r.V.B.W E Y y I.I.I.I.u I.o.Y Y Y X.I.I.I.I.I.I.I.I.I.I.I.I.",
"I.I.I.7 f v Z ^ f.h.D.L.L.5.;.E a g I.I.I.f d S A Z A D I.I.I.I.I.I.I.I.I.I.I.I.",
"I.I.I. .7 n D ^ l.k.S.P.F.8.>.E 7 7 I.I.I.d d K ^ K C L I.I.I.I.I.I.I.I.I.I.I.I.",
"I.I.I.l 6 R =.3.G.L.B.C ] s.z.@.6 g  .r b S ~ s.g.@.h l I.I.I.I.I.I.I.I.I.I.I.I.",
"I.I.I.7 6 E -.2.J.L.B.N ! d.b.+.5 6 g 7 v S ^ d.c.O.5 e I.I.I.I.I.I.I.I.I.I.I.I.",
"I.I.I. .6 Q =.2.H.L.N.: > p.x.e.R Q z w v S ~ f.x.e.T Q I.u I.I.I.I.I.I.I.I.I.I.",
"I.I.I.l 6 E -.2.J.L.m.  = i.z.t.-.1.z e b S ^ p.v.q.-.%.x h I.I.I.I.I.I.I.I.I.I.",
"I.I.I.l f Q -.2.G.L.M.  ; i.v.0.%.,.k 7 v D / a.k.0.%.%.l 6 I.I.I.I.I.I.I.I.I.I.",
"I.I.I. .6 Q >.1.j.c.+.3 z l.z.t.%.%.K G _ 1.%.1.1.1.1.#.* O q I.I.I.I.I.I.I.I.I.",
"I.I.I.r 6 E :.1.f.g.@.4 z s.h.0.%.%.I S ' 4.4.*.:.1.>.%.% . q I.I.I.I.I.I.I.I.I.",
"I.I.I.l 6 E >.4.f.x.@.5  .A.D.i.&.%.I P / ' ` ` ` ) ' ( % o q I.I.I.I.I.I.I.I.I.",
"I.I.I.l 6 Q >.3.d.x.@.5 | K.L.Z.$.%.D F D S P S S S F V # o q I.I.I.I.I.I.I.I.I.",
"I.I.I.l 6 Q :.,.a.g.@.f ..F.L.C.&.%.H V H H H H H H H p # o q I.I.I.I.I.I.I.I.I.",
"I.I.I. .7 n D ^ 1.1.0.l.p.2.8.W s l & # # # # # # # # # $ X q I.I.I.I.I.I.I.I.I.",
"I.I.I. .{ v A ^ 1.%.u.b.z.>.;.] } 6 X o o o o o o o o o O . q I.I.I.I.I.I.I.I.I.",
"I.I.I.2 < 8 v v _ ' [ 7.6.E E j , 1 q q q q q q q q q q q 9 I.I.I.I.I.I.I.I.I.I.",
"I.I.I.+ . <  .d C Z S B M f } , . + I.I.I.I.I.I.I.I.I.I.I.I.I.I.I.I.I.I.I.I.I.I.",
"I.I.I.- + 1 g g i V H H H l g 1 + - I.I.I.I.I.I.I.I.I.I.I.I.I.I.I.I.I.I.I.I.I.I.",
"I.I.I.I.I.9 @ # # # # # # # @ 9 I.I.I.I.I.I.I.I.I.I.I.I.I.I.I.I.I.I.I.I.I.I.I.I.",
"I.I.I.I.I.9 . o o o o o o o . 0 I.I.I.I.I.I.I.I.I.I.I.I.I.I.I.I.I.I.I.I.I.I.I.I.",
"I.I.I.I.I.I.9 q q q q q q q 0 I.I.I.I.I.I.I.I.I.I.I.I.I.I.I.I.I.I.I.I.I.I.I.I.I.",
"I.I.I.I.I.I.I.I.I.I.I.I.I.I.I.I.I.I.I.I.I.I.I.I.I.I.I.I.I.I.I.I.I.I.I.I.I.I.I.I.",
"I.I.I.I.I.I.I.I.I.I.I.I.I.I.I.I.I.I.I.I.I.I.I.I.I.I.I.I.I.I.I.I.I.I.I.I.I.I.I.I.",
"I.I.I.I.I.I.I.I.I.I.I.I.I.I.I.I.I.I.I.I.I.I.I.I.I.I.I.I.I.I.I.I.I.I.I.I.I.I.I.I.",
"I.I.I.I.I.I.I.I.I.I.I.I.I.I.I.I.I.I.I.I.I.I.I.I.I.I.I.I.I.I.I.I.I.I.I.I.I.I.I.I.",
"I.I.I.I.I.I.I.I.I.I.I.I.I.I.I.I.I.I.I.I.I.I.I.I.I.I.I.I.I.I.I.I.I.I.I.I.I.I.I.I.",
"I.I.I.I.I.I.I.I.I.I.I.I.I.I.I.I.I.I.I.I.I.I.I.I.I.I.I.I.I.I.I.I.I.I.I.I.I.I.I.I.",
"I.I.I.I.I.I.I.I.I.I.I.I.I.I.I.I.I.I.I.I.I.I.I.I.I.I.I.I.I.I.I.I.I.I.I.I.I.I.I.I."
};
