/* XPM */
static char *result[] = {
/* columns rows colors chars-per-pixel */
"40 40 168 2 ",
"   c #040115",
".  c #040319",
"X  c #0A051A",
"o  c #0C091C",
"O  c #160A1D",
"+  c #1B0D1C",
"@  c #1E131D",
"#  c #230F1E",
"$  c #28101B",
"%  c #030420",
"&  c #0F1321",
"*  c #1D1522",
"=  c #3D0729",
"-  c #261823",
";  c #211E31",
":  c #600E0E",
">  c #690018",
",  c #6E0014",
"<  c #782D1B",
"1  c #4B1931",
"2  c #790C2A",
"3  c #6F0A36",
"4  c #770A37",
"5  c #7B153E",
"6  c #761D38",
"7  c #7B1C3E",
"8  c #7C1637",
"9  c #7C4B19",
"0  c #7A4C20",
"q  c #7E6F3F",
"w  c #2E2F43",
"e  c #323245",
"r  c #343548",
"t  c #7E1644",
"y  c #7E2241",
"u  c #6E3A53",
"i  c #BF3D1B",
"p  c #82102A",
"a  c #841334",
"s  c #831934",
"d  c #84163A",
"f  c #841C3B",
"g  c #891837",
"h  c #9F2A25",
"j  c #8F2837",
"k  c #84243C",
"l  c #8B263A",
"z  c #8E2C3F",
"x  c #852A3C",
"c  c #9D3B32",
"v  c #AA2926",
"b  c #A82324",
"n  c #AC3025",
"m  c #C62104",
"M  c #CC2E0A",
"N  c #D02C01",
"B  c #D42B06",
"V  c #CC350E",
"C  c #C7380D",
"Z  c #CE390F",
"A  c #C1330F",
"S  c #D43203",
"D  c #DA3503",
"F  c #D2330B",
"G  c #D8360A",
"H  c #D63C0B",
"J  c #C33610",
"K  c #C53B13",
"L  c #CA3B13",
"P  c #C23A18",
"I  c #CD3E18",
"U  c #E33400",
"Y  c #8F493F",
"T  c #92473B",
"R  c #93493D",
"E  c #AE532C",
"W  c #BA572D",
"Q  c #8B723F",
"!  c #A06536",
"~  c #B67D3B",
"^  c #C3481E",
"/  c #D1461E",
"(  c #D64615",
")  c #DD5E11",
"_  c #DE6516",
"`  c #DC6519",
"'  c #E16815",
"]  c #E06616",
"[  c #CD4421",
"{  c #D24720",
"}  c #CF7032",
"|  c #801D45",
" . c #812048",
".. c #8B2844",
"X. c #902F46",
"o. c #88304A",
"O. c #933640",
"+. c #8D4B41",
"@. c #924E42",
"#. c #BE7B4E",
"$. c #BF7745",
"%. c #C27C4D",
"&. c #F2900B",
"*. c #EC8C1C",
"=. c #E98B15",
"-. c #EE921D",
";. c #F3951D",
":. c #FF9718",
">. c #F59719",
",. c #E28422",
"<. c #E48C22",
"1. c #E98D20",
"2. c #EC9222",
"3. c #EF9927",
"4. c #F09B23",
"5. c #E58534",
"6. c #E78C3A",
"7. c #EB8C38",
"8. c #EE9F3B",
"9. c #F5B33D",
"0. c #C4804D",
"q. c #C58254",
"w. c #E6925F",
"e. c #F4B444",
"r. c #C18575",
"t. c #F6BE67",
"y. c #FEC241",
"u. c #EEC758",
"i. c #EFCC5C",
"p. c #FACC57",
"a. c #F6CC5C",
"s. c #FCD35D",
"d. c #FFD854",
"f. c #FFE35B",
"g. c #FFE251",
"h. c #F6CF60",
"j. c #FCD363",
"k. c #FFDC61",
"l. c #FEDB69",
"z. c #F7D364",
"x. c #FFE463",
"c. c #FFED66",
"v. c #FFE669",
"b. c #FFED69",
"n. c #FFF067",
"m. c #FFF46E",
"M. c #FFEC74",
"N. c #BD8B9B",
"B. c #BE8A96",
"V. c #C28B98",
"C. c #C5929E",
"Z. c #E69B85",
"A. c #E69C8A",
"S. c #EFBC89",
"D. c #C192A7",
"F. c #FACE96",
"G. c #FBE5AB",
"H. c #FFFDB7",
"J. c #FFF9BC",
"K. c #EDE6E8",
"L. c #F8E9E3",
"P. c #FCF0EE",
"I. c #FFF9E9",
"U. c #F7EFF0",
"Y. c #F9F7FF",
"T. c #FFFFFF",
"R. c #F9F1F7",
"E. c None",
/* pixels */
"E.E.E.E.E.E.E.E.E.E.E.E.E.E.E.E.E.E.E.E.E.E.E.E.E.E.E.E.E.E.E.E.E.E.E.E.E.E.E.E.",
"E.E.E.E.E.E.E.E.E.E.E.E.E.E.E.E.E.E.E.E.E.E.E.E.E.E.E.E.E.E.E.E.E.E.E.E.E.E.E.E.",
"E.E.E.E.E.E.E.E.E.E.E.E.E.E.E.E.E.E.E.E.E.E.E.E.E.E.E.E.E.E.E.E.E.E.E.E.E.E.E.E.",
"E.E.E.E.E.E.E.E.E.E.E.E.E.E.E.E.E.E.E.E.E.E.E.E.E.E.E.E.E.E.E.E.E.E.E.E.E.E.E.E.",
"E.E.E.E.E.E.E.E.E.E.E.E.E.E.E.E.E.E.E.E.E.E.E.E.E.E.E.E.E.E.E.E.E.E.E.E.E.E.E.E.",
"E.E.E.E.E.E.E.E.E.E.E.E.E.E.E.E.E.E.E.E.E.E.E.E.E.E.E.E.E.E.E.E.E.E.E.E.E.E.E.E.",
"E.E.E.E.E.E.E.E.E.E.E.E.E.E.E.E.E.E.E.E.E.E.E.E.E.E.E.E.E.E.E.E.E.E.E.E.E.E.E.E.",
"E.E.E.E.E.E.E.E.E.E.E.E.E.E.E.E.E.E.E.E.E.E.E.E.E.E.E.E.E.E.E.E.E.E.E.E.E.E.E.E.",
"E.E.E.E.E.E.E.E.E.E.E.E.E.E.E.E.E.E.E.E.E.E.E.E.E.E.E.E.E.E.E.E.E.E.E.E.E.E.E.E.",
"E.E.E.E.E.E.E.E.E.E.E.E.E.E.E.E.E.E.E.E.E.E.E.E.E.E.E.E.E.E.E.E.E.E.E.E.E.E.E.E.",
"E.E.E.E.E.E.E.E.E.E.E.E.E.E.E.E.E.E.E.i L K K P k | 1 . * E.E.E.E.E.E.E.E.E.E.E.",
"E.E.E.E.E.E.E.E.E.E.E.E.E.E.E.E.E.E.E.V F F F M d d 1   % E.E.E.E.E.E.E.E.E.E.E.",
"E.E.E.E.E.E.E.R R R R R R +.E.E.E.R R ` ' _ _ ` %.q.! 9 0 e w E.E.E.E.E.E.E.E.E.",
"E.E.E.E.E.E.T U D D N D U Z E.E.R U H *.4.-.-.4.f.m.y.:.1.+   e E.E.E.E.E.E.E.E.",
"E.E.E.E.E.E.@.F L / [ L V P E.E.R F I *.-.2.2.3.p.j.9.;.<.@   e E.E.E.E.E.E.E.E.",
"E.E.E.E.K.T.B.2 X.L.T.V.p k E.E.E.g j 1.-.9.x.s.( C 6.x.u.@   e E.E.E.E.E.E.E.E.",
"E.E.E.E.T.T.D.> f Y.T.D.2 y E.E.E.5 k 1.;.9.v.s.( B 7.b.i.*   e E.E.E.E.E.E.E.E.",
"E.E.E.E.N.C.V.B.D.G.H.r.4 k R @.c v v ` _ 8.v.a.< : ~ b.i.*   e E.E.E.E.E.E.E.E.",
"E.E.E.E.2 , V.T.T.s.g.$.4 s N D S S F V m 5.v.i.O   q n.i.@   e E.E.E.E.E.E.E.E.",
"E.E.E.E.o.f C.T.I.v.f.q. .X.[ / / / / ( Z 6.v.i.-   Q n.i.*   e E.E.E.E.E.E.E.E.",
"E.E.s o.K.Y.G.s.l.k.d.G.R.U.U.P.U.U.L.j.p.s.x.a.x 3 #.c.i.*   e E.E.E.E.E.E.E.E.",
"E.E.a X.T.Y.J.d.s.c.f.J.T.T.T.T.T.T.T.M.c.x.k.a.X.4 #.c.i.-   e E.E.E.E.E.E.E.E.",
"E.E.a ..S.F.t.9.9.7.5.w.A.Z.Z.Z.Z.Z.Z.6.5.e.v.h.z 4 0.n.i.*   e E.E.E.E.E.E.E.E.",
"E.E.d l =.&.&.;.*.F M N N N N N N N N M m 5.v.h.k 3 0.n.i.@   e E.E.E.E.E.E.E.E.",
"E.E.d l ,.1.<.1.*.J i A A J A A J J J L V 5.c.p.z f 0.f.i.@   e E.E.E.E.E.E.E.E.",
"E.E.g k k l l l k # O + + + + # + + $ J V _ 3.3.a.z.e.;.<.@   e E.E.E.E.E.E.E.E.",
"E.u g g d d g g 8 X . .         . . O C D ' ;.3.x.m.y.:.=.@ . e E.E.E.E.E.E.E.E.",
"E.E.u E.E.E.E.E.E.e e e e e r r ; o + h v ^ ' ` 5.7.} W E + . e E.E.E.E.E.E.E.E.",
"E.E.E.E.E.E.E.E.E.E.E.E.E.E.E.E.r   O 7 | v D F V S b t t O   e E.E.E.E.E.E.E.E.",
"E.E.E.E.E.E.E.E.E.E.E.E.E.E.E.E.r o * 6 7 h C J A C h t 6 & o r E.E.E.E.E.E.E.E.",
"E.E.E.E.E.E.E.E.E.E.E.E.E.E.E.E.E.E.E.* O + + + + + + O * E.E.E.E.E.E.E.E.E.E.E.",
"E.E.E.E.E.E.E.E.E.E.E.E.E.E.E.E.E.E.E.X   X .   X       o E.E.E.E.E.E.E.E.E.E.E.",
"E.E.E.E.E.E.E.E.E.E.E.E.E.E.E.E.E.E.E.r e e e e e e e e r E.E.E.E.E.E.E.E.E.E.E.",
"E.E.E.E.E.E.E.E.E.E.E.E.E.E.E.E.E.E.E.E.E.E.E.E.E.E.E.E.E.E.E.E.E.E.E.E.E.E.E.E.",
"E.E.E.E.E.E.E.E.E.E.E.E.E.E.E.E.E.E.E.E.E.E.E.E.E.E.E.E.E.E.E.E.E.E.E.E.E.E.E.E.",
"E.E.E.E.E.E.E.E.E.E.E.E.E.E.E.E.E.E.E.E.E.E.E.E.E.E.E.E.E.E.E.E.E.E.E.E.E.E.E.E.",
"E.E.E.E.E.E.E.E.E.E.E.E.E.E.E.E.E.E.E.E.E.E.E.E.E.E.E.E.E.E.E.E.E.E.E.E.E.E.E.E.",
"E.E.E.E.E.E.E.E.E.E.E.E.E.E.E.E.E.E.E.E.E.E.E.E.E.E.E.E.E.E.E.E.E.E.E.E.E.E.E.E.",
"E.E.E.E.E.E.E.E.E.E.E.E.E.E.E.E.E.E.E.E.E.E.E.E.E.E.E.E.E.E.E.E.E.E.E.E.E.E.E.E.",
"E.E.E.E.E.E.E.E.E.E.E.E.E.E.E.E.E.E.E.E.E.E.E.E.E.E.E.E.E.E.E.E.E.E.E.E.E.E.E.E."
};
