/* XPM */
static char *result[] = {
/* columns rows colors chars-per-pixel */
"40 40 157 2 ",
"   c #00000E",
".  c #020014",
"X  c #0A0115",
"o  c #03021A",
"O  c #0C051A",
"+  c #0A081D",
"@  c #180817",
"#  c #140C1D",
"$  c #1B0C1B",
"%  c #170D16",
"&  c #1E121D",
"*  c #25141F",
"=  c #3F1619",
"-  c #0E0E22",
";  c #060A21",
":  c #140F22",
">  c #1D1423",
",  c #171829",
"<  c #1E1A2B",
"1  c #370022",
"2  c #261823",
"3  c #261B2D",
"4  c #6B2319",
"5  c #742316",
"6  c #782314",
"7  c #430F2C",
"8  c #48162E",
"9  c #710024",
"0  c #7C042F",
"q  c #6F0931",
"w  c #75133D",
"e  c #7A123D",
"r  c #7F183F",
"t  c #7C1537",
"y  c #56233A",
"u  c #77491E",
"i  c #2D2F43",
"p  c #2F3043",
"a  c #323245",
"s  c #343548",
"d  c #3B3443",
"f  c #791140",
"g  c #7C1D41",
"h  c #7E2642",
"j  c #7E4349",
"k  c #A61F1C",
"l  c #B73311",
"z  c #BF3D1B",
"x  c #841739",
"c  c #841B3B",
"v  c #8B1D3A",
"b  c #81362D",
"n  c #85243C",
"m  c #8B263A",
"M  c #852A3C",
"N  c #8D2B3E",
"B  c #A82A25",
"V  c #AD3225",
"C  c #D21F00",
"Z  c #C42A00",
"A  c #CE2C04",
"S  c #C52E0C",
"D  c #CE2D0B",
"F  c #D32B02",
"G  c #DF2E00",
"H  c #C0300F",
"J  c #C9320F",
"K  c #CF390F",
"L  c #D63307",
"P  c #D7350A",
"I  c #DB3908",
"U  c #C33612",
"Y  c #C63B15",
"T  c #CB3C12",
"R  c #D03F10",
"E  c #E13E0D",
"W  c #81531C",
"Q  c #934A3D",
"!  c #93463B",
"~  c #B14229",
"^  c #B0562F",
"/  c #B9592D",
"(  c #B95426",
")  c #86713E",
"_  c #8B723F",
"`  c #D8410E",
"'  c #D14314",
"]  c #D05F17",
"[  c #F2420D",
"{  c #DF600D",
"}  c #D86019",
"|  c #EA6D14",
" . c #C05D2E",
".. c #801A41",
"X. c #852C46",
"o. c #902845",
"O. c #933A53",
"+. c #A47746",
"@. c #BD7B4D",
"#. c #C27A4C",
"$. c #CF795A",
"%. c #DF881F",
"&. c #EF8D0E",
"*. c #F08F06",
"=. c #F6930C",
"-. c #E98B1D",
";. c #E58E1B",
":. c #EE921F",
">. c #EE9115",
",. c #FC9E1D",
"<. c #F39419",
"1. c #FFA91D",
"2. c #FEA51E",
"3. c #D88136",
"4. c #E58B21",
"5. c #EA9022",
"6. c #E7902E",
"7. c #E68936",
"8. c #EC8C34",
"9. c #E08538",
"0. c #E68A3D",
"q. c #C48152",
"w. c #EA9652",
"e. c #D48B6A",
"r. c #D9927F",
"t. c #EFCC5C",
"y. c #F6CD5E",
"u. c #FACA57",
"i. c #FED95D",
"p. c #FFE45D",
"a. c #F7CF60",
"s. c #F2D761",
"d. c #FEDA64",
"f. c #FEDD73",
"g. c #FFEE66",
"h. c #FFE76C",
"j. c #FFE968",
"k. c #FFFB6C",
"l. c #BD8CA4",
"z. c #C5929C",
"x. c #E69A81",
"c. c #EAA08F",
"v. c #F0A28D",
"b. c #F6C68E",
"n. c #F6C88B",
"m. c #F8CE97",
"M. c #F9D096",
"N. c #FDD598",
"B. c #EFE7E1",
"V. c #EFEDEF",
"C. c #F0EDEF",
"Z. c #F8EDE8",
"A. c #F6EFF2",
"S. c #F8F6FF",
"D. c #F3FEFF",
"F. c white",
"G. c None",
/* pixels */
"G.G.G.G.G.G.G.G.G.G.G.G.G.G.G.G.G.G.G.G.G.G.G.G.G.G.G.G.G.G.G.G.G.G.G.G.G.G.G.G.",
"G.G.G.G.G.G.G.G.G.G.G.G.G.G.G.G.G.G.G.G.G.G.G.G.G.G.G.G.G.G.G.G.G.G.G.G.G.G.G.G.",
"G.G.G.G.G.G.G.G.G.G.G.G.G.G.G.G.G.G.G.G.G.G.G.G.G.G.G.G.G.G.G.G.G.G.G.G.G.G.G.G.",
"G.G.G.G.G.G.G.G.G.G.G.G.G.G.G.G.G.G.G.G.G.G.G.G.G.G.G.G.G.G.G.G.G.G.G.G.G.G.G.G.",
"G.G.G.G.G.G.G.G.G.G.G.G.G.G.G.G.G.G.G.G.G.G.G.G.G.G.G.G.G.G.G.G.G.G.G.G.G.G.G.G.",
"G.G.G.G.G.G.G.G.G.G.G.G.G.G.G.G.G.G.G.G.G.G.G.G.G.G.G.G.G.G.G.G.G.G.G.G.G.G.G.G.",
"G.G.G.G.G.G.G.G.G.G.G.G.G.G.G.G.G.G.G.G.G.G.G.G.G.G.G.G.G.G.G.G.G.G.G.G.G.G.G.G.",
"G.G.G.G.G.G.G.G.G.G.G.G.G.G.G.G.G.G.G.G.G.G.G.G.G.G.G.G.G.G.G.G.G.G.G.G.G.G.G.G.",
"G.G.G.G.G.G.G.G.G.G.G.G.G.G.G.G.G.G.G.G.G.G.G.G.G.G.G.G.G.G.G.G.G.G.G.G.G.G.G.G.",
"G.G.G.G.G.G.G.G.G.G.G.G.G.G.G.G.G.G.G.G.G.G.G.G.G.G.G.G.G.G.G.G.G.G.G.G.G.G.G.G.",
"G.G.G.G.G.G.G.G.G.G.G.G.z T Y U Y Y Y B h h G.G.G.G.G.G.G.G.G.G.G.G.G.G.G.G.G.G.",
"G.G.G.G.G.G.G.G.G.G.G.G.S F F A A A F k f r G.G.G.G.G.G.G.G.G.G.G.G.G.G.G.G.G.G.",
"G.G.G.G.G.G.G.G.G.G.! ! 9.8.7.7.0.x.c.$.( ^ d i G.G.G.G.G.G.G.G.G.G.G.G.G.G.G.G.",
"G.G.G.G.G.G.G.G.G.! E ` d.j.j.p.j.F.F.N.=.;.%   p G.G.G.G.G.G.G.G.G.G.G.G.G.G.G.",
"G.G.G.G.G.G.G.G.G.Q L ' u.i.d.d.f.Z.S.b.>.4.2 O a G.G.G.G.G.G.G.G.G.G.G.G.G.G.G.",
"G.G.G.G.G.G.G.G.G.Q L T 5.>.n.F.Z.O...#.p.y.n x 8 - : : # s G.G.G.G.G.G.G.G.G.G.",
"G.G.G.G.G.G.G.G.G.Q E R -.&.b.F.A.o.0 #.g.a.N v 7 o o O X a G.G.G.G.G.G.G.G.G.G.",
"G.G.G.G.G.G.G.G.G.X.k V -.&.b.F.A.y 1 +.g.a.N r b W u # X a G.G.G.G.G.G.G.G.G.G.",
"G.G.G.G.G.G.G.G.G.G.e m 4.&.b.F.V., . ) g.y.m e  .2.:.& o a G.G.G.G.G.G.G.G.G.G.",
"G.G.G.G.G.G.G.G.G.G.x m 4.&.b.F.V.< . ) g.y.N e / ,.%.& . a G.G.G.G.G.G.G.G.G.G.",
"G.G.G.G.G.G.G.G.G.G.n m 4.&.b.F.V.< . ) g.y.N w / 2.4.& o a G.G.G.G.G.G.G.G.G.G.",
"G.G.G.G.G.G.G.G.G.G.c m 4.&.b.F.C.< . ) g.y.N w / 2.%.& . a G.G.G.G.G.G.G.G.G.G.",
"G.G.G.G.G.G.G.G.G.G.x m 4.&.b.F.C.<   ) g.y.N r ~ | ] $ o a G.G.G.G.G.G.G.G.G.G.",
"G.G.G.G.G.G.G.G.G.G.x m 4.&.b.F.C.<   ) g.y.N r B P U $ X a G.G.G.G.G.G.G.G.G.G.",
"G.G.G.G.G.G.G.G.G.G.x m 4.&.b.F.V.3 . _ g.a.M w B I U $ o a G.G.G.G.G.G.G.G.G.G.",
"G.G.G.G.G.G.G.G.G.G.x m 4.&.b.F.A.X.q @.g.t.2 o 5 I U $ o s G.G.G.G.G.G.G.G.G.G.",
"G.G.G.G.G.G.G.G.G.G.x m 5.=.m.F.S.n 9 #.k.s.> o 5 [ T @ . a G.G.G.G.G.G.G.G.G.G.",
"G.G.G.G.G.G.G.G.G.G.x m } { w.M.b.z.l.e.8.3.> o = 6 4 d p G.G.G.G.G.G.G.G.G.G.G.",
"G.G.G.G.G.G.G.G.G.G.c m J D { *.:.F.F.v.C S @ o o o ; G.G.G.G.G.G.G.G.G.G.G.G.G.",
"G.G.G.G.G.G.G.G.G.G.c n J J ] -.6.B.D.r.Z l > : : # , G.G.G.G.G.G.G.G.G.G.G.G.G.",
"G.G.G.G.G.G.G.G.G.G.G.G.m v m m n 3 < > @ 2 G.G.G.G.G.G.G.G.G.G.G.G.G.G.G.G.G.G.",
"G.G.G.G.G.G.G.G.G.G.G.G.c c x v t X   . . + G.G.G.G.G.G.G.G.G.G.G.G.G.G.G.G.G.G.",
"G.G.G.G.G.G.G.G.G.G.G.G.G.G.G.G.G.s a a a s G.G.G.G.G.G.G.G.G.G.G.G.G.G.G.G.G.G.",
"G.G.G.G.G.G.G.G.G.G.G.G.G.G.G.G.G.G.G.G.G.G.G.G.G.G.G.G.G.G.G.G.G.G.G.G.G.G.G.G.",
"G.G.G.G.G.G.G.G.G.G.G.G.G.G.G.G.G.G.G.G.G.G.G.G.G.G.G.G.G.G.G.G.G.G.G.G.G.G.G.G.",
"G.G.G.G.G.G.G.G.G.G.G.G.G.G.G.G.G.G.G.G.G.G.G.G.G.G.G.G.G.G.G.G.G.G.G.G.G.G.G.G.",
"G.G.G.G.G.G.G.G.G.G.G.G.G.G.G.G.G.G.G.G.G.G.G.G.G.G.G.G.G.G.G.G.G.G.G.G.G.G.G.G.",
"G.G.G.G.G.G.G.G.G.G.G.G.G.G.G.G.G.G.G.G.G.G.G.G.G.G.G.G.G.G.G.G.G.G.G.G.G.G.G.G.",
"G.G.G.G.G.G.G.G.G.G.G.G.G.G.G.G.G.G.G.G.G.G.G.G.G.G.G.G.G.G.G.G.G.G.G.G.G.G.G.G.",
"G.G.G.G.G.G.G.G.G.G.G.G.G.G.G.G.G.G.G.G.G.G.G.G.G.G.G.G.G.G.G.G.G.G.G.G.G.G.G.G."
};
