/* XPM */
static char *_c831e244206484eb57f56ded282b239TRsYIdlCR49vArqn[] = {
/* columns rows colors chars-per-pixel */
"40 40 243 2 ",
"   c None",
".  c black",
"X  c #000001",
"o  c #010101",
"O  c #020202",
"+  c gray1",
"@  c #030304",
"#  c gray2",
"$  c #050506",
"%  c #060606",
"&  c #060607",
"*  c #070707",
"=  c #070708",
"-  c #070808",
";  c gray3",
":  c #080809",
">  c #090909",
",  c #09090A",
"<  c gray4",
"1  c #0A0A0B",
"2  c #0A0B0B",
"3  c #0B0B0B",
"4  c #0B0C0D",
"5  c #0D0D0E",
"6  c #0E0E0E",
"7  c #0E0F10",
"8  c #0F0F10",
"9  c #111112",
"0  c #111212",
"q  c #111213",
"w  c #121213",
"e  c #121314",
"r  c #131415",
"t  c #131416",
"y  c #141416",
"u  c #151516",
"i  c #19191B",
"p  c #1A1B1D",
"a  c #1B1C1C",
"s  c #1A1C1E",
"d  c #1E1E1E",
"f  c gray12",
"g  c #1E1F21",
"h  c #1F2023",
"j  c #1F2123",
"k  c #202020",
"l  c gray13",
"z  c #232223",
"x  c #232323",
"c  c #212224",
"v  c #212325",
"b  c #222324",
"n  c #222325",
"m  c #232426",
"M  c #232527",
"N  c #252525",
"B  c #262628",
"V  c #282828",
"C  c gray16",
"Z  c #2A2A2A",
"A  c #282B2D",
"S  c #2A2B2E",
"D  c #2C2D2D",
"F  c #2F2F2F",
"G  c #2C2E31",
"H  c gray19",
"J  c #323232",
"K  c #373737",
"L  c #333538",
"P  c #34363A",
"I  c #35373B",
"U  c #36373B",
"Y  c #37383A",
"T  c #3A3B3B",
"R  c #393B3F",
"E  c #3E3E3E",
"W  c #3B3D41",
"Q  c #3E4245",
"!  c #414447",
"~  c #43464B",
"^  c #43484E",
"/  c #47494C",
"(  c #44494F",
")  c #444A50",
"_  c #494A50",
"`  c #4B4E53",
"'  c #4D4F54",
"]  c #4E5055",
"[  c #555455",
"{  c #555555",
"}  c #51565D",
"|  c #575C63",
" . c #575D65",
".. c #5A5E64",
"X. c #5B6066",
"o. c #5A6067",
"O. c #5C6066",
"+. c #5C6167",
"@. c #596068",
"#. c #5B6168",
"$. c #5E636A",
"%. c #5E656D",
"&. c #5F666E",
"*. c #646464",
"=. c #61676F",
"-. c #65686F",
";. c #676971",
":. c #656A71",
">. c #666B72",
",. c #676C74",
"<. c #686971",
"1. c #686B70",
"2. c #686B72",
"3. c #696D73",
"4. c #6B6E76",
"5. c #70777E",
"6. c #74777D",
"7. c #767A7E",
"8. c gray49",
"9. c #747B83",
"0. c #757C83",
"q. c #777B84",
"w. c #757C84",
"e. c #757D84",
"r. c #777D85",
"t. c #777E87",
"y. c #787B84",
"u. c #7D8082",
"i. c #7A8087",
"p. c #7B818A",
"a. c #7F878F",
"s. c gray51",
"d. c #81858D",
"f. c #8D8D8F",
"g. c #838B94",
"h. c #838C94",
"j. c #848C94",
"k. c #848C95",
"l. c #888D96",
"z. c #878E98",
"x. c #888F99",
"c. c #89909A",
"v. c #8A919B",
"b. c #8D939C",
"n. c #8D929D",
"m. c #8D939E",
"M. c #8E939E",
"N. c #8F97A1",
"B. c #9196A2",
"V. c #9097A2",
"C. c #9198A0",
"Z. c #979CA0",
"A. c #949BA5",
"S. c #999EA3",
"D. c #999FAA",
"F. c #9EA3A8",
"G. c #9BA5AF",
"H. c #A8ABAE",
"J. c #A1A7B1",
"K. c #A1AAB5",
"L. c #A2AAB6",
"P. c #A3ADB8",
"I. c #A4ADB9",
"U. c #A4AEB9",
"Y. c #AAB0BB",
"T. c #ABB3BF",
"R. c #ACB0BC",
"E. c #ADB0BC",
"W. c #ACB2BD",
"Q. c #ADB6C2",
"!. c #B1B6C2",
"~. c #B1B7C2",
"^. c #B2B7C3",
"/. c #B2B7C4",
"(. c #B2B8C3",
"). c #B4BAC1",
"_. c #B6BCC3",
"`. c #B2B8C4",
"'. c #B3B9C4",
"]. c #B3B9C5",
"[. c #B2BCC9",
"{. c #B3BDC9",
"}. c #B7BDC9",
"|. c #B8BECA",
" X c #B9BECA",
".X c #B8BFCB",
"XX c #B9BFCB",
"oX c #BABFCC",
"OX c #B9C0CC",
"+X c #BAC0CC",
"@X c #BAC2CE",
"#X c #BCC4CF",
"$X c #BBC6D2",
"%X c #BBC7D3",
"&X c #BDC5D1",
"*X c #BDC7D3",
"=X c #BFC6D3",
"-X c #BDC7D4",
";X c #BEC8D5",
":X c #BEC9D6",
">X c #BEC9D7",
",X c #C0CAD7",
"<X c #C2CAD7",
"1X c #C5CDD4",
"2X c #C3CBD8",
"3X c #C1CCD9",
"4X c #C2CCD9",
"5X c #C1CCDA",
"6X c #C3CDDA",
"7X c #C3CEDB",
"8X c #C4CED9",
"9X c #C3CFDC",
"0X c #C4CFDC",
"qX c #C6D0DD",
"wX c #C5D1DF",
"eX c #C6D1DF",
"rX c #C6D2DF",
"tX c #D0D7DF",
"yX c #C6D2E0",
"uX c #C7D2E0",
"iX c #CAD5E2",
"pX c #CAD5E3",
"aX c #CAD6E3",
"sX c #CAD6E4",
"dX c #CBD6E5",
"fX c #CBD7E5",
"gX c #CCD7E5",
"hX c #CCD8E6",
"jX c #CDD9E7",
"kX c #CEDAE8",
"lX c #CFDAE8",
"zX c #D2DDEA",
"xX c #D6E1EE",
"cX c #DFE5EB",
"vX c #DAE5F1",
"bX c #E6ECF2",
"nX c #E7F0F9",
"mX c #E8F1FB",
"MX c #ECF2FA",
"NX c #EEF5FD",
"BX c #EEF5FF",
"VX c #EFF6FF",
"CX c #F0F7FF",
/* pixels */
"                                                                                ",
"                                      d f l f d l                               ",
"                                  f.u.w.0.w.w.9.0.                              ",
"                                  Y =.aX;X&X;X3XdXa a                           ",
"                                . Q.qX(.. . . a .XhXkXb.6                       ",
"                              < dX@Xt.9         % = J.&X5X<                     ",
"                              . &X!                 ` 2.&XG.T                   ",
"                              . b.i                     C.hX%                   ",
"                              . . .                     6 kX%                   ",
"                            c x.@.9                     < .XdX  Z               ",
"                            h B.@.9                       y uX  Z               ",
"                          K 7 _ G =                       . uX+.Z               ",
"                      < < = < % < =                       . rX  Z               ",
"                    % VX.X}.}.}.}.}.w.<                   . uX+.Z               ",
"                F   MXhXdXgXgXgXgXgX5X!.%                 . rX  N               ",
"              H H.1XzXhXhXhXhXhXhX~ -.'..                 . rX+.Z               ",
"                gXvXkXfXkXfXfXfXhXm ] (..                 . rX  Z               ",
"            % CXzXfXfXfXfXfXkXkXhXm ] (..                 . rX  Z               ",
"        { H CXhXhXhXfXkXfXkXfXfXhXc ] '..                 . uXX.Z               ",
"      x S.cXlXhXhXhXfXkXfXfXkXfXhX>X-X!..                 . rX  Z               ",
"      9 Z.nXgXhXhXhXhXhXfXkXfXfXhXhX0X/..                 . uXX.Z               ",
"      m J.nXgXgXhXhXhXhXfXkXfXkXhXhX0X/..                 . rX  Z               ",
"    . bXxXhXhXhXhXhXhXhXfXfXkXfXhXhX0X'..                 . uXX.Z               ",
"    . bXxXhXhXhXhXhXhXhXkXfXfXfXhXhX0X'..                 . rX  Z               ",
"    . bXxXhXhXhXhXhXhXhXhXhXfXkXhXhX0X'..                 . rX  Z               ",
"    F ).5XhXhXhXhXhXhXhXU.P.P.K.hXgX0X'..                 . rX+.Z               ",
"  < CX9 j.hXhXhXhXhXfXfX9 % % < dXdX5X!..                 . rX  N               ",
"  3 VX9 j.hXhXhXhXx.. . uXkXkXkX2 . ' '..                 . rX+.Z               ",
"  < CX0 j.hXhXhXA X.$X%X.X.X.X}.;Xv...9                   . rX  Z               ",
"  < VX9 h.hXhXhXm X.fX>X4.;.2.;.5XB.$.<                   . rX+.Z               ",
"  2 VX9 j.hXhX;XL ;.iXR.g y q 9 R.M...q                   . rX  Z               ",
"  2 VX9 j.hXkX@ }.2X/.. uXgX9Xv.. w.t. ..                 . rX  Z               ",
"  2 VX9 j.hXhX@ {.<X'.. rXK.a.@.. y.t....                 . uX+.Z               ",
"  < VX9 j.hXkX% }.<X!.. D.p.,.@.. t.t....                 . rX  N               ",
"  E _.Y A.hXhXP N.T.+XA :.} ) ^ j w.5.^ P                 . uXq./               ",
"    . /.qXhXhXhXm @.dX}.6 % % % z.j.| <                   = uXgX{.% % < {       ",
"    . !.rXhXhXhXc W M.x.x.x.x.x.z.&.Q <                 3 .XkXgXhXhXhXhXj.. .   ",
"      B d.+X.X@XR.6.y q @.&.&.&.r 6                     3 .X.X.X.X@X@X.X'.R.Y.N ",
"      s.1.3.3.3.3.7.8.8.W P P P 8.8.                    < 3.3.3.3.3.3.3.3.3.3.% ",
"        *.d d d h       Z k d d                         z l d d d d l d d d d l "
};
