/* XPM */
static char *result[] = {
/* columns rows colors chars-per-pixel */
"40 40 108 2 ",
"   c #361807",
".  c #34150A",
"X  c #401D07",
"o  c #431F08",
"O  c #511F0E",
"+  c #5B180E",
"@  c #591C13",
"#  c #6D1911",
"$  c #452109",
"%  c #482209",
"&  c #492309",
"*  c #4C240A",
"=  c #4F250A",
"-  c #51260A",
";  c #57290B",
":  c #58290B",
">  c #592A0A",
",  c #5A2A0A",
"<  c #5C2B0C",
"1  c #5D2B0C",
"2  c #5E2C0C",
"3  c #5F2C0C",
"4  c #5E3012",
"5  c #602B0D",
"6  c #612B0D",
"7  c #612A0E",
"8  c #642A0D",
"9  c #68280E",
"0  c #69280E",
"q  c #6A280F",
"w  c #652711",
"e  c #672514",
"r  c #6F2610",
"t  c #6C2512",
"y  c #6D2218",
"u  c #702510",
"i  c #722511",
"p  c #7A2212",
"a  c #7B2213",
"s  c #613417",
"d  c #653719",
"f  c #63391D",
"g  c #7B1823",
"h  c #7B1824",
"j  c #693D21",
"k  c #7E3430",
"l  c #605042",
"z  c #60564A",
"x  c #871D15",
"c  c #891D16",
"v  c #971819",
"b  c #B20E1F",
"n  c #A0141B",
"m  c #A5131C",
"M  c #8F0A34",
"N  c #9C013E",
"B  c #9D003F",
"V  c #9E003E",
"C  c #9F003E",
"Z  c #9E003F",
"A  c #BA0B21",
"S  c #BE0A22",
"D  c #A2003D",
"F  c #A0003E",
"G  c #BF0032",
"H  c #B90034",
"J  c #C50723",
"K  c #C70724",
"L  c #CD0425",
"P  c #CE0425",
"I  c #CE0426",
"U  c #CF0426",
"Y  c #C10923",
"T  c #C30823",
"R  c #C6002F",
"E  c #C7002F",
"W  c #CF002C",
"Q  c #D20326",
"!  c #D30227",
"~  c #D40227",
"^  c #D3002A",
"/  c #D70128",
"(  c #D60029",
")  c #D5002A",
"_  c #D80028",
"`  c #D90028",
"'  c #C00032",
"]  c #81736D",
"[  c #81827D",
"{  c #627A80",
"}  c #708C94",
"|  c #749099",
" . c #76939C",
".. c #80A0AB",
"X. c #82A2AD",
"o. c #87A8B4",
"O. c #95B3BD",
"+. c #95B3BE",
"@. c #BBBBB7",
"#. c #9AC0CF",
"$. c #9BC1D0",
"%. c #C8CDCD",
"&. c #D5E3E7",
"*. c #DFF4FC",
"=. c #E0F5FD",
"-. c #E2F6FE",
";. c #E3F7FF",
":. c None",
/* pixels */
":.:.:.:.:.:.:.:.:.:.:.:.:.:.:.:.:.:.:.:.:.:.:.:.:.:.:.:.:.:.:.:.:.:.:.:.:.:.:.:.",
":.:.:.:.:.:.:.:.:.:.:.:.:.:.:.:.:.:.:.:.:.:.:.:.:.:.:.:.:.:.:.:.:.:.:.:.:.:.:.:.",
":.:.:.:.:.:.:.:.:.:.:.:.:.  2 2 2 2 2 2 2 2 $ :.:.:.:.:.:.:.:.:.:.:.:.:.:.:.:.:.",
":.:.:.:.:.:.:.:.:.:.:.:.:.+ x x x x x x x x # :.:.:.:.:.:.:.:.:.:.:.:.:.:.:.:.:.",
":.:.:.:.:.:.:.:.:.:.X 2 2 m ` ` ` ` ` ` ` ` A 2 2 = :.:.:.:.:.:.:.:.:.:.:.:.:.:.",
":.:.:.:.:.:.:.:.:.< 2 2 / _ ` ` ` ` ` ` ` ` ` / / T < :.:.:.:.:.:.:.:.:.:.:.:.:.",
":.:.:.:.:.:.:.:.:.2 i a ` ` ` ` ` ` ` ` ` ` ` ` ` J 2 :.:.:.:.:.:.:.:.:.:.:.:.:.",
":.:.:.:.:.:.:.& 2 2 b ` ` ` ` ` ` ` ` ` ` ` ` ` ` J 2 2 2 2 2 , :.:.:.:.:.:.:.:.",
":.:.:.:.:.:.:.& 6 ! / ` ` ` ` ` ` ` ` ` ` ` ` ` ` ` ! 9 2 2 Y L , :.:.:.:.:.:.:.",
":.:.:.:.:.:.:.* 5 K K K K K K K U ` ` ` ` ` ` ` ` ` ` p r 2 K ~ u :.:.:.:.:.:.:.",
":.:.:.:.:.:.2 2 2 2 2 2 2 2 2 2 v ` ` ` ` ` ` ` ` ` ` ` L 2 K ` ` a < :.:.:.:.:.",
":.:.:.:.:.:.2 @.&.+.+.+.O.O.+.+.] q ` ` ` ` ` ` ` ` ` ` L 2 9 r ` a < :.:.:.:.:.",
":.:.:.:.:.:.j %.-.$.$.$.$.$.$.$.[ f I Q ` ` ` ` ` ` ` ` P 0 3 8 ` a < :.:.:.:.:.",
":.:.:.:.- d ;.;.-.$.$.$.$.$.$.$.$.$.2 c ` ` ` ` ` ` ` ` ` ` u 8 ` a < :.:.:.:.:.",
":.:.:.:.- d ;.;.-.$.$.$.$.$.$.$.$.$.2 c ` ` ` ` ` ` ` ` ` ` u 8 ` a 1 :.:.:.:.:.",
":.:.:.:.- d =.=.*.$.$.$.$.$.$.$.$.$.2 c ` ` ` ` ` ` ` ` ` ` u 8 ` a < :.:.:.:.:.",
":.:.:.:.- s $.$.$.$.$.$.$.$.$.$.$.$.2 c ` ` ` ` ` ` ` ` ` ` u 8 ` a < :.:.:.:.:.",
":.:.:.:.- s $.$.$.$.$.$.$.$.$.$.o.} 2 c ` ` ` ` ` ` ` ` ` ` u 8 ` a < :.:.:.:.:.",
":.:.:.:.- s $.$.$.$.$.$.$.$.$.#...{ 2 c ` ` ` ` ` ` ` ` ` ` u 8 ` a 1 :.:.:.:.:.",
":.:.:.:.- s $.$.$.$.$.$.$.$.$.{ { { 2 c ` ` ` ` ` ` ` ` ` ` u 8 ` a < :.:.:.:.:.",
":.:.:.:.- s $.$.$.$.X. . . . .{ { { 2 c ` ` ` ` ` ` ` ` ` ` u 8 ` a < :.:.:.:.:.",
":.:.:.:.- s $.$.$.$.| { { { { { { { 2 c ` ` ` ` ` ` ` ` ` ` u 8 ` a < :.:.:.:.:.",
":.:.:.:.- 4 { { { { { { { { { { z 2 ` ` ` ` ` ` ` ` ` ` ` ` u 7 B y < :.:.:.:.:.",
":.:.:.:.:.:.l l l l l l l l l l k n ` ` ` ` ` ` ` ` ` ` ( H t 7 B y < :.:.:.:.:.",
":.:.:.:.:.:.2 2 2 2 2 2 2 2 2 2 v ` ` ` ` ` ` ` ` ` ` ` ^ B e 7 B y < :.:.:.:.:.",
":.:.:.:.:.:.2 S ` ` ` ` ` ` ` ` ` ` ` ` ` ` ` ` ` ` ` D B B e 7 B y < :.:.:.:.:.",
":.:.:.:.:.:.2 S ` ` ` ` ` ` ` ` ` ` ` ` ` ` ` ` ` ) ' F B B e 7 B y < :.:.:.:.:.",
":.:.:.:.:.:.2 S ` ` ` ` ` ` ` ` ` ` ` ` ` ` ` ` ` W B B B B e 7 B y 1 :.:.:.:.:.",
":.:.:.:.:.:.2 M V ` ` ` ` ` ` ` ` ` ` ` ` ` ` ` ` W B B B B e 7 B y < :.:.:.:.:.",
":.:.:.:.:.:.2 M Z R R R b b b b b b ` ` ` ` ` ` E G B B B B e 7 B y < :.:.:.:.:.",
":.:.:.:.:.:.2 M B B B B 2 2 2 2 2 2 ` ` ` ` ` ` C B B B B B e 7 B y < :.:.:.:.:.",
":.:.:.:.:.:.2 M B B B B N N N 2 g N Z Z Z Z Z Z B B B B B B e 7 B y 1 :.:.:.:.:.",
":.:.:.:.:.:.2 M B B B B B B B 2 h B B B B B B B B B B B B B e 7 M @ % :.:.:.:.:.",
":.:.:.:.:.:.2 M B B B B B B B 2 h B B B B B B B B B B B B B e 2 2 :.:.:.:.:.:.:.",
":.:.:.:.:.:.2 M B B B B B B B 2 h B B B B B B B B B B B B B e , :.:.:.:.:.:.:.:.",
":.:.:.:.:.:.2 M B B B B B B B 2 h B B B B B B B B B B B B B e > :.:.:.:.:.:.:.:.",
":.:.:.:.:.:.2 M B B B B B B B 2 h B B B B B B B B B B B B B e > :.:.:.:.:.:.:.:.",
":.:.:.:.:.:.:.O w w w w w w w :.. w w w w w w w w w w w w w :.:.:.:.:.:.:.:.:.:.",
":.:.:.:.:.:.:.o ; ; : ; ; ; : :.:.; ; : ; ; ; : ; ; ; : ; ; :.:.:.:.:.:.:.:.:.:.",
":.:.:.:.:.:.:.:.:.:.:.:.:.:.:.:.:.:.:.:.:.:.:.:.:.:.:.:.:.:.:.:.:.:.:.:.:.:.:.:."
};
