/* XPM */
static char *result[] = {
/* columns rows colors chars-per-pixel */
"40 40 98 2 ",
"   c #371E45",
".  c #3A2047",
"X  c #3E254A",
"o  c #422A4E",
"O  c #452D51",
"+  c #482F54",
"@  c #463054",
"#  c #493155",
"$  c #4D375A",
"%  c #4C385B",
"&  c #543F61",
"*  c #4B4B67",
"=  c #4E4C68",
"-  c #554363",
";  c #584666",
":  c #5D4C6B",
">  c #48546E",
",  c #5D516F",
"<  c #495770",
"1  c #4C5A72",
"2  c #5F5471",
"3  c #505D74",
"4  c #5E5C77",
"5  c #615571",
"6  c #645B76",
"7  c #685B77",
"8  c #655E79",
"9  c #57657C",
"0  c #5D687F",
"q  c #676079",
"w  c #6B637D",
"e  c #71647E",
"r  c #6E6981",
"t  c #736781",
"y  c #706B83",
"u  c #786E87",
"i  c #627186",
"p  c #6B778B",
"a  c #6D798C",
"s  c #747087",
"d  c #75778C",
"f  c #7A778D",
"g  c #75798E",
"h  c #7B7B8F",
"j  c #727D90",
"k  c #7E7D91",
"l  c #778293",
"z  c #828698",
"x  c #8B859B",
"c  c #868A9C",
"v  c #8A8B9E",
"b  c #928EA1",
"n  c #8790A1",
"m  c #8C95A4",
"M  c #8E98A7",
"N  c #9392A3",
"B  c #9992A4",
"V  c #909AA7",
"C  c #959DAC",
"Z  c #9A9EAD",
"A  c #9AA1AE",
"S  c #9DA5B2",
"D  c #A2A2B2",
"F  c #A4ACB7",
"G  c #A5AEBA",
"H  c #ADACBA",
"J  c #ACB2BE",
"K  c #AEB5C1",
"L  c #AFB9C4",
"P  c #B1B6C2",
"I  c #B3BAC5",
"U  c #B7BDC8",
"Y  c #B8BEC8",
"T  c #B7C0C9",
"R  c #BCC2CC",
"E  c #BEC8D0",
"W  c #C0C5CE",
"Q  c #C1C6D0",
"!  c #C5CAD2",
"~  c #C8CDD4",
"^  c #C5D1D6",
"/  c #CCD0D7",
"(  c #C6D2D8",
")  c #CDD2D9",
"_  c #CED8DD",
"`  c #D1D5DB",
"'  c #D5D9DE",
"]  c #D7DBE0",
"[  c #DADEE2",
"{  c #DEE2E5",
"}  c #E0E4E7",
"|  c #E3E7E9",
" . c #E6E9EB",
".. c #EAECED",
"X. c #EDEFF0",
"o. c #EFF0F2",
"O. c #F1F2F3",
"+. c None",
/* pixels */
"+.+.+.+.+.+.+.+.+.+.+.+.+.+.+.+.+.+.+.+.+.+.+.+.+.+.+.+.+.+.+.+.+.+.+.+.+.+.+.+.",
"+.+.+.+.+.+.+.+.+.+.+.+.+.+.+.+.+.+.+.+.+.+.+.+.+.+.+.+.+.+.+.+.+.+.+.+.+.+.+.+.",
"+.+.+.+.+.+.+.+.+.+.+.+.+.+.+.+.+.+.Y R R R R +.+.+.+.+.+.+.+.+.+.+.+.+.+.+.+.+.",
"+.+.+.+.+.+.+.+.+.+.+.+.+.+.+.+.R ! o.O.O.O.X.! R +.+.+.+.+.+.+.+.+.+.+.+.+.+.+.",
"+.+.+.+.+.+.+.+.+.+.+.+.+.+.+.Q X.O.o.o.o.o.o.O.X.E +.+.+.+.+.+.+.+.+.+.+.+.+.+.",
"+.+.+.+.+.+.+.+.+.+.+.+.+.+.K X.O.o.o.o.o.o.o.o.o.o.P +.+.+.+.+.+.+.+.+.+.+.+.+.",
"+.+.+.+.+.+.+.+.+.+.+.+.+.+.~ O.o.o.o.o.o.o.o.o.o.O.~ +.+.+.+.+.+.+.+.+.+.+.+.+.",
"+.+.+.+.+.+.+.+.+.+.+.+.+.K X.o.o.o.o.o.o.o.o.o.o.o...K +.+.+.+.+.+.+.+.+.+.+.+.",
"+.+.+.+.+.+.+.+.+.+.+.+.+.R O.O.o.o.o.o.o.o.o.o.o.o.o.R +.+.+.+.+.+.+.+.+.+.+.+.",
"+.+.+.+.+.+.+.+.+.+.+.+.+.R X.X.o.o.o.o.o.o.o.o.o.o.o.R +.+.+.+.+.+.+.+.+.+.+.+.",
"+.+.+.+.+.+.+.+.+.+.+.+.p ] o.o.o.o.o.o.o.o.o.o.o.o.o.' a +.+.+.+.+.+.+.+.+.+.+.",
"+.+.+.+.+.+.+.+.+.+.+.+.p [ o.o.o.o.o.o.o.o.o.o.o.o.o.{ p +.+.+.+.+.+.+.+.+.+.+.",
"+.+.+.+.+.+.+.+.+.+.+.+.m ..o.o.o.o.o.o.o.o.o.o.X.O.X.X.m +.+.+.+.+.+.+.+.+.+.+.",
"+.+.+.+.+.+.+.+.+.+.+.+.m X.o.o.o.o.o.o.o.o.o.o.o.X.O...m +.+.+.+.+.+.+.+.+.+.+.",
"+.+.+.+.+.+.+.+.+.+.+.a Y X.X.o.o.o.o.o.o.o.o.o.o.o.o.{ Y a +.+.+.+.+.+.+.+.+.+.",
"+.+.+.+.+.+.+.+.+.+.+.a Y X.O.o.o.o.o.o.o.o.o.o.o.o.o...R a +.+.+.+.+.+.+.+.+.+.",
"+.+.+.+.+.+.+.+.+.+.+.p ~ o.o.o.o.o.o.o.o.o.o.o.o.o.o.[ ~ p +.+.+.+.+.+.+.+.+.+.",
"+.+.+.+.+.+.+.+.+.+.+.p ! o.o.o.o.o.o.o.o.o.o.o.o.o.o.[ ~ p +.+.+.+.+.+.+.+.+.+.",
"+.+.+.+.+.+.+.+.+.+.+.j ~ o.o.o.o.o.o.o.o.o.o.o.o.o...} ~ j +.+.+.+.+.+.+.+.+.+.",
"+.+.+.+.+.+.+.+.+.+.1 C [ o. .O.o.o.o.o.o.o.o.o.o.o.} } } C 1 +.+.+.+.+.+.+.+.+.",
"+.+.+.+.+.+.+.+.+.+.3 J  .o.}  .o.o.o.o.o.o.o.o. .o.} ' [ K > +.+.+.+.+.+.+.+.+.",
"+.+.+.+.+.+.+.+.+.h 9 I |  .' } O.X...X.o.o.o.O.} o.} ` } J > +.+.+.+.+.+.+.+.+.",
"+.+.+.+.+.+.+.+.+.k a R } ' ! ..X.| X.o.....o.O.} X.} / { K 0 +.+.+.+.+.+.+.+.+.",
"+.+.+.+.o +.+.+.+.% g ` ] ~ ~ O.X.| O...{  .O.| } | } [ ` U l 3 +.+.+.+.+.+.+.+.",
"+.+.+.+.+.+.+.# X w J ` ! R [ | } ] O...{ ..O.| ` [ } } ~ W D +.+.+.+.+.+.+.+.+.",
"+.+.+.+.+.+.+.8 m m U / ! R } } { ' O. .[  .O.| ` } } ` / W G 1 = +.+.+.o +.+.+.",
"+.+.+.+.+.+.+.w S l Y ! R / } { ` } o...{  .O.| ` [ } ` / W P i * +.+.+.# +.+.+.",
"+.+.+.+.+.+.+.@ 4 n U W Q _ { / ` | O...' ] X.| ` { } / P ! G * # +.+.+.o +.+.+.",
"+.+.+.+.+.+.5 I ~ Q W R / } [ ` '  ...{ / ` { { Q / [ ` I Y V f +.+.+.+.X +.+.+.",
"+.+.+.+.+.+.2 S Y R W R / } / ` { { { [ ! _ } | W R ` / P U c s +.+.+.+.+.+.+.+.",
"+.+.+.+.+.+.+.X r U ~ v D / W R { { { { ~ ! ]  .Z R ` / I J @ +.+.+.+.+.+.+.+.+.",
"+.+.+.+.+.+.+.+.x / ! &   J W l } ' R ` K U ] { A K ` Y K N n - +.+.+.+.+.+.+.+.",
"+.+.+.+.+.+.+.+.u N k 5 5 n I # { / G H = z ~ ~ A m _ K F + F k +.+.+.+.+.+.+.+.",
"+.+.+.+.+.+.+.+.+.+.  Z K G r $ B b G H 2 g P ~ M C T U P q r 8 +.+.+.+.+.+.+.+.",
"+.+.+.+.+.+.+.+.+.+.X P / _ O +.o - G / K S W P q q 6 / R 8 +.+.+.+.+.+.+.+.+.+.",
"+.+.+.+.+.+.+.+.+.+.+.e t t +.+.+.; E D 8 , A I - +.+.t e +.+.+.+.+.+.+.+.+.+.+.",
"+.+.+.+.+.+.+.+.+.+.+.+.+.+.+.+.- D / x +.  N ( - +.+.+.+.+.+.+.+.+.+.+.+.+.+.+.",
"+.+.+.+.+.+.+.+.+.+.+.+.+.+.+.+.- ( _ v +.+.: : +.+.+.+.+.+.+.+.+.+.+.+.+.+.+.+.",
"+.+.+.+.+.+.+.+.+.+.+.+.+.+.+.+.+.; ; ; +.+.+.+.+.+.+.+.+.+.+.+.+.+.+.+.+.+.+.+.",
"+.+.+.+.+.+.+.+.+.+.+.+.+.+.+.+.+.+.+.+.+.+.+.+.+.+.+.+.+.+.+.+.+.+.+.+.+.+.+.+."
};
