/* XPM */
static char *result[] = {
/* columns rows colors chars-per-pixel */
"40 40 13 1 ",
"  c #751205",
". c #493356",
"X c #546178",
"o c #971201",
"O c #737D90",
"+ c #929AA9",
"@ c #A1A9B5",
"# c #B1B7C2",
"$ c #C0C5CE",
"% c #D0D4DB",
"& c #DFE3E5",
"* c #EFF0F2",
"= c None",
/* pixels */
"========================================",
"==================#####=================",
"================##****&##===============",
"==============O#********&#==============",
"=============O&**********&#=============",
"============O#************&#============",
"============O&************&#============",
"===========O#**************&#===========",
"===========O$**************&#===========",
"==========O#&*********&XX&*&#===========",
"==========O#&*********X  X*&O===========",
"==========O%**********XooX*OX===========",
"=========O#%**********&XX&+XX===========",
"=========O$%**************XO+===========",
"=========O%%*************$*$O===========",
"========O@%%&*************&$O===========",
"========O$%%*************&*%O===========",
"========O$%&&***********&*&%O===========",
"=======O@%%&*&***********&&$O===========",
"=======O#%%&&*&*********&*%$O===========",
"=======O$%%&&&*&*&***&*&*&%#O===========",
"======O@$%%&&&&*&*&*&*&&&%%#X===========",
"======O@$%&&&%&&&&*&*&%&&%%+X===========",
"=====OO#$%&&&%&&&&&&&&%&&%%+X===========",
"===..O@$%%&&&%&&&&&&&&%&&%%O============",
"==.OOO#$%%&&%$%&&&&&&&%%&%%O============",
"==.OO+$$%%&&%$%&&&%&&&%$&%%O============",
"===.O#$$%%&%%$%&&&%&&&%$&%%X============",
"==...###%%&%%$%%&&%%&&%$%%%XX===========",
"==.#$$##%%%$$$%%&&%%&&%$$%$O+X==========",
"==.$$$##$%$+$$%%&&%$&&&$$%$++X==========",
"==.###.++#$..$%%&&%$%&&%$%$$$$.=========",
"==.....+##+.+%&$%%$$%&&%$$$+$$.=========",
"=====.+##+$$$%%$%%$$%&&%$$$...==========",
"=====.+$$.$$&%$$%%$$$&&%$$&&.===========",
"=====.+$$...$$$+%%@@$&&+$+&&.===========",
"======...===.&&$%%+$%%&$&$..============",
"============.&&.&$+$%%.&&&.=============",
"=============...&&&....&&&.=============",
"===============.&&&.==....=============="
};
