/* XPM */
static char *result[] = {
/* columns rows colors chars-per-pixel */
"40 70 108 2 ",
"   c #351A42",
".  c #3A1F46",
"X  c #3D244A",
"o  c #3F284D",
"O  c #40274D",
"+  c #412A4E",
"@  c #442C51",
"#  c #473154",
"$  c #493356",
"%  c #4B3659",
"&  c #463A5A",
"*  c #4E3C5C",
"=  c #503E5E",
"-  c #523F60",
";  c #4B4562",
":  c #534363",
">  c #574867",
",  c #5A4B6A",
"<  c #4F526C",
"1  c #5E526E",
"2  c #4D5D74",
"3  c #525772",
"4  c #5C5671",
"5  c #515E76",
"6  c #635572",
"7  c #655975",
"8  c #685874",
"9  c #665D79",
"0  c #6B5C78",
"q  c #526076",
"w  c #56647A",
"e  c #5A677D",
"r  c #5D697F",
"t  c #6B647D",
"y  c #6F6680",
"u  c #606D82",
"i  c #6A6B81",
"p  c #726681",
"a  c #736C84",
"s  c #786D85",
"d  c #667286",
"f  c #6A758A",
"g  c #6D798C",
"h  c #747187",
"j  c #727289",
"k  c #7C748B",
"l  c #7B798F",
"z  c #727D90",
"x  c #7F7F92",
"c  c #817A91",
"v  c #768193",
"b  c #7A8597",
"n  c #7F8A9B",
"m  c #828396",
"M  c #86869A",
"N  c #8C869A",
"B  c #828C9D",
"V  c #8B8B9E",
"C  c #908B9F",
"Z  c #8C8FA1",
"A  c #948FA2",
"S  c #8C94A4",
"D  c #8C98A7",
"F  c #9A95A6",
"G  c #9098A7",
"H  c #939CAB",
"J  c #9C9AAB",
"K  c #A19EAE",
"L  c #96A1AE",
"P  c #99A0AE",
"I  c #9DA5B2",
"U  c #9EA9B5",
"Y  c #A6A4B3",
"T  c #A3AAB6",
"R  c #A6AEBB",
"E  c #ABAEBB",
"W  c #A4B2BC",
"Q  c #ABB3BE",
"!  c #B0B2BE",
"~  c #AEB5C1",
"^  c #AFBAC4",
"/  c #B2B6C2",
"(  c #B4BBC5",
")  c #BCBCC6",
"_  c #B6BEC8",
"`  c #B9BEC9",
"'  c #BCC3CC",
"]  c #BEC8D0",
"[  c #C0C5CE",
"{  c #C1C6D0",
"}  c #C4CAD2",
"|  c #C9CED6",
" . c #C6D0D7",
".. c #CBD0D7",
"X. c #CDD2D9",
"o. c #D1D6DC",
"O. c #D5D9DE",
"+. c #D5DBE0",
"@. c #DADDE2",
"#. c #DEE2E5",
"$. c #E0E4E7",
"%. c #E3E6E9",
"&. c #E5E9EB",
"*. c #E9ECED",
"=. c #EDEFF0",
"-. c #EFF0F2",
";. c #F1F2F3",
":. c None",
/* pixels */
":.:.:.:.:.:.:.:.:.:.:.:.:.:.:.:.:.:.:.:.:.:.:.:.:.:.:.:.:.:.:.:.:.:.:.:.:.:.:.:.",
":.:.:.:.:.:.:.:.:.:.:.:.:.:.:.:.:.:.:.:.:.:.:.:.:.:.:.:.:.:.:.:.:.:.:.:.:.:.:.:.",
":.:.:.:.:.:.:.:.:.:.:.:.:.:.:.:.:.:.:.:.:.:.:.:.:.:.:.:.:.:.:.:.:.:.:.:.:.:.:.:.",
":.:.:.:.:.:.:.:.:.:.:.:.:.:.:.:.:.:.:.:.:.:.:.:.:.:.:.:.:.:.:.:.:.:.:.:.:.:.:.:.",
":.:.:.:.:.:.:.:.:.:.:.:.:.:.:.:.:.:.:.:.:.:.:.:.:.:.:.:.:.:.:.:.:.:.:.:.:.:.:.:.",
":.:.:.:.:.:.:.:.:.:.:.:.:.:.:.:.:.:.:.:.:.:.:.:.:.:.:.:.:.:.:.:.:.:.:.:.:.:.:.:.",
":.:.:.:.:.:.:.:.:.:.:.:.:.:.:.:.:.:.:.:.:.:.:.:.:.:.:.:.:.:.:.:.:.:.:.:.:.:.:.:.",
":.:.:.:.:.:.:.:.:.:.:.:.:.:.:.:.:.:.:.:.:.:.:.:.:.:.:.:.:.:.:.:.:.:.:.:.:.:.:.:.",
":.:.:.:.:.:.:.:.:.:.:.:.:.:.:.:.:.:.:.:.:.:.:.:.:.:.:.:.:.:.:.:.:.:.:.:.:.:.:.:.",
":.:.:.:.:.:.:.:.:.:.:.:.:.:.:.:.:.:.:.:.:.:.:.:.:.:.:.:.:.:.:.:.:.:.:.:.:.:.:.:.",
":.:.:.:.:.:.:.:.:.:.:.:.:.:.:.:.:.:.:.:.:.:.:.:.:.:.:.:.:.:.:.:.:.:.:.:.:.:.:.:.",
":.:.:.:.:.:.:.:.:.:.:.:.:.:.:.:.:.:.~ ! Q Q Q Q Q ~ :.:.:.:.:.:.:.:.:.:.:.:.:.:.",
":.:.:.:.:.:.:.:.:.:.:.:.:.:.:.:.:.:.} | | X.| ..| [ :.:.:.:.:.:.:.:.:.:.:.:.:.:.",
":.:.:.:.:.:.:.:.:.:.:.:.:.:.:._ ( [ %.;.;.;.;.;.;.%.[ ( _ :.:.:.:.:.:.:.:.:.:.:.",
":.:.:.:.:.:.:.:.:.:.:.:.:.:.~ o.&.*.-.-.;.;.-.-.-.-.*.&.o.Q :.:.:.:.:.:.:.:.:.:.",
":.:.:.:.:.:.:.:.:.:.:.:.:.' X.&.;.;.-.-.-.-.-.-.-.;.;.;.&.X.' :.:.:.:.:.:.:.:.:.",
":.:.:.:.:.:.:.:.:.:.:.:.:.' *.-.-.-.-.-.-.-.-.-.-.-.-.;.-.*.[ :.:.:.:.:.:.:.:.:.",
":.:.:.:.:.:.:.:.:.:.:.:.:.[ -.;.-.-.-.-.-.-.-.-.-.-.-.-.;.-.[ :.:.:.:.:.:.:.:.:.",
":.:.:.:.:.:.:.:.:.:.:.~ } #.-.-.-.-.-.-.-.-.-.-.-.-.-.-.-.;.@.} ~ :.:.:.:.:.:.:.",
":.:.:.:.:.:.:.:.:.:.:.~ o.-.-.-.-.-.-.-.-.-.-.-.-.-.-.-.-.-.-.o.Q :.:.:.:.:.:.:.",
":.:.:.:.:.:.:.:.:.:.:./ @.;.-.-.-.-.-.-.-.-.-.-.-.-.-.-.;.;.;.O./ :.:.:.:.:.:.:.",
":.:.:.:.:.:.:.:.:.:.:.' @.;.-.-.-.-.-.-.-.-.;.-.-.-.-.-.;.;.;.@.' :.:.:.:.:.:.:.",
":.:.:.:.:.:.:.:.:.:.:.' #.;.-.-.-.-.-.-.-.-.-.-.-.-.-.-.-.-.;.@.' :.:.:.:.:.:.:.",
":.:.:.:.:.:.:.:.:.:.:.} $.;.-.-.-.-.-.-.-.-.-.-.-.-.-.-.-.-.;.$.} :.:.:.:.:.:.:.",
":.:.:.:.:.:.:.:.:.:.b O.-.-.-.-.-.-.-.-.-.-.-.-.-.-.-.-.-.-.;.-.o.b :.:.:.:.:.:.",
":.:.:.:.:.:.:.:.:.:.b o.-.;.-.-.-.-.-.-.-.-.-.-.-.-.-.-.-.-.-.-.o.b :.:.:.:.:.:.",
":.:.:.:.:.:.:.:.:.:.S O.;.;.-.-.-.-.-.-.-.-.-.-.-.-.-.-.-.-.;.;.@.S :.:.:.:.:.:.",
":.:.:.:.:.:.:.:.:.:.P &.;.-.-.-.-.-.-.-.-.-.-.-.-.-.-.-.-.;.;.;.&.I :.:.:.:.:.:.",
":.:.:.:.:.:.:.:.:.:.J &.;.-.-.-.-.-.-.-.-.-.-.-.-.-.-.-.-.-.-.;.&.P :.:.:.:.:.:.",
":.:.:.:.:.:.:.:.:.S _ &.;.-.-.-.-.-.-.-.-.-.-.-.-.-.-.-.-.-.-.=.#.( S :.:.:.:.:.",
":.:.:.:.:.:.:.:.g S ..=.;.-.-.-.;.;.=.-.-.-.-.-.-.-.-.-.-.-.;.*.#.| S g :.:.:.:.",
":.:.:.:.:.:.:.:.g S | *.;.;.-.-.*.;.;.-.-.-.-.-.-.-.-.-.-.-.-.;.=.| S f :.:.:.:.",
":.:.:.:.:.:.:.:.f G O.=.;.-.-.-.-.-.-.-.-.-.-.-.-.-.-.-.-.-.;.*.$.o.G f :.:.:.:.",
":.:.:.:.:.:.:.:.f P O.=.;.-.-.-.-.-.-.-.-.-.-.-.-.-.-.-.-.-.;.*.@.+.H f :.:.:.:.",
":.:.:.:.:.:.:.:.f G O.=.;.=.-.-.-.-.-.-.-.-.-.-.-.-.-.-.-.-.;.*.#.+.H f :.:.:.:.",
":.:.:.:.:.:.:.:.f G O.=.;.-.-.-.-.-.-.-.-.-.-.-.-.-.-.-.-.-.-.*.#.+.G f :.:.:.:.",
":.:.:.:.:.:.:.:.v T $.=.;.;.=.-.-.-.-.-.-.-.-.-.-.-.-.-.-.-.*.%.#.#.R z :.:.:.:.",
":.:.:.:.:.:.:.q B ' %.-.=.=.-.-.-.-.-.-.-.-.-.-.-.-.-.-.-.-.%.#.$.&.' B 5 :.:.:.",
":.:.:.:.:.:.:.q I o.%.-.&.%.-.;.-.-.-.-.-.-.-.-.-.-.-.-.;.-.%.$.#.$.O.I q :.:.:.",
":.:.:.:.:.:.f q I @.-.-.%.#.%.=.-.-.;.-.-.-.-.-.-.-.=.*.%.-.&.O.O.$.o.T q :.:.:.",
":.:.:.:.:.j v q Y @.-.*.$.O.@.=.;.=.*.*.;.-.-.-.-.-.;.&.$.-.&.O.o.#.o.I 5 :.:.:.",
":.:.:.:.+ p D w Q $.#.@.o.o.$.=.;.*.#.*.;.=.=.=.-.-.;.%.$.-.&.O.o.#.O.I q :.:.:.",
":.:.:.:.+ y L g ! #.#.O.} ..-.;.&.%.*.-.;.=.%.*.;.-.;.&.%.-.&.O.o.$.o.R g q :.:.",
":.:.:.:.# - 9 n } %.O.} } O.;.;.&.%.-.;.*.%.@.*.-.-.*.%.$.%.%.#.+.+.../ B r :.:.",
":.:.:.:.# % 7 P o.O.| [ | @.*.*.%.#.=.;.*.#.#.&.-.-.%.O.@.#.$.$.$.o.| _ I u :.:.",
":.:.% % @ t T ' X.| [ [ o.%.%.#.O.O.-.;.*.#.#.*.;.-.%.O.o.#.$.$.@.o.} { ' d :.:.",
":.:.> m m Z I ' X...[ [ o.%.%.%.O.o.=.;.*.#.#.&.;.-.&.O.o.$.%.@.o.o.} } [ d 2 3 ",
":.:.1 I I S D } | } [ } O.%.%.O.O.O.-.;.&.#.#.*.;.-.%.O.X.#.%.O.o.o.} { ' z w 3 ",
":.:., S D b B ..| ' [ ..@.$.#.o.O.&.;.;.&.#.#.&.-.-.$.O.o.$.$.@.X.X.} [ ' n u < ",
":.:.+ % i B J ] { ' [ X.#.@.o...O.%.;.;.*.@.O.O.&.-.%.O.o.$.$.O.X.( ' } ' f ; $ ",
":.9 l N I R ( ' { { ..+.$.@.o...O.%.;.&.&.#.| o.$.&.$.o.| O.$.#.| / ' _ T B 4 @ ",
"# h ( X.| } { [ { | O.#.$.+.o.o.+.&.*.$.#.O.[ o.$.#.$.o.[ ..O.O.X.( ' _ D U t @ ",
"@ i T [ [ [ [ [ ' | o.$.O.X.o.@.$.#.$.$.@...[ o.$.$.$.X.[ [ | O.X.( ' ( D H t @ ",
":.> , 7 Z ^ } [ R ~ o.o.| } | @.$.$.$.$.@...[ ..O.#.%.' I ' X.O.X./ ' Y : > :.:.",
":.:.X @ Z _ } } m a A } | ` / O.&.@.O.@.#.o.} } o.$.%.( H [ X.X.| / ] T 6 @ :.:.",
":.:.:.% E X.{ ' 7   * E | Q V o.&.@.` O.@.} ` ` | $.$.( H ) X...' ( E T H 1 :.:.",
":.:.:.% E +.] I , . % S ' K = / *.X.L X.] b v R o.$...R G H } | ~ _ p 1 H G t + ",
":.:.:.:.p s p 7 i a j Z W V # ) -.o.G ..Y & ; j R ..| R G S } | Q _ 6 * L W t @ ",
":.:.:.:.:.X X + M ~ T I S 9 % F / Y G } Y , * i L ' } R Z G _ [ _ ' k 6 x m 9 :.",
":.:.:.:.:.:.:.# J | ] | s + $ $ @ : D ( | _ z T } [ | H z G G T [ } W l # $ :.:.",
":.:.:.:.:.:.:.# K +. .+.p X :.@ O : S (  .| L L / ' R h = , ; c o.O.c = :.:.:.:.",
":.:.:.:.:.:.:.:.k N N N 0 :.:.:.o : T ' Q N h t M ' Q y X :.:.8 V N 7 :.:.:.:.:.",
":.:.:.:.:.:.:.:.:.@ @ @ :.:.:.:.:.8 { X.C X @ X 4 ( ' k o :.:.:.+ + :.:.:.:.:.:.",
":.:.:.:.:.:.:.:.:.:.:.:.:.:.:.@ a / { ..N + :.:.6 ' ] k + :.:.:.:.:.:.:.:.:.:.:.",
":.:.:.:.:.:.:.:.:.:.:.:.:.:.:.+ k X. .+.C @ :.:.:.p p 6 :.:.:.:.:.:.:.:.:.:.:.:.",
":.:.:.:.:.:.:.:.:.:.:.:.:.:.:.:.p J J T c :.:.:.:.o + :.:.:.:.:.:.:.:.:.:.:.:.:.",
":.:.:.:.:.:.:.:.:.:.:.:.:.:.:.:.:.$ % % :.:.:.:.:.:.:.:.:.:.:.:.:.:.:.:.:.:.:.:.",
":.:.:.:.:.:.:.:.:.:.:.:.:.:.:.:.:.:.:.:.:.:.:.:.:.:.:.:.:.:.:.:.:.:.:.:.:.:.:.:.",
":.:.:.:.:.:.:.:.:.:.:.:.:.:.:.:.:.:.:.:.:.:.:.:.:.:.:.:.:.:.:.:.:.:.:.:.:.:.:.:.",
":.:.:.:.:.:.:.:.:.:.:.:.:.:.:.:.:.:.:.:.:.:.:.:.:.:.:.:.:.:.:.:.:.:.:.:.:.:.:.:."
};
