/* XPM */
static char *result[] = {
/* columns rows colors chars-per-pixel */
"40 40 137 2 ",
"   c #000000",
".  c #0C0400",
"X  c #0C0805",
"o  c #0B0B0B",
"O  c #130601",
"+  c #160902",
"@  c #1D0A01",
"#  c #100B08",
"$  c #13110F",
"%  c #141414",
"&  c #1B1B1B",
"*  c #250D01",
"=  c #280F01",
"-  c #241006",
";  c #2C1103",
":  c #23130B",
">  c #28170F",
",  c #341303",
"<  c #3B1603",
"1  c #3F1B07",
"2  c #391A0A",
"3  c #2F1F17",
"4  c #3C271C",
"5  c #232323",
"6  c #2B2B2B",
"7  c #372821",
"8  c #392F2B",
"9  c #35302D",
"0  c #38312D",
"q  c #313131",
"w  c #3C3C3C",
"e  c #431A04",
"r  c #4A1C04",
"t  c #491F08",
"y  c #521F04",
"u  c #4C210A",
"i  c #552105",
"p  c #5B2305",
"a  c #56250B",
"s  c #472210",
"d  c #442B1F",
"f  c #572A12",
"g  c #5C2C13",
"h  c #502C19",
"j  c #612607",
"k  c #642807",
"l  c #6C2906",
"z  c #622808",
"x  c #6C2D0C",
"c  c #742D07",
"v  c #782E07",
"b  c #732E0A",
"n  c #7B320C",
"m  c #6F391C",
"M  c #703314",
"N  c #5A3B2B",
"B  c #463D39",
"V  c #633822",
"C  c #703C20",
"Z  c #5E4030",
"A  c #6C442F",
"S  c #654331",
"D  c #644839",
"F  c #424242",
"G  c #4D4D4D",
"H  c #515151",
"J  c #5E5E5E",
"K  c #65554C",
"L  c #765C4E",
"P  c #775F51",
"I  c #766156",
"U  c #796256",
"Y  c #646464",
"T  c DimGray",
"R  c #7E6C62",
"E  c #737373",
"W  c #797979",
"Q  c #853308",
"!  c #8C3609",
"~  c #953909",
"^  c #9B3B09",
"/  c #8F3C11",
"(  c #A33F0A",
")  c #9C4415",
"_  c #AC440D",
"`  c #B3460C",
"'  c #B6490F",
"]  c #BD4A0C",
"[  c #BB4C11",
"{  c #C44D0D",
"}  c #C84E0D",
"|  c #CB500E",
" . c #D4540F",
".. c #D9550F",
"X. c #DC580F",
"o. c #C54F10",
"O. c #D05310",
"+. c #DD5910",
"@. c #E35C10",
"#. c #EA5D11",
"$. c #F05D10",
"%. c #EB6112",
"&. c #F46412",
"*. c #FB6512",
"=. c #F76812",
"-. c #FA6B13",
";. c #816F66",
":. c #837167",
">. c #857B75",
",. c #807C7A",
"<. c #8E817A",
"1. c #818181",
"2. c #8F8683",
"3. c #8A8A8A",
"4. c #918884",
"5. c #948F8D",
"6. c #94908E",
"7. c #9A938E",
"8. c #939393",
"9. c #9F9995",
"0. c #9C9C9C",
"q. c #A4A3A3",
"w. c #ADA9A6",
"e. c #ADADAD",
"r. c #B1AFAF",
"t. c #B4B3B3",
"y. c #BAB7B6",
"u. c #BBBBBA",
"i. c #C3C3C3",
"p. c #C8C8C7",
"a. c #CACACA",
"s. c #D4D4D4",
"d. c #DCDCDC",
"f. c #E4E4E4",
"g. c #EDEDED",
"h. c #F3F3F3",
"j. c #FCFCFC",
/* pixels */
"g.j.j.g.g.j.j.g.h.j.j.g.j.h.f.g.j.j.h.g.j.j.f.f.j.j.f.g.j.h.h.j.j.g.g.j.j.g.g.j.",
"j.g.h.j.j.g.h.j.h.g.h.j.u.  % f.g.g.j.j.g.q.  5 f.f.6   8.h.j.h.g.j.j.g.g.j.j.g.",
"j.h.g.j.j.g.h.j.j.g.p.3.R b M ,.1.1.3.3.1.I b m ,.,.C b P 3.u.h.h.j.j.h.h.j.j.h.",
"g.j.j.g.g.j.j.g.h.j.8.  2 &.@.*           p =. .O O | -.j   T h.j.g.g.j.j.g.g.j.",
"h.j.j.f.y.u.g.h.a.y.;.e i _ ^ +           < _ ! . . Q ` <   G y.u.t.y.h.j.h.g.j.",
"j.g.g.d.& % a.j.T o x &.` O .               . .     . .       o o o 5 s.g.j.j.g.",
"j.g.s.y.> > t.d.H   p +.^                                         @ 3 u.s.h.j.h.",
"g.t.6 4 o.} d 5 o   O = +                                       , | [ 7 6 u.g.j.",
"h.q.  ; X.@.,                                                   < %...* X e.g.h.",
"j.0.  . e e .                                                   O e y ~ _ D G q.",
"h.r.X                                                               O ..=.r   W ",
"W U n p .                                                       @ c c c n I W i.",
"  p -.O.+                                                       e &.X.O o p.j.h.",
"G S _ Q .                                                       = _ ^ i u 2.t.a.",
"g.e.X                                                               @  .%.t X 1.",
"s.9.* +                                                             O _ O.h 5 8.",
"& f +._ O                                                             O : w.f.f.",
"o a %.{ O                                                             . # y.j.f.",
"e.<.u ,                                                             O ~ ` Z F e.",
"g.r.                                                                * X.=.r   W ",
"j.a.1.E o                                                           . p b ;.3.u.",
"j.g.g.f.&                                                                 u.j.g.",
"g.f.r.4.f r .                                                       o G Y i.g.j.",
"g.t.o - @.#.,                                                       & f.j.g.g.j.",
"s.2.; e ] { =                                                   . = 4 t.a.h.j.g.",
"& f +.` - +                                                     , ..o.3 3 i.j.g.",
"o a %.] .                                                       < @. .= o q.f.j.",
"y.<.1 ;                                                         . < e ( ' N w 0.",
"j.q.X                                                               + ..=.t   E ",
"j.q.  + v ! Q Q ,                                                   . p x :.3.p.",
"g.q.  , #.*.*.$.p                                                         t.g.j.",
"h.i.J K / ( ..$.i                                           * p <   o H Y a.h.h.",
"j.g.g.s.% O { *.p                                           l =.] . % s.g.j.j.g.",
"h.j.h.s.F 0 ) { V q &   . ; =             . = *     * , O   y | ) 9 F d.h.h.h.j.",
"g.j.j.g.d.d.8 + 5.g.1.  , +.} @           r +.` O . ` @.y     O B s.f.j.j.g.g.j.",
"j.h.h.j.h.g.w % q.h.8.% s @.} *   . O .   y &.} O . ` #.g $ % $ G g.j.h.h.j.j.h.",
"j.g.g.j.j.g.p.p.f.g.f.a.7.2 ;   . Q { i   r &.{ O   ; 2 >.i.p.i.p.j.j.h.g.j.j.g.",
"g.j.j.g.h.j.j.g.h.j.h.g.i.o X   X ` -.b   i &.o.+       q.h.h.h.j.h.g.j.j.h.h.j.",
"g.j.j.g.g.j.j.g.h.j.h.g.f.0.8.5.8.A k L 0.:.z V 6.0.3.8.d.h.g.j.j.g.g.j.j.g.g.j.",
"j.g.h.j.j.g.h.j.h.h.h.j.h.g.j.j.g.w   3.h.q.  5 f.h.j.j.h.h.j.h.g.j.j.g.g.j.j.g."
};
