/* XPM */
static char *result[] = {
/* columns rows colors chars-per-pixel */
"40 40 236 2 ",
"   c #A60D07",
".  c #AC0C06",
"X  c #AD0809",
"o  c #B20C0A",
"O  c #AB1207",
"+  c #AB1708",
"@  c #BC1D08",
"#  c #B81B0C",
"$  c #B8260A",
"%  c #BD3C11",
"&  c #C00409",
"*  c #C21207",
"=  c #C61608",
"-  c #CC1409",
";  c #CD1E0B",
":  c #D41A0A",
">  c #D81B09",
",  c #D81211",
"<  c #E70C09",
"1  c #EA0D0D",
"2  c #E5120B",
"3  c #EB130B",
"4  c #E41B0A",
"5  c #EB1B0C",
"6  c #F0170D",
"7  c #F31D0B",
"8  c #EC0B11",
"9  c #EF1411",
"0  c #ED1D12",
"q  c #C82407",
"w  c #C52C0A",
"e  c #D6220B",
"r  c #D6280A",
"t  c #DC2B0A",
"y  c #CB390B",
"u  c #D2340D",
"i  c #D8390A",
"p  c #DC3D10",
"a  c #EB2D07",
"s  c #E2220B",
"d  c #EC230C",
"f  c #E12E0D",
"g  c #EB2B0C",
"h  c #F32607",
"j  c #FD2C06",
"k  c #F4240B",
"l  c #FA240B",
"z  c #F32B0B",
"x  c #FD2B0A",
"c  c #EB3507",
"v  c #ED3A06",
"b  c #E5310C",
"n  c #EB320C",
"m  c #E33B0B",
"M  c #EE3A0C",
"N  c #F43406",
"B  c #FB3305",
"V  c #F53E06",
"C  c #FA3B06",
"Z  c #F3330B",
"A  c #FB330A",
"S  c #F33A0C",
"D  c #FB3B0A",
"F  c #EF2215",
"G  c #ED2C12",
"H  c #F42211",
"J  c #F22B10",
"K  c #F92A11",
"L  c #ED3214",
"P  c #F43112",
"I  c #FD3612",
"U  c #F43B11",
"Y  c #FD3914",
"T  c #D54009",
"R  c #DF460D",
"E  c #C14710",
"W  c #DB4313",
"Q  c #E1420D",
"!  c #EC440B",
"~  c #E24A0D",
"^  c #EB4C0D",
"/  c #F54305",
"(  c #FA4406",
")  c #F64D06",
"_  c #FA4A07",
"`  c #F5430C",
"'  c #FA430A",
"]  c #F44B0B",
"[  c #F94C0A",
"{  c #E5530C",
"}  c #ED520A",
"|  c #EF5909",
" . c #F55406",
".. c #F95406",
"X. c #F55C06",
"o. c #F85B06",
"O. c #F5540A",
"+. c #F9530A",
"@. c #F55B0A",
"#. c #F95A0A",
"$. c #EE4A14",
"%. c #F54410",
"&. c #FC4910",
"*. c #F94C1A",
"=. c #E05413",
"-. c #EB5112",
";. c #F25313",
":. c #FB5312",
">. c #F55A17",
",. c #FB5C12",
"<. c #FA5C1E",
"1. c #DF7A11",
"2. c #EF6605",
"3. c #ED670B",
"4. c #EE6809",
"5. c #F46206",
"6. c #F86007",
"7. c #F36907",
"8. c #F5640A",
"9. c #F9640B",
"0. c #F56B0B",
"q. c #F96A0C",
"w. c #EC770D",
"e. c #EE7B0A",
"r. c #F47106",
"t. c #F97007",
"y. c #F17807",
"u. c #F5730C",
"i. c #F9740B",
"p. c #F47C0C",
"a. c #F97B0A",
"s. c #E96718",
"d. c #F96313",
"f. c #F56D15",
"g. c #F86817",
"h. c #F56D1A",
"j. c #EF7016",
"k. c #EC7D15",
"l. c #F47413",
"z. c #F97512",
"x. c #F47A13",
"c. c #FA7B15",
"v. c #F4781C",
"b. c #F97C1B",
"n. c #FA6722",
"m. c #F56F24",
"M. c #FA7023",
"N. c #F67B22",
"B. c #DF8C14",
"V. c #EE830B",
"C. c #EB8A0D",
"Z. c #F4830C",
"A. c #F8850C",
"S. c #F48C0B",
"D. c #E9980C",
"F. c #F5930D",
"G. c #F9970C",
"H. c #F69C0E",
"J. c #F99C0E",
"K. c #EE8717",
"L. c #F48314",
"P. c #F98312",
"I. c #F58C14",
"U. c #FA8A14",
"Y. c #F48419",
"T. c #F8871B",
"R. c #F58C1D",
"E. c #ED981A",
"W. c #F59213",
"Q. c #FA9313",
"!. c #F59C13",
"~. c #F99B13",
"^. c #F3931C",
"/. c #F9931B",
"(. c #F99A1C",
"). c #EDA20E",
"_. c #F5A40D",
"`. c #F9A60E",
"'. c #F4AB0D",
"]. c #F9AC0D",
"[. c #F5B20D",
"{. c #F9B20E",
"}. c #F6BA0E",
"|. c #F9B90E",
" X c #EDAB1F",
".X c #F6A413",
"XX c #FAA313",
"oX c #F7AA14",
"OX c #F9AC13",
"+X c #F6A61B",
"@X c #F9A118",
"#X c #F7AD1C",
"$X c #FAAE1B",
"%X c #F6B511",
"&X c #F9B513",
"*X c #F6BB13",
"=X c #F9BA12",
"-X c #F6B41A",
";X c #FAB31B",
":X c #F7BD1A",
">X c #F9BD1B",
",X c #F78C24",
"<X c #F69424",
"1X c #FB9224",
"2X c #F59D21",
"3X c #F89B27",
"4X c #F5942B",
"5X c #F9942C",
"6X c #F59D2B",
"7X c #FD8F32",
"8X c #FB9B33",
"9X c #F5A324",
"0X c #F9AB23",
"qX c #F4A429",
"wX c #F9A22D",
"eX c #F6BA25",
"rX c #FABE27",
"tX c #F9B62E",
"yX c #F9BA2C",
"uX c #F9AA34",
"iX c #FCAF3C",
"pX c #F8B934",
"aX c #F9BD3B",
"sX c #F5C01C",
"dX c #F9C21F",
"fX c #F6C221",
"gX c #F9C224",
"hX c #F6C329",
"jX c #FAC42C",
"kX c #FAC82B",
"lX c #FAC534",
"zX c #FACA35",
"xX c #FAC63A",
"cX c #FBCA3B",
"vX c #FDB841",
"bX c #FCC640",
/* pixels */
"D p u 0 K #.S.=XP...z S ;XV.= =.Z.R.R.S.u.J ;.{.(.m.u = e.p.0.u.p.i q >.N.W.Y.0.",
"@.q X d +.].|.}.L.@.A ' $XS.x c.=XkXcX*XXX' #.[.hXbX>.V '.=X&X=X&X@.Y iXpX8.y.*X",
"b 4 t l.(.hX#XZ.0.5.c./.jX2X) @.8.L.Y.Z.A.U.(.jXqXK.8.O.e.Z.V.H.}.9X7X,Xk.'  .Z.",
"2 K ' XX:XxX6X5. .5.XXsXlXqXX.( x [ X.X.0.{.sXxX3X .| X. .X.X.A.%XhXlXl.O.j V +.",
"z z.~.jXyXc.f.X.M n qXyXk.d.C ' O.' C ..0.{.oXx.,.A +.+.D D @.9.i.#X%Xu...B j A ",
"+.~.*XtX3Xo...X.P G qXyX3.[ j C  .B B +.0.{.~.#.' j _ [ B D X.X.6.~.[.u.) j j j ",
"oX&XOX#.D x ( o.' N ~.OX5.] j j B j B [ r.[._.6.( j j B j D o.#.X.~.{.r. .x l x ",
"_.J.(.D j A ' ] A B G.[.5.[ j h 4 Z D ` X.S.x.` C C j x x B [ +.8.!.{.t. .' A k ",
"X.5.X.B B  .! 4 7 D G.].2.] j -   Q +.d 6 Z h 4 c o.B j x x j ( 6.XX{.t.X.X.' 3 ",
"o.` c B C  ._ Z s r w.A.V S ( m u m n 7 z M.<.7 z S j j C ( ( S S d.z.8.@.T f 6 ",
"@.g 3 l D X.X.#.w   ~ +.3 g o.6.@.G 2 l ;.aX8Xx 7 2 7 j +.X.o.Z 8 H x #.{ O * K ",
"W.` l u.I.qX2XF.{ e P A 7 N X.! g k z N.3XrX#XA.L.k.` N  .) n k H m.4XW.V.t W 4X",
"*XO.A _.>XxXjX|.q.A x x B C o.n 1 k &.uXlX&X&X|.=X;X#.B O./ 2 7 A 8XxX>XJ.C d.zX",
"*Xu...i.z.c.W.}.0XwX~.S.X._ A x k z.H.Y.i.a.i.i.u.u.W.U.' x l ,.G.P.b.z.0. .w.:X",
"oXu.X.+.O.X.y.+XyXzX>X~.5.O.` M A P.!.q.+.X.o.o.o.+.F.XXD A %.x.].y.o.o.X.X.a.OX",
"q.X.#.A D 5.] G k.>Xp.q.X.u.oXp.O.L g j C o.6.#._ A o.7...l.aX<X7.5.6.X.6.o.8.7.",
"o...( B N R n 6 s.~.#.] y.S.}.G.y.U 5 N V _ ] [ D x ) X.` h.zX^.X. .[ )  .o.O.` ",
"@.D j x d O - x ) X.J L +X}.}.|.{.:.x ] +.A x A j x O.O.5 $.:XS.@.V j j A #.%.5 ",
"#.[ D A k ; 4 x (  .k 0 h.x.U.+XgX,.x Z S ` D j B ( @.O.- T =XS.X.C x j x ' D S ",
"X.X.O.A x x j x _ o.5 6 x D #.3XxXn.A 7 d  .] x ( X.@.-.. % %XS.O.C j j j x D ..",
"g g z ` ' x x x ' #.A l ' +.X.l.R.<X5XY.x.] b * i #.n g > b d.` z ` _ A x j C X.",
"k 3 5 ] ] x x x '  .' ' ..o.@.#.#.wXlX:XXX:.b $ u o.d 3 Y A h 7 3 V O.A x x C O.",
"!.^ k 5 g O. . .Z g Y.W.V A B [ @.f.x.OX{..X!.E.f.B l N ~.1.O : l = $ ^ ....U 0 ",
":Xv.*.H d ] } R g g !._.b g A ' O.X.7.`.|.*X%X'.T.>.:.@.&XB.+ t [ ; # ! O.X.] 9 ",
"=XjXiX*.7 9 ,   : A G.).+ $ @.' x [ 7.`.}.}._.5.^.xX;X&X=XS.z g.OX@.k 0 d  .[ x ",
"G.2X5X&.A O.W = Q i.$X X$ r S S D +.7.`.&XH.p._ l.qXeXdX}._.0.U.}.Y.n.F P u.c.n.",
"X.5.O.A [ &XT.A x.sXjXpXM l < U #.o.9.].OX0.] B / X.uXzX=X|.=X*X}.kXaX*.:.OXdXcX",
"(  .o._ f.rX1Xx X.A.R.,XY.8.7 Z ( +.7.'.XX+.' / ( C v.E.{.}.}._.A.I.,X,X1X&XoX^.",
"B [ X.O.l.lX5XA ' X.X.7.%XS.Z Z B ] 7.OXXX' D @.' x O.2.].}.=XS.X.X.9.tXlX*X!.5.",
"[ D A a -.-X(.+.( C  .7.&XeXuXv.[  .0.tXyXd.' S j x [ 0.&X_.e.0.X.( ` l.I.{.XX5.",
"X.D x 3 ! {.G.5.( B [ 9.XXeXzX^.O.X.0.tXyX0.) l h j ..5.{.!.} O.#.B x ] 3.&X!.O.",
"X.X.[ j ] ].~.5.@...C D 9.U.>Xs.0 ` q.oXOX0._ x x j [ 7.{.C.g k A x h @ E '.W.d ",
"X.{ $.+.7.~.U.+.+.[ C C ] u.&X4.5 S @..XoX@.' C z g ! | %XC.5 h C x k o y [.R.d ",
"@.w $ D.H.q.+.x x B ] O.5 -.=X0.l 9 G J.XXL g @.i X , b oXS.z D O.a 3 7 &.].Q.z ",
"%.> w )._.9.' x B / Q p 5 -.rXW.X.Z k z.b.K z @.p & < a ]..Xj.x.V.v 7 @.b.{.J.7.",
"3 l C _..X9.[ x ' @.# o J <.cXfX{.,.x x x x D X.S 8 k S `.:XlXfX}.X.I iXzX=X|.&X",
"h o.Z.eX9X` M '  .@.: : l.Q.gX@XA.#.[ i.p.a.A.S.#.6 8.L.].]./.R.A.X.+.0XgX|.*XhX",
"Z I.:XxXuXH b X.X.>.k n $X|.&XS.#.o.0..X|.[.}.=Xc.N F.*X&XH.X.O.X.X.7._.&X=XgXbX",
" .7.P.&X~.x S X.S d H U OX_.y.O.D ] 8.u.a.u./.jX;XF.eXpX,.:.@.] B [ 8.0.A.{.oXb.",
"X.X.0._.Q.I C X.n < l ' $X~.X./ x _ +.+.@.@.N.xXgX*XlXvXD D @.` x [ o.X.t.{.~.8."
};
