/* XPM */
static char *result[] = {
/* columns rows colors chars-per-pixel */
"40 40 118 2 ",
"   c #28170F",
".  c #241B16",
"X  c #2C1C15",
"o  c #2F1D18",
"O  c #321D17",
"+  c #311E19",
"@  c #2E2017",
"#  c #2A231C",
"$  c #34241B",
"%  c #39261F",
"&  c #34291F",
"*  c #3A2620",
"=  c #362820",
"-  c #3B2C24",
";  c #3D2F28",
":  c #3C3126",
">  c #373128",
",  c #3D3329",
"<  c #402B23",
"1  c #432F28",
"2  c #42342C",
"3  c #453A2E",
"4  c #493730",
"5  c #463B33",
"6  c #4A3C34",
"7  c #4E3F3A",
"8  c #4B4137",
"9  c #47423C",
"0  c #4D433B",
"q  c #4F483D",
"w  c #53443C",
"e  c #53483F",
"r  c #4E4840",
"t  c #554B42",
"y  c #5B4C44",
"u  c #5D4F49",
"i  c #5A5046",
"p  c #55504A",
"a  c #5D534A",
"s  c #63544C",
"d  c #69574F",
"f  c #63594E",
"g  c #655750",
"h  c #655B52",
"j  c #6B5C54",
"k  c #6C5E58",
"l  c #676155",
"z  c #6B6156",
"x  c #66615B",
"c  c #6D6259",
"v  c #716057",
"b  c #73655D",
"n  c #79675F",
"m  c #73695E",
"M  c #6E6963",
"N  c #716660",
"B  c #756C63",
"V  c #7B6C64",
"C  c #777166",
"Z  c #7C7166",
"A  c #777068",
"S  c #7C746A",
"D  c #7F7B70",
"F  c #806B65",
"G  c #846F69",
"H  c #82746C",
"J  c #83796E",
"K  c #857C73",
"L  c #8A7D74",
"P  c #897F78",
"I  c #907E78",
"U  c #868176",
"Y  c #898176",
"T  c #878279",
"R  c #8C837B",
"E  c #8E897E",
"W  c #92857D",
"Q  c #928A7E",
"!  c #998B7F",
"~  c #8D8780",
"^  c #8E8981",
"/  c #928781",
"(  c #988781",
")  c #948C82",
"_  c #9A8D84",
"`  c #938E88",
"'  c #9B8E88",
"]  c #969185",
"[  c #9A9186",
"{  c #979189",
"}  c #9C948A",
"|  c #9E988C",
" . c #9E9A93",
".. c #A28E87",
"X. c #A09187",
"o. c #A2958C",
"O. c #A3998E",
"+. c #A19793",
"@. c #A49A91",
"#. c #A99D93",
"$. c #A7A094",
"%. c #ADA296",
"&. c #AEA39A",
"*. c #B0A397",
"=. c #B2A59B",
"-. c #B3A99D",
";. c #AEA8A2",
":. c #B6ABA1",
">. c #BBACA3",
",. c #BDB2A7",
"<. c #B6B1AB",
"1. c #BEB4AA",
"2. c #C3B3AB",
"3. c #C3B8AD",
"4. c #C7BBB3",
"5. c #CCBFB6",
"6. c #CDC2B8",
"7. c #D5C3BC",
/* pixels */
"R ` ] Q Q } [ e S _ T U U K T Y U R Q ) f f ! $.| ! ] ! ] [ E E O.R q R R R L T ",
"^ ^ ] ! ) [ _ t S _ ) R U K T Y T Y Q W z z O.! ! | [ ! ] ] Q ] } P t ) ) E T W ",
"{ ) [ O.o._ ) a H ) Q R K R R Q ! R R R z v ! ! ! ! O.X.Q _ O.O.) P u ~ ) ) R L ",
"p p t R _ W j 6 n L I R H L Y J L J n w w e e q w w i i e j _ } / u 0 S L T L K ",
"# > , 8 8 6 : = 2 5 6 y s y e e e s e f *.z @ : : - & & 2 2 6 0 5 ; > 5 5 8 5 w ",
"x M m z z t 5 6 c f 3 W -.*.*.%.*.*.%.-.6.m : f m b c N n b c h r 5 6 f g a 3 j ",
"| ^ W Q R S S S [ S m 2.%.X.) _ X.O.O.! ! l f Y | [ _ | W ) ) K S S S S H C e >.",
"{ ^ ) _ [ [ | } } S l $.} [ Q ) Q ! | | | l Z O.| _ [ ] ^ ) ` { |  .{ ) ) ` i O.",
"{ R ) _ [ Q [ ] ] C i [ _ { | [ { | { _ [ h A | ] E _ _ ^ E ] ] ] ] ] E ! E w L ",
"+._ ( X._ ) ] _ } Z i W ' } ) _ | } { ) [ a M _ ) ^ | [ ) Q [ ] Q Q [ ! ] ] e J ",
"} [ o.o._ [ o.O.[ S y ) X.' ) / ' ' ' ' [ h S ' ) _ @.[ X.O.[ Q | X.O.[ Q W e J ",
"c b ( O.[ o.o._ _ G y ( ..O.' ' +.' ' ' T e G ..o.' L k V o.o.[ O.X.X.#.X.W w I ",
". # w j y s f s d w 4 s s d s h j g u g y - t j f d 6 X = s s s s s s d s u 2 y ",
"{ +.t o @ s O.[ _ o...d O * = 2 t t y y t ; ; L o.[ o.O.W 3 $ $ S } } b $ $ - 2 ",
";.4.1.W Q 3.,.=.-.-.>.=.y 1 g k A K K / Z 8 2 :.=.&.:.:.6.:.X.o.6.-.#.*.j < f k ",
"` ) #.@.O.$.[ Q _ X.' @.t g K K P ~ P / K p , K ) ' | ) [ $.$.[ @._ Q ) f y K K ",
"] E ! | [ Q | ] W } _ ) t m R R / ~ P ~ E A q D E ] | E ] | Q D E | ^ E a l T R ",
"~ Q [ | | Q ] ! _ | | ) 0 B ) R ~ ~ ~ P T T 9 a E ] E E E ] | ^ T { ] { p l ) R ",
"~ { | ] [ ! E Q ] _ @.' a B R T ^ T K ~ R ) l 9 ^ | ` E ] | ] E K T [ +.h l T R ",
"{ | [ Q Q | X.! ] _ _ } u e L ) / P K ~ Y Y U y ] | | | | Q U T ) D ) | l 8 S ) ",
" .{ ] ] o.O.O.! o.o.G G 6 1 L ( ~ / ( / ' ) L w S X.O.O.! U Q O._ H G H t ; H ( ",
"x x l c n n n v n f = $ O * u d g k k j b b k = - v V v f d n V k y = o X + y j ",
"D U T Y J L I L F < + < 1 n H H G H N 1 $ d ( Y L L H I G % O O k I L I I L 2 O ",
"<.<.-.-.*.>.>.*.2.G u _ ..2.#.@.#.&.4.K j #.;.>.>.>.2.2.7...F W 5.2.=.2.>.2.! ; ",
"` { [ Q } ! ! Q O.L f X.} X.Y T T Y ,.#.h O.E Q } } | Q O.=.O.%.-.] Q | | | [ 3 ",
"^ E ] } } } | ! [ Z t L K T Q E R U [ R i ) Q [ ) ) | ) Q } } ) Q | Q ] ] ! U 3 ",
"^ ] ] [ E ] | Q } B t R W K K U D U U z i Q ) | ] E E E Q ] } [ Q | ! | | | S 8 ",
"~ | | ) ! | Q O.| Z s R R Q D D U T W v e [ o.o.[ ] ] E ] | ] ] Q Q Q ! | O.Y 8 ",
"{ | ] Q [ | ! [ ' L g P / R K S T _ ' N e X.O...! ! $.! | Q Q ] ! ! ! ! _ X.W 6 ",
" .| E ! [ O.} Y L k s _ ( R R P T R I b % v ..! ! O.%.! ] ] | | O.O.X.O.! R F < ",
"S A Q &.%.! n 6 ; $ 6 G V N B B N N k ; @ % d G J U Y F m Z C U J G F J y % $   ",
"M C &.,.2.[ z j ; * 7 7 7 7 0 7 7 7 7 6 1 O $ $ z v n m m z f z z d < $ w j v v ",
"<.&.$.{ O.$.3.) 0 s H L L L K K K K K / N 2 g I =.2.2.#.*.*.-.-.,.-.8 8 ..-.-.>.",
" .{ [ E ) [ #.y a K R ) / ~ P ^ ~ T P R / u L =.( ..o.( ! ! E Q O.! i ! O.O.O.X.",
"` [ [ [ [ ] ^ r m Y R ) ~ ~ P P ~ ~ ^ L K w N ' _ _ .._ | | Q [ Q U e ! [ o.o.) ",
"` ` | [ ) ) ] t B R U T D ~ ~ K ^ ^ / / g 2 G +.o._ _ [ ! | ] E ! E q Q | [ ) E ",
"^ ` { ) Q _ | y B ) R P P / ~ P R P / ) g g ' ....X.[ Q Q [ E Q | E e Q | $.[ ) ",
"` ^ _ } _ )  .a S ) / ~ R ^ ~ P T T ) ( g b @.o.( [ o.) _ [ ) _ ! E e Q | | } [ ",
"` R ` } | ' ~ u S ) ( R P R ~ / Q R Y K j j P W W W } X.) } @.| ! U 8 z ] | | o.",
"9 r e Y | ' k 6 A P R L P P P K K J V 3 2 e t 6 6 3 w J [ { ] [ Q e & & C ] Q ] "
};
