/* XPM */
static char *result[] = {
/* columns rows colors chars-per-pixel */
"40 40 47 1 ",
"  c #3E3C38",
". c #413E3A",
"X c #45413B",
"o c #4C463E",
"O c #4C4741",
"+ c #534B41",
"@ c #594F44",
"# c #5C5145",
"$ c #625646",
"% c #635847",
"& c #625648",
"* c #64594B",
"= c #6A5C4C",
"- c #70614F",
"; c #746351",
": c #776852",
"> c #7E6A56",
", c #7F6B58",
"< c #816D57",
"1 c #826D58",
"2 c #837057",
"3 c #887357",
"4 c #867159",
"5 c #8A735B",
"6 c #8E7A5C",
"7 c #90775E",
"8 c #937A5E",
"9 c #937A61",
"0 c #987F61",
"q c #9B8263",
"w c #A28766",
"e c #A38966",
"r c #A78C69",
"t c #AB8F69",
"y c #AD926A",
"u c #B1956C",
"i c #B89B6F",
"p c #BB9C70",
"a c #C2A274",
"s c #C8A776",
"d c #CAA877",
"f c #CDAB79",
"g c #D2AE7B",
"h c #D5B17C",
"j c #DBB57F",
"k c #DDB780",
"l c #DFB981",
/* pixels */
"X11<120q. +8<1>><><;>64a. -q2-;>>>>141< ",
"     .X.   &;;==-==##&Oo    . X#$##@..  ",
"           O###@#@###o          .  .    ",
" o#@>;##@@&>>>@#@#@@+o#   o@@ .#@@@$o @ ",
"+wu8>188yuuuukupjluXX3yu8889880uujll6 @ ",
"owy7<189tuuuuhupjjq X2yr7789669uugll6 @ ",
"ow9454685qqqwwwrpu#  ;0>45744>1wwusd6 @.",
"+w99<>49>>>48990uu# X;9>884<8>188uui6 @ ",
"o<><9888<>>><880uu. o498<<48<98989ll8.@ ",
"O4>>>>>>>>>>>>8989. o48<794<887487up5.  ",
"o61<>>><<<><<13454  X5014551797597rt4.. ",
".=:##&&==@&===oooo ..*;=oo=======##@oo. ",
"                .               ....   .",
"             @ Xo.   .       @+ .@ ..  .",
" :uulgil$@@7juuusljur48uut=. <<88uuuuuy.",
" >ytfspk*+o7jytyahhut49ttr=.O5590utyytr.",
"X88899alw .:u99988rut989806 40090000087.",
"O98887plu  :u989888ut9898w6 <>14<999887 ",
"o<>>870uk  :u<<<88989889ut= >><><;<<<<;.",
"o489<197k  :u>>>>>8><99980:.787><<;<<<<.",
"X497><77p  -r>><>>6,<77637; <65<<;<<:<;.",
".+=$&#&&. ..o###&##@&#&#oo.  #&#$.###$o.",
" .  .     . . ..     .    .     ........",
" #>ttuskujgsjj7<  >>>=@typlkjkf788#oo.o ",
" =898988u80slula$@>87598ut98889wuulao.@.",
" =789887r78aguld@+>87479rr79987wtuldo.* ",
".>11984445499wdp+.498444244548989ulg=O9.",
".>9>8759<98988ut@ 98958>97<<<8889ulg=@9.",
".;88<<4<797589jao 7<14<7<>,>><199uld# t ",
".;89884<,><4<<8<. >7849<>1wuuuu0<8lao.7 ",
".;1<<4<;--;>;-4<  -<114;;;qwqqw8:5auo.< ",
".. .OO.   .  ooo. ooO+o   oo ooooooo. o ",
" .  @@O.     @..o.@@@O.     ..      . @ ",
"$klhkd=$  @skjjklkjjhuu<  o@@><wuyyplkj.",
"Owulllll#@%0u9uuuuuuplll@#1uuupduuut887 ",
"owtggkll++$8t8tyuttruhjl##2yttuatttr998 ",
"X788wrgl O+>>455919420wsoo&555455515555 ",
"X59890dl.@#><>><4>98989u  #<>>>>>>>,>>> ",
".=8880uu.yr>>>>>>><>198k .=<>>>>>><,>>> ",
"o49888eu. @0<>>>>>><189k  :u9>>>>>,<978."
};
