/* XPM */
static char *result[] = {
/* columns rows colors chars-per-pixel */
"40 40 92 1 ",
"  c #740D00",
". c #682423",
"X c #3A2047",
"o c #3C244A",
"O c #41294E",
"+ c #432C51",
"@ c #463155",
"# c #493356",
"$ c #4A3659",
"% c #4D3A5C",
"& c #523D5E",
"* c #543F60",
"= c #594667",
"- c #524C60",
"; c #5B4A6A",
": c #545467",
"> c #4B5A72",
", c #505E75",
"< c #604F6D",
"1 c #605F77",
"2 c #52657F",
"3 c #5A667D",
"4 c #9E0900",
"5 c #82201A",
"6 c #5D6A80",
"7 c #716781",
"8 c #756881",
"9 c #7A6D87",
"0 c #6E798D",
"q c #727187",
"w c #7C738B",
"e c #717C8F",
"r c #7B798F",
"t c #737D90",
"y c #83788E",
"u c #867990",
"i c #887D93",
"p c #768194",
"a c #798395",
"s c #7E8899",
"d c #838E9E",
"f c #8A8F9F",
"g c #808FA1",
"h c #8791A1",
"j c #8D95A4",
"k c #8D98A6",
"l c #8397AA",
"z c #8798AA",
"x c #9298A7",
"c c #939CAA",
"v c #9D9BAC",
"b c #A49EAE",
"n c #99A1AF",
"m c #9BA4B1",
"M c #A1A7B5",
"N c #ACA7B5",
"B c #A2AAB6",
"V c #A4ACB9",
"C c #A8AFBA",
"Z c #B2AEBA",
"A c #A6B3BE",
"S c #ABB3BE",
"D c #AEB5C1",
"F c #B3B6C2",
"G c #B4BAC5",
"H c #BCBCC6",
"J c #B9BEC8",
"K c #BDC3CC",
"L c #C1C5CD",
"P c #C2C8CF",
"I c #C1C6D0",
"U c #C4CAD2",
"Y c #C9CDD6",
"T c #CED1D7",
"R c #CDD2D9",
"E c #CED8DF",
"W c #D0D0D7",
"Q c #D1D5DC",
"! c #D4D9DE",
"~ c #D7DCE0",
"^ c #D9DEE1",
"/ c #DEE2E5",
"( c #E0E4E6",
") c #E3E6E9",
"_ c #E6E9EB",
"` c #E9ECED",
"' c #ECEFF0",
"] c #EFF0F2",
"[ c #F2F3F4",
"{ c #F7FFFC",
"} c #F9FBFB",
"| c None",
/* pixels */
"||||||||||||||||||||||||||||||||||||||||",
"||||||||||||||||||||||||||||||||||||||||",
"||||||||||||||||||URQQR|||||||||||||||||",
"||||||||||||||||UQ`[[[[QQ|||||||||||||||",
"|||||||||||||||P_[]]]]][[QA|||||||||||||",
"||||||||||||||U_]]]]]]]]][^j||||||||||||",
"||||||||||||||T`]]]]]]]]]]`G||||||||||||",
"|||||||||||||U_]]]]]]]]]]]]/x|||||||||||",
"|||||||||||||T`][}]]]]]]]][)m|||||||||||",
"|||||||||||||T`[s6!']]]]]][`Tx||||||||||",
"|||||||||||||S}z. :)]]]]]]]`Qx||||||||||",
"|||||||||||||6Wl54-)]]]]]]]]`V||||||||||",
"|||||||||||||,e!s>R']]]]]]'[_Ux|||||||||",
"|||||||||||||d3K}[]]]]]]]]][_Tm|||||||||",
"|||||||||||||n`Q/]]]]]]]]]'])QB|||||||||",
"|||||||||||||m~`]]]]]]]]]]['~QLh||||||||",
"|||||||||||||B__''']]]]]]]]]_QWc||||||||",
"|||||||||||||M^__']]]]]]]]]`^~Wm||||||||",
"|||||||||||||mE(`']]]]]']]__/UQKd|||||||",
"|||||||||||||mT)_''']]]`]___/QUUj|||||||",
"|||||||||||||cR!_^`__]__'__//~KUm|||||||",
"|||||||||||||sYQ^)^`___`^_//^QYKFd||||||",
"|||||||||||||0KQ^^)^_^_/)^/^T~RUGg,|||||",
"|||||||||||||0FQ^)/)/)^))/^~UYQYLmx&||||",
"||||||||||||||SY~(/((///~/)/RKWRUGDvr$||",
"||||||||||||||DUW^(/!/(^R/^)^UKTUKUED&||",
"||||||||||||||BYL~(/Q(//~~^//QKDDKS7;$||",
"||||||||||||||mTL~/(U!//RQ)//^YmDTB%||||",
"|||||||||||||3SYK~()II)/IQ///)RJBjFG=|||",
"||||||||||||ehJYK~((ILQ^IR~////QQ!RE;|||",
"||||||||||||0DRUK~/(ILQ)IQE///`ib{8%#|||",
"||||||||||||>jUIK~/)LLEtUI~_YD/w+%||||||",
"||||||||||||c]SkjP/(LLtpUIUrou'/9|||||||",
"||||||||||||c_RmjUT(IQt&UYLO+y_/9|||||||",
"||||||||||||0jj3pJL/)/c`!k`QqO++||||||||",
"|||||||||||||++#XL_W//hWH=]Z||||||||||||",
"||||||||||||||||oNW+!_OOo<Wb||||||||||||",
"|||||||||||||||||OoOFH@|||o|||||||||||||",
"||||||||||||||||||||OX$|||||||||||||||||",
"||||||||||||||||||||||||||||||||||||||||"
};
