/* XPM */
static char *result[] = {
/* columns rows colors chars-per-pixel */
"29 40 100 2 ",
"   c #6B2726",
".  c #6B2D2C",
"X  c #782D2C",
"o  c #753B3E",
"O  c #473054",
"+  c #493356",
"@  c #4C3759",
"#  c #4D3B5C",
"$  c #503D5E",
"%  c #6E3F43",
"&  c #724F55",
"*  c #4F4463",
"=  c #524161",
"-  c #584766",
";  c #5B4C6A",
":  c #535A73",
">  c #745760",
",  c #625471",
"<  c #655975",
"1  c #685B76",
"2  c #6C5E7A",
"3  c #5A667D",
"4  c #6A637C",
"5  c #7D6A75",
"6  c #70637D",
"7  c #7B6D78",
"8  c #83170F",
"9  c #801C16",
"0  c #816F7A",
"q  c #5F6B81",
"w  c #6E6780",
"e  c #646F85",
"r  c #6D6C83",
"t  c #736B84",
"y  c #786C85",
"u  c #6F7A8D",
"i  c #737087",
"p  c #77758B",
"a  c #7E758C",
"s  c #717C8F",
"d  c #7C798E",
"f  c #7E7D92",
"g  c #80778E",
"h  c #80798F",
"j  c #817C92",
"k  c #778294",
"l  c #798395",
"z  c #7E8899",
"x  c #8B828C",
"c  c #848195",
"v  c #888297",
"b  c #838699",
"n  c #8A869A",
"m  c #848D9D",
"M  c #8A8C9E",
"N  c #8D909D",
"B  c #9A919A",
"V  c #868FA0",
"C  c #928FA1",
"Z  c #8791A1",
"A  c #8A92A2",
"S  c #8F98A7",
"D  c #9394A4",
"F  c #939BAA",
"G  c #9A9EAD",
"H  c #9AA1AF",
"J  c #9DA4B2",
"K  c #A2A5AF",
"L  c #A1A4B2",
"P  c #A8A4B3",
"I  c #A4AAB6",
"U  c #A5ACB8",
"Y  c #A9AEBB",
"T  c #B0ACB4",
"R  c #ABB2BD",
"E  c #B2B6C2",
"W  c #B5BAC4",
"Q  c #BABDC6",
"!  c #BABFC9",
"~  c #BDC2CB",
"^  c #C1C6CE",
"/  c #C3C8CF",
"(  c #C2C7D0",
")  c #C5CAD2",
"_  c #C9CDD5",
"`  c #CDD1D7",
"'  c #CDD2D8",
"]  c #D2D6DC",
"[  c #D5D9DE",
"{  c #D7DBE0",
"}  c #DADEE2",
"|  c #DEE2E5",
" . c #E0E4E6",
".. c #E3E6E9",
"X. c #E7E9EB",
"o. c #EAEBEE",
"O. c #EDEEF0",
"+. c #EFF0F2",
"@. c #F1F2F3",
"#. c None",
/* pixels */
"#.#.#.#.#.#.#.#.#.#.#.#.#.#.#.#.#.#.#.#.#.#.#.#.#.#.#.#.#.",
"#.#.#.#.#.#.#.#.#.#.#.#.#.#.#.#.#.#.#.#.#.#.#.#.#.#.#.#.#.",
"#.#.#.#.#.#.#.#.#.#.#.#.#.~ ( ) ) ) ~ #.#.#.#.#.#.#.#.#.#.",
"#.#.#.#.#.#.#.#.#.#.#.~ _ | o.O.X.X.} ) ^ #.#.#.#.#.#.#.#.",
"#.#.#.#.#.#.#.#.#.#.( } O.O.+.+.@.@.O.X.[ #.#.#.#.#.#.#.#.",
"#.#.#.#.#.#.#.#.#.#.[ O.+.+.+.+.+.+.+.+.o.` #.#.#.#.#.#.#.",
"#.#.#.#.#.#.#.#.#.) ..+.+.+.+.+.+.+.+.+.@.} ^ #.#.#.#.#.#.",
"#.#.#.#.#.#.#.#.#.] O.+.+.+.+.+.+.+.+.@.@.o._ #.#.#.#.#.#.",
"#.#.#.#.#.#.#.#.#.} +.O.O.O.+.+.+.+.+.o.O.@.] #.#.#.#.#.#.",
"#.#.#.#.#.#.#.#.#.| | L D ' O.+.+.o.^ N R ..{ #.#.#.#.#.#.",
"#.#.#.#.#.#.#.#.W  .K % . x | @.@.] 5   & W  .U #.#.#.#.#.",
"#.#.#.#.#.#.#.#.E ..D X 9 7 { @.@.) > 8 o U X.I #.#.#.#.#.",
"#.#.#.#.#.#.#.#.^ +.` x 0 Q ..| .. .T 5 B } O.W #.#.#.#.#.",
"#.#.#.#.#.#.#.#._ @.O.[ ^ _ R m Z W ) ( } +.O.~ #.#.#.#.#.",
"#.#.#.#.#.#.#.J [ @.O.} R m l s s z A W  .O.X._ S #.#.#.#.",
"#.#.#.#.#.#.#.J [ o.+.o...} | } | } } ..O.X.X.] F #.#.#.#.",
"#.#.#.#.#.#.#.I | X.o.O.@.@.@.+.@.@.@.@.@.o.X.] G #.#.#.#.",
"#.#.#.#.#.#.#.I | X.X.O.+.+.+.+.+.+.+.+.o.X...] G #.#.#.#.",
"#.#.#.#.#.#.u R | | X.+.+.+.+.+.+.O.+.O.X.X...[ J #.#.#.#.",
"#.#.#.#.#.#.z / | ..X.X.O.O.+.+.O.O.O.X.X.X.| | W u #.#.#.",
"#.#.#.#.#.q m ' | | ..| X.X.X.O.X.X.X.X... .} | ) l #.#.#.",
"#.#.#.#.4 u S [ | | | | | X.X.X.X... ...|  .{ } ) l #.#.#.",
"#.#.#.#.< l H [ [ ` [ | | ........ .| |  .| [ } ) m 3 #.#.",
"#.#.#.#.= i E [ ' ` | | | | | |  . . .| | | | [ ) H e #.#.",
"#.#.#.$ , D / ` ( ] | | } | | | |  . .} }  .} { ) E u #.#.",
"#.#.; f m U ) ) ~ [ | | [ | | | | | | } { | } ] ) ~ k : # ",
"#.#.; b V J ) ( ) } | [ } | | | | | | } { | } ' ( ~ z : # ",
"#.#.; i A R ( ( ` } [ ] } | | | [ | | { [ | { ( ~ W k * + ",
"#.; D W ! ~ ( _ [ | [ ] | | | [ ` | | [ _ [ [ ~ ! U m ; #.",
"#.- j L Q ~ ! ( [ ] ` | | | | ' _ } | ` ! _ ' ~ W D p ; #.",
"#.#.@ 2 Y ^ L n R _ ~ ] | } | ' ) ' | ( R ) ' ~ W f = #.#.",
"#.#.#.6 ! ! f @ j W D Q | ~ ' E R ) | ~ L ~ ) W D M t #.#.",
"#.#.#.#.v j w 4 c J w P ] R W y r R _ E F E ~ E t d A ; #.",
"#.#.#.#.#.+ y U R j - y n G W j r L ~ R A J W ! b 4 4 #.#.",
"#.#.#.#.#.#.g ~ ! y #.O $ M ! W F Y Q M < 4 D ! n #.#.#.#.",
"#.#.#.#.#.#.#.y y #.#.#.- G E a 1 a E j @ #.2 y #.#.#.#.#.",
"#.#.#.#.#.#.#.#.#.#.#.#.j Q Y - #.1 U v #.#.#.#.#.#.#.#.#.",
"#.#.#.#.#.#.#.#.#.#.#.#.C Q P ; #.#.1 , #.#.#.#.#.#.#.#.#.",
"#.#.#.#.#.#.#.#.#.#.#.#., 1 1 #.#.#.#.#.#.#.#.#.#.#.#.#.#.",
"#.#.#.#.#.#.#.#.#.#.#.#.#.#.#.#.#.#.#.#.#.#.#.#.#.#.#.#.#."
};
