/* XPM */
static char *result[] = {
/* columns rows colors chars-per-pixel */
"40 70 127 2 ",
"   c #701309",
".  c #7B221E",
"X  c #522D39",
"o  c #371F46",
"O  c #391E46",
"+  c #3A2347",
"@  c #3D244A",
"#  c #3E284D",
"$  c #41294E",
"%  c #442C51",
"&  c #463054",
"*  c #493356",
"=  c #4B3659",
"-  c #4E3A5B",
";  c #513B5D",
":  c #543F60",
">  c #5C4652",
",  c #4E4564",
"<  c #484E65",
"1  c #554263",
"2  c #594766",
"3  c #504966",
"4  c #5A4867",
"5  c #564A68",
"6  c #5D4B6A",
"7  c #5D516D",
"8  c #4D5B73",
"9  c #5E5370",
"0  c #515E75",
"q  c #5F5975",
"w  c #604F6D",
"e  c #62526F",
"r  c #645471",
"t  c #635975",
"y  c #6B5B77",
"u  c #685F79",
"i  c #546177",
"p  c #55637A",
"a  c #58657B",
"s  c #5B687E",
"d  c #7A636E",
"f  c #606179",
"g  c #69607B",
"h  c #960400",
"j  c #566B83",
"k  c #5E6B80",
"l  c #676B82",
"z  c #736580",
"x  c #746B83",
"c  c #7B6F86",
"v  c #667186",
"b  c #6B758A",
"n  c #6D7A8C",
"m  c #7B738B",
"M  c #707B8E",
"N  c #737E91",
"B  c #7D7D91",
"V  c #80758D",
"C  c #85798F",
"Z  c #867C92",
"A  c #768193",
"S  c #798496",
"D  c #7D8798",
"F  c #7E8899",
"G  c #798EA2",
"H  c #7F94A7",
"J  c #898197",
"K  c #828699",
"L  c #848E9E",
"P  c #898E9E",
"I  c #858FA0",
"U  c #8692A1",
"Y  c #8B94A4",
"T  c #8F98A6",
"R  c #9591A4",
"E  c #9D97A7",
"W  c #9098A6",
"Q  c #9B97A9",
"!  c #949CAB",
"~  c #9A9FAE",
"^  c #A39DAD",
"/  c #9AA2AF",
"(  c #91A1B1",
")  c #9DA4B2",
"_  c #9FA9B5",
"`  c #A4A5B4",
"'  c #AAA7B4",
"]  c #A3AAB6",
"[  c #ACAAB6",
"{  c #A6ADBA",
"}  c #A9AFBC",
"|  c #ABB2BE",
" . c #B6B3BE",
".. c #A3B2C0",
"X. c #ADB4C1",
"o. c #B3B6C2",
"O. c #B5BBC5",
"+. c #BABCC5",
"@. c #B7BEC8",
"#. c #B9BEC8",
"$. c #B7C0C9",
"%. c #BDC3CC",
"&. c #BEC9D0",
"*. c #C0C5CE",
"=. c #C1C6D0",
"-. c #C4C9D2",
";. c #C9CDD5",
":. c #CBD0D7",
">. c #CDD2D9",
",. c #D0D1D7",
"<. c #D1D5DB",
"1. c #D5D9DE",
"2. c #D8DCDF",
"3. c #D7DBE0",
"4. c #DADEE2",
"5. c #DEE2E5",
"6. c #E0E4E7",
"7. c #E3E6E8",
"8. c #E5E9EB",
"9. c #EAECEE",
"0. c #EDEFF0",
"q. c #EFF0F2",
"w. c #F1F3F4",
"e. c #F3F8F7",
"r. c #F7F8F8",
"t. c #FAFDFD",
"y. c None",
/* pixels */
"y.y.y.y.y.y.y.y.y.y.y.y.y.y.y.y.y.y.e r e y.y.y.y.y.y.y.y.y.y.y.y.y.y.y.y.y.y.y.",
"y.y.y.y.y.y.y.y.y.y.y.y.y.y.y.y.y.y.y.y.y.y.y.y.y.y.y.y.y.y.y.y.y.y.y.y.y.y.y.y.",
"y.y.y.y.y.y.y.y.y.y.y.y.y.y.y.y.y.y.y.y.y.y.y.y.y.y.y.y.y.y.y.y.y.y.y.y.y.y.y.y.",
"y.y.y.y.y.y.y.y.y.y.y.y.y.y.y.y.y.y.y.y.y.y.y.y.y.y.y.y.y.y.y.y.y.y.y.y.y.y.y.y.",
"y.y.y.y.y.y.y.y.y.y.y.y.y.y.y.y.y.y.y.y.y.y.y.y.y.y.y.y.y.y.y.y.y.y.y.y.y.y.y.y.",
"y.y.y.y.y.y.y.y.y.y.y.y.y.y.y.y.y.y.y.y.y.y.y.y.y.y.y.y.y.y.y.y.y.y.y.y.y.y.y.y.",
"y.y.y.y.y.y.y.y.y.y.y.y.y.y.y.y.y.y.y.y.y.y.y.y.y.y.y.y.y.y.y.y.y.y.y.y.y.y.y.y.",
"y.y.y.y.y.y.y.y.y.y.y.y.y.y.y.y.y.y.y.y.y.y.y.y.y.y.y.y.y.y.y.y.y.y.y.y.y.y.y.y.",
"y.y.y.y.y.y.y.y.y.y.y.y.y.y.y.y.y.y.y.y.y.y.y.y.y.y.y.y.y.y.y.y.y.y.y.y.y.y.y.y.",
"y.y.y.y.y.y.y.y.y.y.y.y.y.y.y.y.y.y.y.y.y.y.y.y.y.y.y.y.y.y.y.y.y.y.y.y.y.y.y.y.",
"y.y.y.y.y.y.y.y.y.y.y.y.y.y.y.y.y.y.y.y.y.y.y.y.y.y.y.y.y.y.y.y.y.y.y.y.y.y.y.y.",
"y.y.y.y.y.y.y.y.y.y.y.y.y.y.y.y.y.y.y.y.y.y.y.y.y.y.y.y.y.y.y.y.y.y.y.y.y.y.y.y.",
"y.y.y.y.y.y.y.y.y.y.y.| | | X.| | y.y.y.y.y.y.y.y.y.y.y.y.y.y.y.y.y.y.y.y.y.y.y.",
"y.y.y.y.y.y.y.y.y.y.*.>.<.<.<.<.>.y.y.y.y.y.y.y.y.y.y.y.y.y.y.y.y.y.y.y.y.y.y.y.",
"y.y.y.y.y.y.y.y.%.%.3.0.r.w.w.r.q.-.*.%.y.y.y.y.y.y.y.y.y.y.y.y.y.y.y.y.y.y.y.y.",
"y.y.y.y.y.y.X.*.7.w.q.q.q.q.0.w.w.w.w.4.| D y.y.y.y.y.y.y.y.y.y.y.y.y.y.y.y.y.y.",
"y.y.y.y.y.| -.7.0.w.q.q.q.q.q.q.q.q.q.q.7.3.R y.y.y.y.y.y.y.y.y.y.y.y.y.y.y.y.y.",
"y.y.y.y.y.;.6.w.w.q.q.q.q.q.q.q.q.q.q.w.w.w.o.I y.y.y.y.y.y.y.y.y.y.y.y.y.y.y.y.",
"y.y.y.y.o.5.9.w.q.q.q.q.q.q.q.q.q.q.q.q.q.w.3._ n y.y.y.y.y.y.y.y.y.y.y.y.y.y.y.",
"y.y.y.y.@.4.9.w.q.q.q.q.q.q.q.q.q.q.q.q.q.0.0.@.M y.y.y.y.y.y.y.y.y.y.y.y.y.y.y.",
"y.y.y.%.5.9.w.0.0.0.q.0.q.q.0.w.q.q.q.q.q.q.r.3.] A y.y.y.y.y.y.y.y.y.y.y.y.y.y.",
"y.y.| *.7.q.w.w.t.t.r.0.q.q.q.q.q.q.q.q.q.q.r.4.o.N y.y.y.y.y.y.y.y.y.y.y.y.y.y.",
"y.y.y.*.6.0.w.5.%.%.4.r.q.q.q.q.q.q.q.q.q.q.w.8.*.T y.y.y.y.y.y.y.y.y.y.y.y.y.y.",
"y.y.y.%.7.q.9.] < < ] 8.w.q.q.0.q.q.q.q.q.0.q.0.5.$.U b y.y.y.y.y.y.y.y.y.y.y.y.",
"y.y.y.) 9.r.( >     > ( r.q.0.w.q.q.q.q.q.q.w.0.3.+.I y.y.y.y.y.y.y.y.y.y.y.y.y.",
"y.y.y.n } r.U X h h X G r.w.q.q.q.q.q.q.q.q.q.q.9.:.Y y.y.y.y.y.y.y.y.y.y.y.y.y.",
"y.y.y.0 b ;...d . . d ..r.0.q.q.q.q.q.q.q.q.q.w.0.4.) F y.y.y.y.y.y.y.y.y.y.y.y.",
"y.y.y.p a F <.&.j j $.r.q.q.q.q.q.q.q.q.q.q.q.q.0.<.=./ N y.y.y.y.y.y.y.y.y.y.y.",
"y.y.y.L b 8 #.r.7.5.0.0.q.q.q.q.q.q.q.q.q.q.q.q.0.<.;.` M y.y.y.y.y.y.y.y.y.y.y.",
"y.y.y.Y | @.-.4.r.r.w.q.q.q.q.q.q.q.q.q.q.q.q.q.0.3.<.} b y.y.y.y.y.y.y.y.y.y.y.",
"y.y.y.Y ;.w.4.3.w.q.q.q.q.0.w.q.q.q.q.q.q.q.q.q.8.<.3.O.F y.y.y.y.y.y.y.y.y.y.y.",
"y.y.y.Y ;.5.0.w.q.q.q.q.q.q.0.q.q.q.q.q.q.q.w.9.4.<.<.-.] A y.y.y.y.y.y.y.y.y.y.",
"y.y.y.W 1.0.8.8.q.q.q.q.q.q.q.q.q.q.q.q.q.q.q.q.0.>.<.>.@.S y.y.y.y.y.y.y.y.y.y.",
"y.y.y.W 2.6.9.8.7.0.q.q.q.q.q.q.q.q.q.q.q.0.w.0.7.5.1.>.@.A y.y.y.y.y.y.y.y.y.y.",
"y.y.y.W ,.6.8.8.8.0.q.q.q.q.q.q.q.q.q.q.q.w.0.8.7.<.<.>.*.Y y.y.y.y.y.y.y.y.y.y.",
"y.y.y.Y -.4.6.7.q.q.q.q.q.q.q.q.q.q.q.q.q.0.7.7.9.;.;.<.>.| K n y.y.y.y.y.y.y.y.",
"y.y.y.Y -.,.7.9.6.0.q.q.0.q.q.0.q.q.q.q.0.5.8.0.5.5.;.-.>.@.L y.y.y.y.y.y.y.y.y.",
"y.y.y.T -.,.5.9.9.7.0.9.8.0.w.w.q.7.9.0.7.9.8.7.5.7.;.*.-.*.U y.y.y.y.y.y.y.y.y.",
"y.y.y.L ;.,.1.5.9.5.7.9.8.8.0.0.9.7.9.8.8.9.5.5.5.4.>.-.%.-.) F y.y.y.y.y.y.y.y.",
"y.y.y.M *.,.,.2.5.5.5.7.0.5.9.9.5.q.7.6.0.5.5.7.5.>.<.:.%.-.X.T M y.y.y.y.y.y.y.",
"y.y.y.v / :.<.1.6.5.5.5.6.q.8.7.q.6.5.5.5.6.5.6.4.<.<.:.%.=.X.T b = y.y.y.y.y.y.",
"y.y.8 v ) :.<.1.5.5.6.5.5.7.5.7.7.5.5.7.6.5.6.1.-.<.<.>.:.=.@.~ b l 5 y.y.y.y.y.",
"y.y.y.v Y ;.<.3.6.5.5.6.5.5.5.5.5.5.5.5.6.6.6.3.-.;.<.<.<.=.%.{ L U 5 + y.y.y.y.",
"y.y.y.y.S ;.<.<.6.5.5.5.5.6.5.6.5.5.5.4.6.6.6.4.<.%.;.<.<.-.=.@.] _ x 2 1 = y.y.",
"y.y.y.y.D ;.;.;.6.6.6.5.6.6.5.6.5.6.1.1.5.6.5.6.4.-.%.-.<.<.-.#.o.%.-.O.L - y.y.",
"y.y.y.y.D ;.;.-.1.6.6.5.4.1.2.6.6.6.1.1.6.5.6.6.5.:.*.*.-.;.-.%.%.-.>.%.W - y.y.",
"y.y.y.y.b ;.;.&.:.4.5.6.4.1.1.7.5.5.<.<.1.6.5.6.5.4.;.*.%.} @.-.%.X.R m g = y.y.",
"y.y.y.y.j -.;.%.*.4.6.5.6.:.1.5.5.6.1.,.<.2.6.5.6.7.:.*.$.T | ;.%./ 5 O % * y.y.",
"y.y.y.y.k ;.:.%.-.4.5.7.4.&.;.3.7.5.1.>.<.5.5.5.5.7.1.:.$.! | -.%.( 9 y.y.y.y.y.",
"y.y.y.p N ;.;.#.;.4.7.5.5.-.#.>.7.5.:.-.<.5.7.5.5.5.6.<.%.$.] W ~ O.o.J % y.y.y.",
"y.y.b A Y ;.:.#.-.4.6.7.4.-.#.:.4.5.;.=.<.4.4.5.5.5.7.2.>.>.%.o.#.:.5.Q % y.y.y.",
"y.0 F ) ] :.;.%.-.4.6.5.4.-.#.-.<.7.:.=.<.>.4.7.5.7.5.7.5.` >.e.7.' ` Z % y.y.y.",
"y.0 A { -.<.;.%.-.4.6.6.5.-.#.;.<.5.;.-.>.<.2.7.6.5.5.8.>.= ^ q.>.1 $ & = y.y.y.",
"y.i 8 S -.-.=.=.-.6.6.6.4.;.#.:.<.Y { -.-.>.5.9.7.{ :.5.@.* ; r w y.y.y.y.y.y.y.",
"y.8 F @.<.{ ] ] X.<.6.6.4.=.-.O./ n ] -.*.>.-.[ Z t  .8.-.Q 5 + y.y.y.y.y.y.y.y.",
"y.8 O.r.5.` W T ! ;.4.6.4.=.-...l a ` -.-.2.~ 7 + + ' e.9.8.x y.y.y.y.y.y.y.y.y.",
"y.8 { 0.4.-.) Y ~ ;.<.3.4.-.<.O.b * R ;.-.7.V $ = % ` 9.4.<.z y.y.y.y.y.y.y.y.y.",
"y.8 I { ] _ N n _ #.=.:.6.4.7.%.T %.4.-._ 5.1.o.K = ; 6 6 6 y.y.y.y.y.y.y.y.y.y.",
"y.y.t t t t 3 , x -.<.4.9.7.7.-.) q.t.o.g <.e.+.u y.y.y.y.y.y.y.y.y.y.y.y.y.y.y.",
"y.y.y.$ $ $ % # : 3.e.<. .4.9.#.Z [ +.C * <.t.` @ y.y.y.y.y.y.y.y.y.y.y.y.y.y.y.",
"y.y.y.y.y.y.y.y.> ;.9.E = :.e.' # % % # 1 ;.9.^ $ y.y.y.y.y.y.y.y.y.y.y.y.y.y.y.",
"y.y.y.y.y.y.y.y.* 2 6 ; 1 2.t.[ $ y.y.y.y.4 4 2 y.y.y.y.y.y.y.y.y.y.y.y.y.y.y.y.",
"y.y.y.y.y.y.y.y.y.y.y.y.= c Z y & y.y.y.y.y.y.y.y.y.y.y.y.y.y.y.y.y.y.y.y.y.y.y.",
"y.y.y.y.y.y.y.y.y.y.y.y.& + o $ y.y.y.y.y.y.y.y.y.y.y.y.y.y.y.y.y.y.y.y.y.y.y.y.",
"y.y.y.y.y.y.y.y.y.y.y.y.y.y.y.y.y.y.y.y.y.y.y.y.y.y.y.y.y.y.y.y.y.y.y.y.y.y.y.y.",
"y.y.y.y.y.y.y.y.y.y.y.y.y.y.y.y.y.y.y.y.y.y.y.y.y.y.y.y.y.y.y.y.y.y.y.y.y.y.y.y.",
"y.y.y.y.y.y.y.y.y.y.y.y.y.y.y.y.y.y.y.y.y.y.y.y.y.y.y.y.y.y.y.y.y.y.y.y.y.y.y.y.",
"y.y.y.y.y.y.y.y.y.y.y.y.y.y.y.y.y.y.y.y.y.y.y.y.y.y.y.y.y.y.y.y.y.y.y.y.y.y.y.y.",
"y.y.y.y.y.y.y.y.y.y.y.y.y.y.y.y.y.y.y.y.y.y.y.y.y.y.y.y.y.y.y.y.y.y.y.y.y.y.y.y.",
"y.y.y.y.y.y.y.y.y.y.y.y.y.y.y.y.y.y.y.y.y.y.y.y.y.y.y.y.y.y.y.y.y.y.y.y.y.y.y.y."
};
