/* XPM */
static char *result[] = {
/* columns rows colors chars-per-pixel */
"40 70 113 2 ",
"   c #7D0800",
".  c #351C44",
"X  c #381F45",
"o  c #3C244A",
"O  c #3F284D",
"+  c #41274C",
"@  c #412A4E",
"#  c #4E3643",
"$  c #593A46",
"%  c #563B49",
"&  c #593A48",
"*  c #442D52",
"=  c #463054",
"-  c #493357",
";  c #4B375A",
":  c #4E3C5E",
">  c #513D5E",
",  c #544263",
"<  c #594867",
"1  c #5B4C6A",
"2  c #47576F",
"3  c #5F516E",
"4  c #4E5D73",
"5  c #5D5973",
"6  c #64516E",
"7  c #655572",
"8  c #685674",
"9  c #625974",
"0  c #685875",
"q  c #6D5E7A",
"w  c #536177",
"e  c #55637A",
"r  c #5A667C",
"t  c #5C687E",
"y  c #64657D",
"u  c #6F607B",
"i  c #71627D",
"p  c #9B0B00",
"a  c #5F6B80",
"s  c #726580",
"d  c #766B83",
"f  c #7B6E86",
"g  c #657286",
"h  c #6A7287",
"j  c #6B768A",
"k  c #6E798C",
"l  c #7D7289",
"z  c #707B8E",
"x  c #737E91",
"c  c #827B91",
"v  c #758193",
"b  c #7A8596",
"n  c #7C8698",
"m  c #7E899A",
"M  c #8C8B96",
"N  c #848698",
"B  c #8C869A",
"V  c #828C9C",
"C  c #8D8E9F",
"Z  c #90899D",
"A  c #8C94A4",
"S  c #8F98A7",
"D  c #8497AA",
"F  c #8C9EAF",
"G  c #9494A5",
"H  c #9B94A4",
"J  c #9D9AA3",
"K  c #949CAB",
"L  c #9C9AAB",
"P  c #8D9FB1",
"I  c #97A0AE",
"U  c #9AA1AE",
"Y  c #93A4B5",
"T  c #9CA5B2",
"R  c #A1A6B3",
"E  c #AAA7B6",
"W  c #A2AAB6",
"Q  c #A6AEBA",
"!  c #ABAFBC",
"~  c #B2AFBD",
"^  c #ABB2BD",
"/  c #B3B2BE",
"(  c #AEB5C1",
")  c #B1B7C2",
"_  c #B3BAC5",
"`  c #B9BAC5",
"'  c #B6BEC8",
"]  c #B9BEC9",
"[  c #B6C0C9",
"{  c #BDC3CC",
"}  c #C0C5CE",
"|  c #C1C6D0",
" . c #C4C9D2",
".. c #C9CDD5",
"X. c #CBD0D7",
"o. c #CDD2D9",
"O. c #D1D5DC",
"+. c #D5D9DE",
"@. c #D6DBE0",
"#. c #DADEE2",
"$. c #DEE2E5",
"%. c #DFE5E8",
"&. c #E0E4E6",
"*. c #E3E6E9",
"=. c #E6E9EB",
"-. c #E9ECED",
";. c #EDEFF0",
":. c #EFF0F2",
">. c #F2F3F4",
",. c #F1F8F7",
"<. c #F3FBFA",
"1. c #F9FAFA",
"2. c None",
/* pixels */
"2.2.2.2.2.2.2.2.2.2.2.2.2.2.2.2.2.2.2.2.2.2.2.2.2.2.2.2.2.2.2.2.2.2.2.2.2.2.2.2.",
"2.2.2.2.2.2.2.2.2.2.2.2.2.2.2.2.2.2.2.2.2.2.2.2.2.2.2.2.2.2.2.2.2.2.2.2.2.2.2.2.",
"2.2.2.2.2.2.2.2.2.2.2.2.2.2.2.2.2.2.2.2.2.2.2.2.2.2.2.2.2.2.2.2.2.2.2.2.2.2.2.2.",
"2.2.2.2.2.2.2.2.2.2.2.2.2.2.2.2.2.2.2.2.2.2.2.2.2.2.2.2.2.2.2.2.2.2.2.2.2.2.2.2.",
"2.2.2.2.2.2.2.2.2.2.2.2.2.2.2.2.2.2.2.2.2.2.2.2.2.2.2.2.2.2.2.2.2.2.2.2.2.2.2.2.",
"2.2.2.2.2.2.2.2.2.2.2.2.2.2.2.2.2.2.2.2.2.2.2.2.2.2.2.2.2.2.2.2.2.2.2.2.2.2.2.2.",
"2.2.2.2.2.2.2.2.2.2.2.2.2.2.2.2.2.2.2.2.2.2.2.2.2.2.2.2.2.2.2.2.2.2.2.2.2.2.2.2.",
"2.2.2.2.2.2.2.2.2.2.2.2.2.2.2.2.2.2.2.2.2.2.2.2.2.2.2.2.2.2.2.2.2.2.2.2.2.2.2.2.",
"2.2.2.2.2.2.2.2.2.2.2.2.2.2.2.2.2.2.2.2.2.2.2.2.2.2.2.2.2.2.2.2.2.2.2.2.2.2.2.2.",
"2.2.2.2.2.2.2.2.2.2.2.2.2.2.2.2.2.2.2.2.2.2.^ ^ ( ( ( ( 2.2.2.2.2.2.2.2.2.2.2.2.",
"2.2.2.2.2.2.2.2.2.2.2.2.2.2.2.2.2.2.2.2.^ Q O.$.#.#.#.+. .^ ^ 2.2.2.2.2.2.2.2.2.",
"2.2.2.2.2.2.2.2.2.2.2.2.2.2.2.2.2.2.2.2.X...=.1.>.>.>.>.$... .2.2.2.2.2.2.2.2.2.",
"2.2.2.2.2.2.2.2.2.2.2.2.2.2.2.2.2.N R o.1.>.>.:.>.:.:.:.>.>.-. ._ 2.2.2.2.2.2.2.",
"2.2.2.2.2.2.2.2.2.2.2.2.2.2.2.2.x o.:.>.;.:.:.:.:.:.:.:.:.:.;.-.X.^ 2.2.2.2.2.2.",
"2.2.2.2.2.2.2.2.2.2.2.2.2.2.2.n W =.>.:.:.:.:.:.:.:.:.:.:.:.;.;.=.o._ 2.2.2.2.2.",
"2.2.2.2.2.2.2.2.2.2.2.2.2.2.2.V O.-.>.:.:.:.:.:.:.:.:.:.:.;.>.>.;.+.^ 2.2.2.2.2.",
"2.2.2.2.2.2.2.2.2.2.2.2.2.2.2.K -.>.:.:.:.:.:.:.:.:.:.:.:.:.:.>.-.$.} 2.2.2.2.2.",
"2.2.2.2.2.2.2.2.2.2.2.2.2.k S  .>.:.:.:.:.:.:.:.:.:.:.:.:.:.:.;.>.:.&.[ 2.2.2.2.",
"2.2.2.2.2.2.2.2.2.2.2.2.2.h K o.:.:.:.:.:.:.:.:.:.:.;.>.>.1.1.>.:.-.&.[ 2.2.2.2.",
"2.2.2.2.2.2.2.2.2.2.2.2.2.S _ $.:.:.:.:.:.:.:.:.:.;.>.<.O.D D O.1.:.$.{ 2.2.2.2.",
"2.2.2.2.2.2.2.2.2.2.2.2.x R O.=.:.:.:.:.:.;.;.>.:.:.>.o.M # # M O.>.*.^ 2.2.2.2.",
"2.2.2.2.2.2.2.2.2.2.2.2.k R o.=.:.:.:.:.:.>.:.;.:.:.1.P #     # F 1.+.m 2.2.2.2.",
"2.2.2.2.2.2.2.2.2.2.2.2.z _ *.:.:.:.:.:.:.:.:.:.:.:.1.P & p p & Y -.b r 2.2.2.2.",
"2.2.2.2.2.2.2.2.2.2.2.b T  .*.>.:.:.:.:.:.:.:.:.:.:.>.@.H & & H  .R e 4 2.2.2.2.",
"2.2.2.2.2.2.2.2.2.2.2.n ] ..&.>.:.:.:.:.:.:.:.:.:.:.:.>.@.I Y &.{ r t k 2.2.2.2.",
"2.2.2.2.2.2.2.2.2.2.2.n | X.&.>.:.:.:.:.:.:.:.:.:.:.:.>.>.1.1.1./ h V S 2.2.2.2.",
"2.2.2.2.2.2.2.2.2.2.2.m o.O.$.>.:.:.:.:.:.:.:.:.:.:.:.:.:.:.>...+.;.{ m 2.2.2.2.",
"2.2.2.2.2.2.2.2.2.2.m R o.O.@.=.:.:.:.:.:.:.:.:.:.:.:.:.:.:.:.-.=.$. .m 2.2.2.2.",
"2.2.2.2.2.2.2.2.2.k A { o.o.$.=.:.:.:.:.:.:.:.:.:.:.:.:.:.:.:.-.=.=.o.V 2.2.2.2.",
"2.2.2.2.2.2.2.2.2.2.A ..o.O.$.:.:.:.:.:.:.:.:.:.:.:.:.:.:.:.-.*.=.-.O.V 2.2.2.2.",
"2.2.2.2.2.2.2.2.2.k S ..o.$.$.*.:.:.:.:.:.:.:.:.:.:.>.:.:.:.$.-.-.$.O.V 2.2.2.2.",
"2.2.2.2.2.2.2.2.z A ) o.O.$.=.-.&.;.>.:.:.:.:.:.:.:.:.:.:.:.:.*.$.$. .V 2.2.2.2.",
"2.2.2.2.2.2.2.2.z L } O.O.#.*.*.-.*.-.>.:.:.:.:.:.:.:.;.:.:.*.-.&.O. .V 2.2.2.2.",
"2.2.2.2.2.2.2.2.j T  .O.O.#.&.&.-.=.*.;.:.-.:.:.:.:.-.;.:.-.*.;.$.X.[ m 2.2.2.2.",
"2.2.2.2.2.2.2.2.z Q o.O.O.#.&.&.&.;.*.*.;.&.-.:.:.;.&.-.-.$.:.&.@.o.) b 2.2.2.2.",
"2.2.2.2.2.2.2.v U `  .O.O.#.&.&.&.&.-.-.&.:.&.=.;.$.;.=.$.&.&.+.O.o._ g 2.2.2.2.",
"2.2.2.2.2.2.2.v U [ ..O.@.&.&.#.O.#.&.&.$.&.-.-.*.;.*.+.+.&.&.O.o...U a 2.2.2.2.",
"2.2.2.2.2.2.2.x R [ ..O.&.$.&.#.o.$.&.&.$.$.*.*.&.-.&.+.O.&.$.+.O...K a 2.2.2.2.",
"2.2.2.2.2.h v m ( } ..O.&.&.&.#.O.$.&.&.&.$.$.&.&.$.&.+.+.&.$.+.O...S t 2.2.2.2.",
"2.2.2.- = 5 V Q { o.o.O.&.&.&.#.o.#.$.$.$.$.$.$.$.&.&.+.O.$.$.+.+.{ x 2.2.2.2.2.",
"2.2.> h h h N _ } o.O.O.&.&.@.o.} O.&.&.&.&.$.&.$.&.&.+.O.+.$.+.O.} v 2.2.2.2.2.",
"2.2.> n b b K { { X.o.O.&.&.@.X.} o.+.&.&.&.+.+.&.$.&.+... .$.+.+.} v 2.2.2.2.2.",
"2.2.> a z A ^ { } X.O.O.$.#.@...} o.$.&.&.&.O.+.&.$.&.@...} $.+.@.{ j 2.2.2.2.2.",
"2.2.2.* t K { { { ..O.O.&.O.O.o.} ..+.&.&.&.+.+.&.&.&.+...} $.+.+.] w 2.2.2.2.2.",
"2.2.= * o c { _ )  .O.+.&.+.O.X.} o.O.+.$.$.+.o.O.&.&.#...} o.O.@.{ 4 4 2.2.2.2.",
"2.2., C H ! ] ( )  .O.O.+.X. . .} o.o.+.$.$.+.o.+.&.&.+...|  .o.O._ h b k 2.2.2.",
"2.2.1 { o...{ ' _ } O.O..._ {  .} o.O.+.$.&.+...o.&.&.#.o.{ { o.o.) V S k 2 2.2.",
"2.2.1 {  .| ' T ! _ } ..} A H / } o.O.+.&.$.+. . .#.&.&.@.} { o.o.] T T n a 2.2.",
"2.2.< _ ' { G - C K T [  .7 o 7  .o.O.+.&.$.+...} O.#.&.#.O.| o.X.{ { | ..L * 2.",
"2.2.; 1 1 3 , * V T ^ _ T : , G X.$.X...+.+...} | O.$.&.#.o.| |  .{ Q { @.R * 2.",
"2.2.2.2.2.o : d T ^ ) Q Q V G [ O.#.X.{ O.O. .{ | O.#.&.#.o.| {  .( 9 l c f 2.2.",
"2.2.2.2.2.2.1 T [ { U N  .o.o.o.o.X. ...O.o. .{  .X.$.&.#.O.| | ..` 8 * o 2.2.2.",
"2.2.2.2.2.2.1 I { o.B > ] { o.$.O. .[ ..O.o...{ { { @.&.$.X.{ { X.*.*.7 2.2.2.2.",
"2.2.2.2.2.2.1 T  .O.G * , > C @.{ { R Q +.O.) T ! { #.=...I { T _ ,.;.7 2.2.2.2.",
"2.2.2.2.2.2.2.9 s d q 2.2.2.1 B +.+.{ { O.O.W T ] o.@.=.@.! O.{ G l l 2.2.2.2.2.",
"2.2.2.2.2.2.2.+ 2.o 2.2.2.2.2.6 ;.,./ E @.o.I Q o.@.@.` ~ o.&.%.Z . 2.2.2.2.2.2.",
"2.2.2.2.2.2.2.2.2.2.2.2.2.2.2.0 O.#.q u =. .R R ` } ..q 9 -.&.:.H o 2.2.2.2.2.2.",
"2.2.2.2.2.2.2.2.2.2.2.2.2.2.2.2.> > @ f =.$.*.H = > > @ d :.=.,.H + 2.2.2.2.2.2.",
"2.2.2.2.2.2.2.2.2.2.2.2.2.2.2.2.2.2.o f <.:.1.H o 2.2.* , s i i q 2.2.2.2.2.2.2.",
"2.2.2.2.2.2.2.2.2.2.2.2.2.2.2.2.2.2.2.q H H L f 2.2.2.2.2.2.2.2.2.2.2.2.2.2.2.2.",
"2.2.2.2.2.2.2.2.2.2.2.2.2.2.2.2.2.2.2.2.o o o 2.2.2.2.2.2.2.2.2.2.2.2.2.2.2.2.2.",
"2.2.2.2.2.2.2.2.2.2.2.2.2.2.2.2.2.2.2.2.2.2.2.2.2.2.2.2.2.2.2.2.2.2.2.2.2.2.2.2.",
"2.2.2.2.2.2.2.2.2.2.2.2.2.2.2.2.2.2.2.2.2.2.2.2.2.2.2.2.2.2.2.2.2.2.2.2.2.2.2.2.",
"2.2.2.2.2.2.2.2.2.2.2.2.2.2.2.2.2.2.2.2.2.2.2.2.2.2.2.2.2.2.2.2.2.2.2.2.2.2.2.2.",
"2.2.2.2.2.2.2.2.2.2.2.2.2.2.2.2.2.2.2.2.2.2.2.2.2.2.2.2.2.2.2.2.2.2.2.2.2.2.2.2.",
"2.2.2.2.2.2.2.2.2.2.2.2.2.2.2.2.2.2.2.2.2.2.2.2.2.2.2.2.2.2.2.2.2.2.2.2.2.2.2.2.",
"2.2.2.2.2.2.2.2.2.2.2.2.2.2.2.2.2.2.2.2.2.2.2.2.2.2.2.2.2.2.2.2.2.2.2.2.2.2.2.2.",
"2.2.2.2.2.2.2.2.2.2.2.2.2.2.2.2.2.2.2.2.2.2.2.2.2.2.2.2.2.2.2.2.2.2.2.2.2.2.2.2.",
"2.2.2.2.2.2.2.2.2.2.2.2.2.2.2.2.2.2.2.2.2.2.2.2.2.2.2.2.2.2.2.2.2.2.2.2.2.2.2.2.",
"2.2.2.2.2.2.2.2.2.2.2.2.2.2.2.2.2.2.2.2.2.2.2.2.2.2.2.2.2.2.2.2.2.2.2.2.2.2.2.2."
};
